<?xml version="1.0" standalone="no"?>
<!DOCTYPE svg PUBLIC "-//W3C//DTD SVG 1.1//EN" "http://www.w3.org/Graphics/SVG/1.1/DTD/svg11.dtd" >
<svg xmlns="http://www.w3.org/2000/svg">
<metadata></metadata>
<defs>
<font id="intuitiveregular" horiz-adv-x="1705" >
<font-face units-per-em="2048" ascent="1536" descent="-512" />
<missing-glyph horiz-adv-x="819" />
<glyph horiz-adv-x="2048" />
<glyph horiz-adv-x="2048" />
<glyph unicode="&#xd;" horiz-adv-x="2048" />
<glyph unicode=" "  horiz-adv-x="819" />
<glyph unicode="&#x09;" horiz-adv-x="819" />
<glyph unicode="&#xa0;" horiz-adv-x="819" />
<glyph unicode="!" horiz-adv-x="464" d="M92 45q0 14 3 32.5t18.5 37t46 31t86.5 14.5q41 -8 66.5 -31t25.5 -57q0 -16 -3 -35t-15.5 -35t-39 -29.5t-71.5 -17.5q-66 -4 -91.5 23.5t-25.5 66.5zM106.5 359q-4.5 40 1 83t5.5 82q6 174 7 346.5t-7 346.5q6 31 26.5 50t47 24t51 -3t41.5 -31q23 -4 42 -20t29 -47 q-6 -174 -4 -344t-12 -344q-4 -37 -4 -71t-4 -65.5t-17.5 -60.5t-44.5 -55q-10 -8 -37.5 -8t-40.5 -9q-43 18 -59 52t-20.5 74z" />
<glyph unicode="&#x22;" horiz-adv-x="514" d="M58 1176q-3 43 0 82.5t17.5 61t44.5 20.5t81 -40l22 -65q-4 -61 -4 -147.5t-16 -163.5q10 -43 6 -83t-45 -65q-18 -10 -36.5 -6t-37.5 14q-20 23 -14 54q16 47 13 90t-11 96q-4 25 -10.5 67t-9.5 85zM286 1176q-3 43 0 82.5t17 61t44 20.5t81 -40l23 -65 q-4 -61 -4.5 -147.5t-16.5 -163.5q10 -43 6 -83t-45 -65q-18 -10 -36.5 -6t-37.5 14q-20 23 -14 54q16 47 13 90t-11 96q-4 25 -10 67t-9 85z" />
<glyph unicode="#" horiz-adv-x="1312" d="M13 405.5q1 28.5 23.5 52t65.5 25.5l101 -4q-51 6 -50 3t25.5 -7t60 -7t54.5 1q8 41 14 82t19 82q16 61 35.5 121.5t37.5 122.5q-4 -2 -6 -2.5t-6 -2.5h2q8 -2 -7 -4t-24 -6q-12 -4 -25.5 -8t-27.5 -8l-166 -4q-43 4 -62.5 29.5t-18.5 54t23.5 52t65.5 26.5q8 0 21.5 3 t11.5 -6l254 -6q16 70 27.5 139.5t9.5 143.5q8 43 34.5 61.5t55.5 15.5t51.5 -27.5t20.5 -67.5l-70 -259q53 2 106.5 4.5t106.5 2.5q16 53 30.5 112.5t20.5 153.5q8 43 35 61.5t55.5 15.5t51 -28t20.5 -68q-10 -61 -31.5 -127.5t-52.5 -121.5h25l229 18q27 2 48.5 -9 t32.5 -31.5t9 -47.5t-24 -53q-45 -23 -92.5 -22t-93.5 11.5t-92 21.5t-89 7q-4 -61 -7 -109.5t-8 -94.5t-11.5 -94t-18.5 -109l342 -2q45 0 76 -43l2 -3q12 -47 -6.5 -77.5t-65.5 -40.5q-16 4 -29.5 6t-29.5 10l-318 39q-29 -84 -31.5 -157.5t-9.5 -164.5q-12 -35 -37.5 -50 t-51 -12t-47 23.5t-25.5 57.5q10 43 16 79t13 67.5t18.5 64.5t32.5 71h-281q-6 -25 -9 -52t-8.5 -63t-10.5 -84t-13 -112q-12 -35 -38 -50t-51.5 -12t-47 23.5t-25.5 57.5q10 76 25.5 141t46.5 131l-156 -20q-43 4 -62.5 29.5t-18.5 54zM395 469q59 -2 116.5 -1t115.5 5 q37 0 78 6q4 6 13 114.5t34 317.5l-230 -10zM899 1006h2q2 4 2 7t2 7q-2 -4 -4 -7t-2 -7z" />
<glyph unicode="$" horiz-adv-x="956" d="M44 475q-3 78 24 129q35 41 75 37q41 14 71 -5.5t38 -51.5q2 -4 4 -9.5t4 -11.5q0 -47 5 -92t9 -92q16 -59 49 -98t80 -52v15q2 18 3.5 65t3.5 115t3 154t1 180q-37 27 -77 58.5t-87 76.5l-86 63q-35 37 -53.5 66t-26.5 51.5t-10 39.5t-2 34q0 49 14 98t52 91t104.5 71 t171.5 39q2 63 23.5 94t48 29t49 -33t28.5 -88q33 -2 69 -6t68.5 -13.5t60 -23.5t44.5 -37q8 -10 19.5 -30.5t19.5 -43t12 -43t-2 -32.5q-23 -45 -51.5 -54.5t-58 -1.5t-54 24.5t-39.5 22.5q-16 8 -34.5 15.5t-36.5 13.5q4 -86 -1.5 -171t-11.5 -177q45 -37 83 -74t73 -78 q106 -84 146 -181t31 -192.5t-59 -181.5t-124 -143q-20 -18 -48 -23.5t-55 -13.5q-14 -4 -26.5 -6t-26.5 -6q-14 -70 -34.5 -108t-42 -39t-40 36t-30.5 117q-55 12 -107.5 36.5t-96.5 60.5t-77 81t-47 96q-16 23 -16 47q-23 78 -26 156zM266 410q0 4 1 -1.5t3 -15.5 q-4 12 -4 17zM275.5 1179.5q-7.5 -50.5 70.5 -126.5q16 -12 31.5 -23.5t32.5 -21.5q-2 57 -3 113.5t-4 109.5q-2 8 -2 16v19q-33 -4 -57 -13q-61 -23 -68.5 -73.5zM555 639q-2 -152 6 -236t14 -127q18 16 35 36t27 38q18 39 18 72q-14 82 -37.5 129t-62.5 88z" />
<glyph unicode="%" horiz-adv-x="993" d="M49.5 598q3.5 57 9.5 106q3 27 8 61.5t17 59.5q9 19 33 33.5t52.5 23.5t57.5 10.5t48 -4.5q45 -3 76 -23.5t51 -52.5t30 -72.5t13 -83t-0.5 -83.5t-9.5 -74q-2 -14 -6 -32t-10.5 -36t-14.5 -34.5t-20 -25.5q-19 -16 -47.5 -21.5t-59 -5t-60 4.5t-48.5 7q-54 9 -80 46.5 t-34.5 88t-5 107.5zM84 74q10 39 24.5 67.5t37.5 59.5q47 88 98 165.5t102.5 155.5t96.5 159t80 175q14 43 40.5 114.5t62.5 145.5t80 135.5t95 81.5q76 4 87 -38t-42 -120h-2q-68 -141 -147.5 -275t-159.5 -268t-154.5 -271.5t-132.5 -282.5q-4 -16 -4 -23 q-12 -35 -37.5 -50t-51.5 -12t-47.5 23.5t-25.5 57.5zM132 616.5q3 -39.5 12.5 -78t21.5 -73.5l38 -30q33 -2 56.5 -3t40 4t28.5 17.5t21 37.5q10 28 19.5 61t12.5 66t-2 65t-22.5 57t-50.5 42.5t-83 21.5l-12 -3q-12 -7 -28 -14.5t-23 -19.5q-20 -34 -26 -72.5t-3 -78z M229.5 257q3.5 57 9.5 106q3 27 8 61.5t17 59.5q9 19 33 33.5t52.5 23.5t57.5 10.5t48 -4.5q45 -3 76 -23.5t51 -52.5t30 -72.5t13 -83t-0.5 -83.5t-9.5 -74q-2 -14 -6 -32t-10.5 -36t-14.5 -34.5t-20 -25.5q-19 -16 -47.5 -21.5t-59 -5t-60 4.5t-48.5 7q-54 9 -80 46.5 t-34.5 88t-5 107.5zM312 275.5q3 -39.5 12.5 -78t21.5 -73.5l38 -30q33 -2 56.5 -3t40 4t28.5 17.5t21 37.5q10 28 19.5 61t12.5 66t-2 65t-22.5 57t-50.5 42.5t-83 21.5l-12 -3q-12 -7 -28 -14.5t-23 -19.5q-20 -34 -26 -72.5t-3 -78z" />
<glyph unicode="&#x26;" d="M155 323.5q3 98.5 53 198t140 176.5q-57 78 -96 157t-40 151.5t48 136t166 108.5q57 23 104.5 27t91.5 -6t88 -36t97 -62q12 -12 20.5 -26.5t12.5 -29.5q29 -57 6 -118.5t-69 -120t-102.5 -109.5t-96.5 -86q29 -31 54 -55.5t51 -47t51.5 -46t56.5 -54.5q100 98 178 175 t166 149q10 12 23 10t22.5 -11t11.5 -26.5t-12 -36.5l-107 -159q-41 -53 -79 -107.5t-74 -107.5q20 -51 68 -86t99.5 -68t95.5 -71t54 -95q-20 -53 -50 -64.5t-66 3t-75.5 48.5t-79.5 70.5t-78 69.5t-71 47q-41 -53 -88 -102t-100 -92q-25 -20 -62 -33.5t-75.5 -18t-78.5 1 t-71 21.5q-100 53 -145 140t-42 185.5zM380 262q13 -47 51 -68.5t81 -11.5q18 4 60 59.5t112 135.5l-217 174q-66 -96 -83 -169t-4 -120zM399 969q10 -39 35.5 -74t52.5 -43q31 -16 58.5 -6t49 32.5t39 53.5t28.5 53q16 35 9 62.5t-48 39.5q-31 10 -75 22.5t-82 6.5 t-59.5 -39t-7.5 -108z" />
<glyph unicode="'" horiz-adv-x="274" d="M58 1176q-3 43 0 82.5t17.5 61t44.5 20.5t81 -40l22 -65q-4 -61 -4 -147.5t-16 -163.5q10 -43 6 -83t-45 -65q-18 -10 -36.5 -6t-37.5 14q-20 23 -14 54q16 47 13 90t-11 96q-4 25 -10.5 67t-9.5 85z" />
<glyph unicode="(" horiz-adv-x="651" d="M44 459q-5 76 1 153q4 31 12.5 60.5t16.5 58.5q14 55 31.5 106.5t41 100.5t55 98.5t74.5 100.5q18 20 57.5 42.5t85.5 38t93 20.5t82 -9q-12 -29 -32.5 -51.5t-46.5 -42t-52.5 -39t-46.5 -39.5q-86 -86 -137.5 -202t-64.5 -239.5t9.5 -243.5t83.5 -214q66 -104 147 -219 t167 -205q33 -41 -15 -68q-74 57 -152.5 125t-152.5 147.5t-134.5 172t-94.5 196.5q-23 76 -28 152z" />
<glyph unicode=")" horiz-adv-x="651" d="M36 -266q-33 -41 15 -68q74 57 152.5 125t152.5 147.5t134.5 172t94.5 196.5q23 76 28 152t-1 153q-4 31 -12.5 60.5t-16.5 58.5q-14 55 -31.5 106.5t-41 100.5t-55 98.5t-74.5 100.5q-18 20 -57.5 42.5t-85.5 38t-93 20.5t-82 -9q12 -29 32.5 -51.5t46.5 -42t52.5 -39 t46.5 -39.5q86 -86 137.5 -202t64.5 -239.5t-9.5 -243.5t-83.5 -214q-66 -104 -147 -219t-167 -205z" />
<glyph unicode="*" horiz-adv-x="929" d="M42 810q3 32 36 60q29 12 64.5 19.5t72.5 18t72 25.5t59 40q-41 35 -84 63.5t-90 48.5q-27 27 -31 56.5t9.5 51t41 33t62.5 1.5q45 -39 76.5 -90.5t72.5 -92.5q8 25 6.5 59t-6 68.5t-7.5 68.5t6.5 60.5t35 40t74.5 9.5q25 -16 40 -39t11 -54q0 -16 -10 -40.5t-23.5 -53 t-24.5 -61.5t-13 -68q29 16 63.5 43t70.5 56.5t67.5 58.5t56.5 51q35 12 63.5 4t43.5 -28.5t14 -50t-25 -58.5q-76 -43 -156 -80t-158 -80l-26 27q10 -31 45 -54.5t77 -45t84 -41t63.5 -41t16 -48t-56.5 -59.5q-88 18 -154.5 79.5t-109.5 141.5q16 -27 25.5 -67.5t8.5 -82.5 t-9.5 -79t-25.5 -56.5t-44 -16.5t-61 44q-8 59 11 131t34 127q-16 -27 -46 -49t-64 -41.5t-67.5 -40.5t-58.5 -41q-37 -23 -68.5 -14.5t-49 32t-14.5 55.5z" />
<glyph unicode="+" horiz-adv-x="1079" d="M73 647q1 29 23.5 52.5t65.5 25.5q84 -10 166 -21.5t168 -13.5q2 74 -3.5 152t-15.5 168q6 37 28.5 56t49.5 20t50.5 -15t33.5 -53q-14 -92 -22.5 -170t-12.5 -156q72 4 144.5 14.5t146.5 8.5q41 -12 56.5 -40t9 -56.5t-32 -48t-68.5 -15.5q-10 4 -27.5 3t-15.5 9l2 2 q-57 10 -110.5 16.5t-106.5 10.5q2 -61 6 -124.5t15 -135.5q-2 -43 -26 -65.5t-52.5 -23.5t-54 18.5t-29.5 62.5q10 74 18 139t13 129q-82 -2 -164 -11.5t-174 -21.5q-43 4 -62.5 29.5t-18.5 54.5z" />
<glyph unicode="," horiz-adv-x="475" d="M71 -149.5q1 26.5 14 45t36.5 27.5t52.5 1l12 -4l2 -2q20 20 27.5 41t5.5 43.5t-9 46t-15 51.5q-25 8 -37.5 24.5t-16.5 37.5q-25 27 -22.5 57.5t24.5 50.5q-6 16 -4 32.5t16.5 30t43 24t78.5 16.5q55 2 86.5 -28t35.5 -116q-20 -86 -48.5 -186t-86.5 -193 q-20 -29 -32.5 -43t-14.5 -16q-14 -20 -30.5 -25.5t-34 -1t-35 14.5t-31.5 20q4 -4 3 -4t-3 4q-18 25 -17 51.5z" />
<glyph unicode="-" horiz-adv-x="733" d="M99 581.5q1 28.5 23.5 52t65.5 25.5q59 -33 124 -38t124.5 0.5t109.5 11.5t81.5 0t41 -35t-13.5 -96q-27 -8 -53.5 -7t-53 6t-54 12t-54.5 9q-66 6 -130 -3t-130 -21q-43 4 -62.5 29.5t-18.5 54z" />
<glyph unicode="." horiz-adv-x="413" d="M76 128q0 17 8 33.5t22 26.5q2 39 35 63.5t80 8.5q43 21 94 -12q18 -29 18.5 -56.5t-11.5 -50.5l-2.5 -5l-2.5 -5q-2 -8 -2 -14t-4 -13q18 -31 16.5 -61.5t-19 -51t-45 -25.5t-58.5 18q-33 23 -37 59q-29 -4 -55 18q-20 14 -28.5 32t-8.5 35z" />
<glyph unicode="/" horiz-adv-x="1021" d="M100 70q10 39 24.5 67.5t37.5 59.5q47 88 98 165.5t102.5 155.5t96.5 159t80 175q14 43 40.5 114.5t62.5 145.5t80 135.5t95 81.5q76 4 87 -38t-42 -120h-2q-68 -141 -147.5 -275t-159.5 -268t-154.5 -271.5t-132.5 -282.5q-4 -16 -4 -23q-12 -35 -37.5 -50t-51.5 -12 t-47.5 23.5t-25.5 57.5z" />
<glyph unicode="0" horiz-adv-x="882" d="M38 483.5q7 112.5 19 208.5q6 53 16.5 121t32.5 117q18 39 65.5 67.5t104 46t113.5 20.5t96 -9q88 -6 149.5 -46t100.5 -103.5t59.5 -143.5t26.5 -164t-1 -165t-19 -146q-4 -27 -12.5 -62t-20.5 -70.5t-28.5 -68.5t-39.5 -51q-37 -31 -94 -42t-117.5 -10t-118 9t-96.5 14 q-106 18 -157 92t-68.5 173.5t-10.5 212zM201 520q6 -78 25.5 -154.5t41.5 -144.5l76 -59q66 -4 112 -6t78.5 8t56.5 34.5t42 73.5q20 55 38.5 120t24.5 130.5t-4 128t-45 112.5t-99.5 84t-164.5 42l-23 -6q-23 -14 -55.5 -28.5t-46.5 -37.5q-39 -68 -51 -143.5t-6 -153.5z " />
<glyph unicode="1" horiz-adv-x="501" d="M33 652.5q-8 31.5 14 68.5q78 53 120 121.5t77 158.5q4 2 5 4.5t5 4.5q10 29 40 46t73 7q2 0 3 -1t3 -1q23 -14 31 -26.5t14 -37.5v-14l-21 -203l-2 -35v35l11 -491q0 -25 6 -57.5t9 -66.5t0 -65.5t-20 -54.5q-18 -25 -53 -42t-71.5 -20t-65.5 14t-33 64l25 291l45 410 q-20 -31 -36 -64.5t-32 -72.5q-29 -33 -60.5 -36t-55 14.5t-31.5 49zM416 950q0 10 2 17v-9q0 -2 -1 -6t-1 -2z" />
<glyph unicode="2" horiz-adv-x="837" d="M69.5 889.5q-1.5 30.5 24.5 58.5q-4 -2 1 5.5t9 11.5q20 20 36 23t50 16q53 16 106.5 27t111.5 5q74 -6 143.5 -44t107 -102.5t33.5 -155.5t-74 -204q-33 -68 -75.5 -131t-83.5 -127q-4 -8 -9.5 -16t-11.5 -18q37 -16 67 -29.5t60.5 -21t67.5 -7.5t90 13 q57 -16 68.5 -59.5t-17.5 -74.5q0 -4 -1 -10t-1 -10q-8 -29 -41 -35q-59 0 -118.5 7t-118.5 18q-29 6 -56.5 15t-56.5 5q-41 -2 -81 -10t-83 -12q-55 -16 -95 10t-36 94q0 12 6 26.5t14.5 27t14.5 22.5t8 12q35 59 94.5 111.5t121 104.5t114.5 108.5t78 126.5q0 2 1 2t1 2 q0 4 2 6q-20 86 -95 135q-47 -4 -101 -5t-103 -13q-25 -18 -44.5 -22.5t-54.5 -0.5q-23 10 -35 27.5t-14 34.5q-23 23 -24.5 53.5z" />
<glyph unicode="3" horiz-adv-x="903" d="M-101.5 -385q-9.5 45 15.5 119q10 18 20.5 27.5t30.5 15.5q23 2 40.5 -4t33.5 -13.5t32.5 -14.5t37.5 -7q53 0 127.5 25.5t146.5 68.5t126 100.5t66.5 119t-32.5 124t-170 117.5l-54 18q-23 -2 -48 2t-47.5 12.5t-38 20.5t-15.5 25q-14 37 13.5 59.5t75.5 39.5 t103.5 31.5t99.5 37t63.5 56.5t-7.5 87q-10 45 -56 67.5t-106.5 30.5t-120 7t-92.5 -3q-43 4 -63.5 31t-18.5 55q-6 49 -3 79t11.5 46.5t20.5 23.5t27 7l239 2q147 -8 234.5 -57t127.5 -113.5t42 -131.5t-19 -112q-14 -31 -42.5 -52t-53.5 -46q-25 -23 -50.5 -45t-53.5 -39 q82 -41 137 -108.5t73.5 -154.5t-4 -189.5t-96.5 -212.5q-10 -12 -19 -24.5t-20 -25.5q-49 -53 -126.5 -103t-167 -83t-181.5 -39t-166 29q-18 10 -28 26q-35 23 -44.5 68z" />
<glyph unicode="4" horiz-adv-x="1021" d="M61 66q-6 47 23 79q2 4 4 5.5t6 5.5q61 84 118.5 171t114 175t114 176t120.5 174q12 18 24.5 37.5t22.5 36.5q33 51 73 87t79 48t71.5 -3.5t52 -67.5t21.5 -144t-22 -234q-8 -86 -19.5 -170t-17.5 -170q4 -16 5 -31.5t5 -31.5q84 0 122 -28.5t43 -61.5t-15.5 -60.5 t-51.5 -23.5h-4q-12 -4 -31.5 -4t-40 1t-40 3t-31.5 0q4 -57 2 -121t-8 -127t-13.5 -123.5t-13.5 -109.5q-4 -6 -6 -11.5t-6 -9.5q-20 -35 -66 -43h-143q-47 2 -56.5 30.5t0 66.5t27 78t25.5 67q31 76 45 123t20.5 77.5t6.5 53t-3 47.5h-26t-25 -2q-8 0 -20 4l-377 -4 q-18 -4 -33.5 -5t-36.5 1q-23 16 -39 39zM348 193q51 -4 101.5 -4.5t99.5 -0.5q16 4 26 5h5q14 4 28.5 6t28.5 6q2 59 15.5 123.5t28.5 131t28.5 131t15.5 124.5l12 59q-6 -10 -15 -26.5t-18.5 -35t-16.5 -36t-13 -25.5q-72 -121 -154 -234.5t-172 -223.5z" />
<glyph unicode="5" horiz-adv-x="950" d="M-101.5 -385q-9.5 45 15.5 119q10 18 20.5 27.5t30.5 15.5q23 2 40.5 -4t33.5 -13.5t33 -14.5t37 -7q59 0 145 31.5t163 84t125 120t31 137.5h2q-16 29 -41.5 58.5t-53 54t-55.5 43t-48 26.5q-8 2 -14.5 4t-12.5 4l-168 57q-29 6 -47 29q-20 70 -2 141v4q-8 33 -6 77 t6 92.5t10.5 93.5t6.5 79q2 29 5 56.5t9 56.5q10 20 22.5 26.5t34.5 6.5q129 6 255 8t253 8q33 -10 48.5 -31.5t11 -52t-32 -69.5t-82.5 -82q-20 2 -70.5 9t-107 11t-105.5 2t-63 -18q-18 -20 -27.5 -50t-13.5 -61.5t-5 -63.5t-3 -59q0 2 1 2t1 2v-20q0 -23 -5 -33 q57 -6 140 -30l129 -60q66 -33 115 -83t74.5 -113.5t28.5 -138t-24 -156.5h-4q-25 -84 -84 -174q-10 -12 -19 -24.5t-20 -25.5q-49 -53 -126.5 -103t-167 -83t-181.5 -39t-166 29q-18 10 -28 26q-35 23 -44.5 68zM252 897q4 4 8 6t8 6h-14q0 -8 -2 -12z" />
<glyph unicode="6" horiz-adv-x="1058" d="M103.5 756.5q5.5 146.5 31 285t68.5 236.5t103.5 143t135.5 9v-7q2 0 3 -1t4 -1q27 -12 23.5 -37.5t-21 -66.5t-42 -97.5t-41 -130t-18.5 -164.5t29 -202q86 41 183 49t186.5 -15.5t158 -78.5t92.5 -137q16 -51 18.5 -108.5t-7.5 -110.5q-16 -84 -77 -154t-142.5 -116 t-177 -64.5t-182.5 -2t-158.5 73t-106.5 158.5q-37 109 -52.5 251t-10 288.5zM406.5 431q-9.5 -50 5 -104.5t61.5 -103.5q49 -53 104.5 -48t103.5 33t80 62.5t36 40.5q27 49 23.5 88t-27 74t-62.5 66.5t-84 64.5q-31 23 -68.5 16.5t-72.5 -32t-62.5 -66.5t-37 -91z" />
<glyph unicode="7" horiz-adv-x="1044" d="M61 874.5q2 51.5 68 124.5q176 -6 303 -9t216 -5t145.5 -3t92.5 -3t55.5 -6t33.5 -8l14 -72l-78 -211l-278 -348q-68 -92 -139.5 -189.5t-130 -202t-96.5 -220t-38 -244.5q-12 -35 -37.5 -50.5t-51 -12.5t-47 23.5t-25.5 57.5q6 51 9 100.5t17 96.5q63 199 144 387 t198 379q43 72 87 147.5t104 134.5q-47 -10 -121 -15t-150.5 -1t-146.5 19.5t-110 47t-38 83z" />
<glyph unicode="8" horiz-adv-x="1001" d="M49 406q6 66 34 123t71 107t98 92t115 79q-41 2 -77 32.5t-65.5 76t-50 101.5t-29 111.5t-4 105.5t24.5 83q59 109 140 161t168 60t172 -21.5t153.5 -85t112.5 -131t47.5 -158.5t-42 -168t-153.5 -159l164 -283q18 -27 30.5 -72.5t14.5 -100t-13.5 -114t-52.5 -112.5 q-43 -63 -126 -100t-182 -47.5t-201.5 10t-183.5 72t-128 135.5t-37 203zM309 454q-6 -48 5.5 -93.5t39 -84t72.5 -61.5q43 -18 90 -18t88 18t75 56t52 96q4 16 5 29.5t5 29.5q-6 37 -25.5 81t-50 79t-73.5 54t-94 7q-57 -8 -97.5 -36.5t-63 -68.5t-28.5 -88zM334 1198 q0 -41 18.5 -83t49 -79t70.5 -63.5t81 -32.5q57 8 98 46t61.5 88t16.5 103.5t-35.5 93.5t-96.5 57.5t-165 -5.5q-51 -18 -74.5 -51t-23.5 -74z" />
<glyph unicode="9" horiz-adv-x="1011" d="M74 713q0 106 64.5 184t161.5 119t206.5 42t200.5 -44q111 -53 171 -153.5t80.5 -227.5t2 -269.5t-66.5 -280.5t-122 -262t-167 -214t-201.5 -134t-225.5 -24q-25 4 -38 15.5t-17 25.5q-6 23 14.5 49.5t73.5 61.5q127 61 207 118.5t131 127t84 160.5t67 218 q-137 -49 -248.5 -36.5t-192.5 65.5t-128 139t-53 185q-2 35 -3 67.5t-1 67.5zM293 727q-20 -94 1 -166t71.5 -106.5t121 -25.5t148.5 79l45 88q-12 35 -30.5 74t-53.5 68.5t-88 43t-135 -1.5z" />
<glyph unicode=":" horiz-adv-x="448" d="M85 107.5q-5 27.5 3 59.5t26.5 56.5t46 35.5t60.5 1l94 -12q18 -29 18.5 -56.5t-11.5 -50.5l-2.5 -5l-2.5 -5q-2 -8 -2 -14t-4 -13q18 -31 16.5 -61.5t-19 -51t-45 -25.5t-58.5 18q-33 23 -37 59q-37 -2 -57.5 17.5t-25.5 47zM100 855q-2 40 18.5 67.5t71.5 21.5 q74 53 116 47t58.5 -46t9.5 -97t-31 -104.5t-59.5 -69t-78.5 11.5q-8 4 -13.5 9t-9.5 10q-4 4 -9 6t-9 6q-25 18 -43.5 58t-20.5 80z" />
<glyph unicode=";" horiz-adv-x="475" d="M71 -149.5q1 26.5 14 45t36.5 27.5t52.5 1q12 4 14 4q4 2 9.5 8.5t3.5 2.5q-4 -8 -15 -19l2 -2q20 20 27.5 41t5.5 43.5t-9 46t-15 51.5q-25 8 -37.5 24.5t-16.5 37.5q-25 27 -22.5 57.5t24.5 50.5q-6 16 -4 32.5t16.5 30t43 24t78.5 16.5q55 2 86.5 -28t35.5 -116 q-20 -86 -48.5 -186t-86.5 -193q-14 -20 -30 -34q-4 -4 -16.5 -12.5t-6.5 -4.5q23 10 19.5 8t-13.5 -16q-14 -20 -30.5 -24.5t-34 1t-34 15.5t-30.5 16h-2q4 -4 3 -4t-3 4q-18 25 -17 51.5zM100 855q-2 40 18.5 67.5t71.5 21.5q74 53 116 47t58.5 -46t9.5 -97t-31 -104.5 t-59.5 -69t-78.5 11.5q-8 4 -13.5 9t-9.5 10q-4 4 -9 6t-9 6q-25 18 -43.5 58t-20.5 80z" />
<glyph unicode="&#x3c;" horiz-adv-x="940" d="M84 688q92 45 168 93t147.5 101.5t144 116t158.5 136.5q35 12 64 3.5t44 -28.5t14 -50t-25 -59q-147 -59 -270 -145t-244 -184l2 -2q2 2 -1 -2t-7.5 -10.5t-7.5 -11.5t-1 -5q57 -51 119 -85t129.5 -67.5t145 -75.5t170.5 -112q25 -35 19.5 -66.5t-27 -50t-54.5 -18.5 t-63 31q-106 86 -200.5 147.5t-174.5 114.5t-143.5 106t-106.5 123z" />
<glyph unicode="=" d="M217 888.5q0 24.5 25.5 47t70.5 29.5q137 -10 265.5 -11.5t263.5 -17.5q18 -2 48 0t63.5 5t64.5 3t51 -8q27 -10 37 -28.5t-1 -36t-45 -30t-91 -12.5q-86 -2 -161 -1t-147.5 2t-147.5 1t-161 -4q-72 -2 -103.5 17.5t-31.5 44zM245 548.5q-9 18.5 2 36t44 30t92 12.5 q86 2 160.5 1t147.5 -2t147.5 -1t160.5 4q72 2 104 -17.5t32 -44t-26 -47t-71 -28.5q-137 10 -265 11t-263 17q-18 2 -48 0t-63.5 -5t-64.5 -3t-51 8q-29 10 -38 28.5z" />
<glyph unicode="&#x3e;" horiz-adv-x="940" d="M88.5 234.5q5.5 -31.5 27 -50t54.5 -18.5t63 31q106 86 200.5 147.5t174.5 114.5t143.5 106t106.5 123q-92 45 -168 93t-147.5 101.5t-144 116t-158.5 136.5q-35 12 -64 3.5t-44 -28.5t-14 -50t25 -59q147 -59 270 -145t244 -184l-2 -2q-2 2 1 -2t7.5 -10.5t7.5 -11.5 t1 -5q-57 -51 -119 -85t-129.5 -67.5t-145 -75.5t-170.5 -112q-25 -35 -19.5 -66.5z" />
<glyph unicode="?" horiz-adv-x="946" d="M48 1114q3 27 14.5 54.5t25.5 48.5q39 59 75 100t81 65.5t103.5 34.5t139.5 10q180 0 273.5 -93t99.5 -263q2 -66 -19.5 -120t-58.5 -99t-83 -81t-93 -66.5t-89 -57t-68 -51.5q6 -98 6 -160.5t-4.5 -100.5t-9.5 -60.5t-7 -43.5q-23 -6 -49 -9t-55 -5q-57 6 -71.5 34 t1.5 89q4 43 8 103.5t11.5 120t18.5 109.5t30 70q43 33 87 57.5t87 51.5t79.5 61.5t63.5 90.5q8 33 8 65.5t-11 61t-36.5 50t-64.5 31.5l-25 7h-10q-39 -2 -74 -10.5t-70 -24.5q-4 -4 -8 -7t-8 -8q-6 -4 -8 -8l-80 -76q-10 -12 -27.5 -26.5t-39 -25.5t-48 -14t-57.5 9 q-25 12 -33 35.5t-5 50.5zM215 45q0 14 3 32.5t18.5 37t46 31t86.5 14.5q41 -8 66.5 -31t25.5 -57q0 -16 -3 -35t-15.5 -35t-39 -29.5t-71.5 -17.5q-66 -4 -91.5 23.5t-25.5 66.5zM343 1171.5q-3 -2.5 1 -0.5q2 2 3 2.5t3 2.5q-4 -2 -7 -4.5z" />
<glyph unicode="@" horiz-adv-x="1343" d="M79 627q7 104 36 188q16 43 30.5 85t30.5 83t45 75t55 68q8 10 19.5 19.5t23.5 19.5t25.5 21.5t28.5 21.5q100 80 206.5 101.5t207 -1t188.5 -85t153.5 -150.5t102.5 -195.5t35 -221t-50.5 -228.5t-152.5 -215q-23 -29 -61.5 -44t-75.5 -5q-41 10 -70 30.5t-51 49.5 q-20 -35 -50 -64.5t-67 -44.5q-25 -10 -52.5 -4t-53.5 8q-33 2 -66 22.5t-51 47.5q-16 25 -33.5 47.5t-25.5 50.5q-18 66 -29.5 150t-2.5 167t44 153.5t106 111.5q27 14 54.5 21.5t56.5 17.5q33 0 55 -13q25 8 58 0q10 -8 18 -14l16 -12q4 2 9.5 4t11.5 2q14 20 35.5 29.5 t43 5.5t40 -20.5t26.5 -47.5q0 -55 -5 -110.5t-8 -109.5t-1 -108.5t14 -109.5l53 -125q47 45 75 108.5t40 130t12 127t-8 101.5q-16 98 -49 156.5t-66.5 93.5t-61.5 52t-36 32q-29 23 -58.5 41t-72.5 29.5t-106.5 10.5t-161.5 -20q-41 -23 -73 -37t-58 -30q-31 -35 -51 -66 q-66 -104 -101 -245.5t-35 -288.5q6 -66 18.5 -131.5t35.5 -124.5q47 -123 119.5 -201t195.5 -117q39 -12 76 -5t69.5 24.5t62.5 40l54 40.5q31 23 54.5 30t58.5 16q35 2 57.5 -13.5t32.5 -38.5q12 -88 -22.5 -149.5t-100 -97t-149.5 -47t-168 1t-160 46t-123 91.5 q-100 123 -152.5 254t-60.5 297q-16 113 -9 217zM478 483q-3 -88 24.5 -163.5t91.5 -98.5q33 -12 58.5 0t43 36t27.5 53t16 52q0 6 4 15q-14 57 -18 117q-4 51 -1 103t7 103q-23 43 -57 68q-18 -2 -37 -4t-37 -10q-55 -27 -87 -105t-35 -166z" />
<glyph unicode="A" horiz-adv-x="1394" d="M25 106q137 131 225 287t154.5 324t124 341t130.5 339q0 6 2.5 11t4.5 13l2 -2q10 11 24 17q8 3 16 4q5 0 10 -2q11 -4 19 -15.5t6 -29.5q0 -2 -2 -2q20 -16 35 -54q23 -166 71 -334.5t118.5 -330.5t162 -311.5t199.5 -276.5q35 -24 41 -56q2 -9 2 -19q0 -21 -10 -39 q-14 -26 -45 -36q-11 -4 -23 -3q-22 0 -47 12q-37 27 -78 56.5t-89 76.5t-103 118.5t-121 186.5q-26 41 -56 55q-26 12 -58 13q-6 -1 -12 -1q-40 -2 -92 -15t-120 -27q-47 -45 -81 -107.5t-65.5 -124t-67.5 -115t-91 -79.5q-27 -34 -63 -34q-8 0 -16 2q-46 9 -60 56 q-28 10 -42 37q-9 17 -8 38q0 12 3 27zM543 563q47 4 107.5 11.5t117.5 29.5q-20 43 -30.5 88t-16.5 94.5t-11.5 102.5t-17.5 112q-20 -68 -34.5 -125t-31 -110t-36 -103.5t-47.5 -99.5z" />
<glyph unicode="B" horiz-adv-x="991" d="M47 1425q35 16 95 27q62 12 136 14q21 1 43 0q55 0 112 -3q81 -5 155 -21.5t135 -45t98 -69.5q63 -75 87 -151q18 -56 18 -111q0 -19 -2 -38q-8 -73 -45 -140.5t-93 -128.5q51 -49 98.5 -91t77.5 -95q32 -54 44 -126q5 -29 5 -64q0 -53 -12 -122q-12 -74 -65 -121 t-131 -77.5t-170 -49t-178 -33t-159 -28.5t-112 -37q-11 -2 -21 -2q-21 0 -39 9q-26 13 -37 34.5t-8 48.5t25 49q10 35 26.5 56.5t21.5 56.5q6 28 7 62v25q0 27 -1 65q-2 56 -10.5 140.5t-21.5 215.5t-32.5 314t-46.5 437zM289 1255q8 -59 15 -110t14.5 -101.5t15.5 -102.5 t18 -114q37 8 94.5 26.5t108.5 50.5t81 79q18 28 18 62q0 24 -9 51q-23 70 -59 106q-35 36 -81 52q-38 13 -81 13q-10 -1 -20 -1q-56 -4 -115 -11zM360 627q10 -55 18.5 -105.5t13.5 -103.5q4 -44 4 -94v-20q-1 -60 -7 -136q51 14 122 30.5t133 49.5t98 86q24 35 24 87 q0 25 -6 54q-14 63 -53 103t-93 58q-49 17 -106 17h-12q-64 -2 -127 -18q6 0 4 -2z" />
<glyph unicode="C" horiz-adv-x="1167" d="M45 759q12 165 90 309t202 240q125 94 285 126q55 11 111 12q110 0 230 -41q45 -16 77 -53t42 -80q4 -18 4 -36q0 -25 -8 -50q-14 -43 -62 -70q-16 -3 -30 -3q-38 -1 -64 23q-30 28 -30 64q0 6 1 12q-4 2 -10 4.5t-11 6.5q-47 33 -103 40q-21 3 -43 3q-36 0 -72 -8 q-58 -12 -111.5 -38t-91.5 -57q-63 -49 -105 -123q-42 -73 -62 -159q-17 -75 -17 -153v-24q3 -92 30 -173.5t75 -148.5t120.5 -103.5t168 -36.5t213.5 49q12 10 25.5 17t26.5 11q18 33 46.5 43.5t57.5 4t53.5 -25.5t34.5 -46q6 -22 6 -40q0 -11 -2 -21q-6 -26 -22 -56 q-37 -76 -93.5 -122t-126.5 -68q-66 -21 -139 -20h-7q-77 1 -153.5 18.5t-147.5 49.5t-128 73q-152 145 -212 315q-50 142 -50 280q0 27 2 55z" />
<glyph unicode="D" horiz-adv-x="1157" d="M57 1227q-1 21 -1 40q0 63 14 105q19 53 80 53h4q65 9 129 9q72 0 143 -11q135 -20 255 -78.5t218 -154.5t160 -229q29 -63 42 -143q11 -65 11 -132q0 -16 -1 -31q-3 -84 -22.5 -168t-54.5 -157q-33 -70 -86 -122t-117.5 -91t-135 -69t-136.5 -52q-88 -29 -165 -29 q-36 0 -70 6q-10 -4 -27 -8q-2 0 -4 -2t-6 -4q-63 6 -90 47l-37 21q-72 53 -88 129q-7 30 -7 63q0 48 15 98q41 96 45 217q1 28 1 55q0 94 -10 189q-14 123 -33.5 241t-25.5 208zM279 1214q2 -113 17 -233.5t27.5 -247.5t13.5 -259v-9q0 -127 -26 -258q62 -15 118 -15 q53 0 99 14q96 28 165 93.5t109 158.5q40 92 45 194q1 15 1 30q0 87 -26 172q-30 100 -99.5 180t-179 130t-264.5 50z" />
<glyph unicode="E" horiz-adv-x="1089" d="M56 857q18 364 65 567l813 24q47 -4 73.5 -41t31.5 -79q1 -10 1 -20q0 -30 -12 -56q-16 -34 -53 -33q-82 -9 -159 -11q-26 0 -52 -1q-52 0 -104 2q-80 3 -165 7.5t-184 8.5q8 -16 6 -62.5t-6 -104.5q-4 -60 -8 -122q-2 -31 -2 -59.5t2 -53.5q68 -4 125 -4q58 0 110 1h52 h52q52 -1 114 -7q46 -8 62 -42q12 -26 12 -52q0 -9 -2 -19q-6 -36 -28 -64t-55 -22q-47 -7 -105 -7h-14q-66 1 -132 3q-44 1 -83 1h-39q-56 -1 -83 -11q-8 -78 -10.5 -165t-12.5 -185q0 -6 -4 -19q4 0 6 -2q86 -8 155 -11t133.5 -3t128 3t138.5 9q48 4 81 4q29 0 46 -3 q37 -7 48.5 -27.5t12.5 -55t19 -82.5q0 -43 -41 -51q-63 -12 -136 -13t-136 -3q-70 0 -154 2t-171 4q-86 2 -170 4q-42 1 -80.5 1t-73.5 -1q-18 304 -18 560q-1 154 6 291z" />
<glyph unicode="F" horiz-adv-x="1054" d="M42 152q3 100 13.5 275t20.5 422t10 564q66 17 159 19q23 0 48 1q75 1 161 -3q116 -4 251 -10.5t282 -6.5q29 1 37 -21q6 -17 6 -39v-11q-2 -28 -8 -58.5t-4 -46.5q-166 -23 -338 -27t-369 -6q-16 -94 -23 -183q-4 -57 -4 -118q0 -35 1 -72q68 -4 121 -9t103 -7 q25 -1 51 -1t52 1q54 2 121 12q69 -67 85 -111q8 -21 8 -38q0 -18 -10 -32q-18 -26 -62 -37t-102 -13q-23 -1 -47 -1q-37 0 -75 2q-64 3 -116 7t-87.5 4t-37.5 -8q-10 -76 -11.5 -151.5t-2.5 -152.5t-9 -153.5t-28 -152.5q-10 0 -17.5 -1t-17.5 -1q-25 2 -52.5 2t-50 3 t-36 10.5t-9.5 23.5q-13 21 -13 95v30z" />
<glyph unicode="G" horiz-adv-x="1224" d="M64 516q-12 72 -12 144q0 78 14 156q26 151 100 285t189.5 223t268.5 116q47 9 97 9q113 0 242 -44q45 -16 76.5 -53t42.5 -80q4 -18 4 -36q0 -25 -8 -50q-15 -43 -62 -70q-16 -3 -30 -3q-38 0 -64 23q-30 28 -30 64q0 6 1 12l-9 4.5t-12 6.5q-100 66 -186 69q-7 1 -14 1 q-78 0 -140 -37q-69 -39 -119.5 -115t-79 -170t-36.5 -199q-3 -34 -3 -67q0 -68 12 -133q16 -95 59 -172.5t112.5 -122t167.5 -45.5h3q97 0 226 59q49 78 58 127q2 15 2 28q0 30 -14 50q-19 30 -58 44.5t-85 20.5t-91 7t-74 5q-12 27 -11 56.5t12.5 56.5t28.5 47.5t40 28.5 q20 6 61 5t89.5 -6t96.5 -13.5t83 -14.5q53 -10 79.5 -18t38 -24.5t12.5 -47.5t3 -84q2 -33 2 -67q0 -64 -7 -132q-12 -104 -52.5 -190t-120.5 -141.5t-213 -55.5q-213 0 -356.5 76t-226.5 196t-107 271z" />
<glyph unicode="H" horiz-adv-x="1275" d="M82 386q0 134 5 287.5t13.5 297t22.5 264.5t33 190q29 6 56.5 15.5t55 12.5t55 -5t54.5 -37q35 -37 36 -97v-11q1 -57 -9 -121q-10 -70 -20 -144q-4 -32 -4 -61q0 -41 7 -80q14 2 26.5 3t30.5 1q58 4 116 4t114 -4q114 -8 235 -22q19 73 21 145q1 33 1 65q0 39 -2 75 q-3 68 -6 130q-1 14 -1 28q0 45 8 83q4 20 32.5 38.5t65.5 26.5q23 5 47 4q14 0 28 -2q38 -4 62 -24q42 -232 42 -430q0 -25 -1 -50q-6 -218 -24.5 -390t-24.5 -296q-1 -14 -1 -27q0 -105 42 -173q12 -29 -15.5 -49.5t-71.5 -31.5t-91 -11t-70 12q-16 6 -29.5 19.5t-20.5 30 t-6 33.5t17 34q4 82 4 154.5t-3 141t-8 135t-9 136.5q-121 4 -262 9q-47 2 -93 2q-92 0 -178 -7q0 -49 3.5 -121.5t5.5 -162.5q1 -30 1 -60q0 -62 -3 -128q-4 -99 -17 -202q-71 -23 -121 -23q-5 1 -10 1q-53 2 -123 16q-8 41 -12 141.5t-4 234.5z" />
<glyph unicode="I" horiz-adv-x="413" d="M78 1096.5q0 183.5 24 341.5q14 20 52.5 29.5t79 9.5t74.5 -5.5t40 -9.5q-14 -131 -14 -284v-39q2 -175 5 -365q2 -95 1 -190q0 -94 -1 -190q-3 -190 -26 -365q-2 -18 -28.5 -36t-56.5 -26q-16 -4 -32 -4q-13 0 -26 3q-27 7 -29 40q-6 158 -22.5 342t-28.5 374.5t-12 374 z" />
<glyph unicode="J" horiz-adv-x="851" d="M53 201q-2 12 -2 26q0 18 3 39q5 37 18.5 71t36 57.5t55.5 21.5q43 -6 61.5 -15.5t24.5 -24t4 -37t-2 -52.5q0 -63 39 -96t91 -37q7 -1 14 -1q45 0 90 23q51 25 75 78q41 94 51 204q7 73 7 148q0 39 -1 79q-6 116 -19 232.5t-17 225.5q0 23 -32 30t-78 10t-99.5 4 t-98.5 9t-74.5 28.5t-29.5 59.5q12 57 44 76q28 17 63 17h11q42 -3 91 -16t97 -23q28 -5 54 -5q20 0 39 3q45 7 78 46q10 37 35 54q22 14 45 14h5q26 -2 48.5 -21.5t28.5 -56.5q-27 -51 -34 -128q-5 -60 -5 -129v-41q2 -93 9 -197.5t11 -210.5q3 -59 3 -117q0 -45 -1 -89 q-4 -100 -22 -185t-58 -150.5t-108 -99.5q-51 -29 -127 -41q-49 -7 -97 -7q-28 0 -56 3q-76 6 -140.5 31.5t-91.5 70.5q-18 29 -26.5 59.5t-12.5 59.5z" />
<glyph unicode="K" horiz-adv-x="1126" d="M61 39q10 16 18.5 32.5t22.5 70.5q15 54 22 136q5 64 5 176v68q-2 162 -4 284t-27 597q8 45 38 65q20 13 41 12q11 0 22 -3q16 8 32 8q15 1 31 -7q32 -16 49 -61q4 -6 5 -51t6 -265q2 -86 3 -150q1 -98 -5 -141q-8 -71 -13 -142q0 -10 1 -19.5t3 -19.5q51 45 97.5 111.5 t78 101.5t97 108.5t120 140t99.5 118t65.5 68.5t40 22.5t45 1t70.5 -8.5h10q18 -4 27.5 -15t11.5 -25q1 -4 1 -8q0 -10 -5 -20q-6 -14 -20 -22q-12 -12 -42 -38.5t-64 -55.5t-99 -88q-43 -41 -81 -87t-124 -151q0 -25 -22.5 -52.5t-45.5 -43.5q14 -33 59.5 -84t108 -116.5 t134 -142.5t184.5 -208q17 -67 17 -104q0 -19 -4 -31q-12 -35 -44 -48q-12 -5 -26 -5q-21 0 -46 12q-41 33 -71.5 72t-59 81t-55.5 84t-72 100t-110.5 127t-124.5 142q-29 -35 -60.5 -66.5t-64.5 -49.5q-25 -12 -25 -92q0 -14 1 -29q5 -106 41 -208q22 -61 22 -93 q0 -21 -10 -29q-21 -16 -117 -18q-15 0 -28 -1q-74 -1 -110 11q-42 14 -49 49z" />
<glyph unicode="L" horiz-adv-x="987" d="M66 90q-1 5 0 11q0 45 40 98q8 112 8 257v18q0 156 -5 324.5t-12 333t-11 300.5q48 23 89 23q11 1 21 -1q48 -8 82.5 -41t54 -82t23.5 -102q10 -134 10 -253v-12q0 -124 -9 -246t-21 -248t-25 -267q46 -6 99 -7q32 0 66 3q91 6 176 17q85 10 156 18q29 3 51 3q33 0 54 -6 q33 -12 47 -48q12 -30 13 -61q0 -6 -1 -12q-3 -38 -23.5 -70t-57.5 -38q-66 2 -140 2q-56 0 -116 -1q-33 -1 -65 -1q-107 0 -208 8q-71 -30 -131 -30h-13q-66 4 -106 32.5t-46 77.5z" />
<glyph unicode="M" horiz-adv-x="1173" d="M67 402q5 164 11 324q6 162 7 320v16q0 150 -17 302q0 39 26.5 59.5t64.5 26.5q19 3 39 3q18 0 38 -3q40 -6 65 -23q16 -20 29 -49q0 -4 2 -12q12 -61 44 -119.5t75 -113t89 -106.5t87 -101q18 18 28.5 36.5t30.5 41.5q43 51 88 115.5t81 124.5q35 61 55 110q14 35 14 56 q0 9 -2 15q4 10 11 17.5t17 17.5q6 4 8.5 7t2.5 4.5t2 2.5t10 1q23 0 50.5 -6.5t52 -18.5t43 -30.5t20.5 -43.5q-7 -139 -9 -264q-1 -47 -1 -93q-1 -77 1 -151q2 -120 5.5 -243t3.5 -258q0 -63 1 -131v-33q0 -49 -2 -91q-3 -56 -11.5 -90t-24.5 -34q-35 0 -71 2t-65.5 13 t-49 35.5t-19.5 72.5q0 100 7 200.5t14.5 196.5t10.5 185q1 24 1 48q0 63 -6 121q-4 23 -5 44.5t-6 43.5q-20 -43 -56 -82t-75 -78.5t-73 -80.5t-50 -86q-37 -45 -43 -45t-11 14t-27 31q-16 14 -43 55t-58 91t-62.5 103.5t-57 92.5t-41 56t-13.5 -3q8 -39 11 -55.5t4 -33 t-1 -44t-5 -88t-7 -166t-8 -275.5q-3 -64 -3 -116q0 -26 1 -48q0 -17 1 -33q0 -47 -5 -80q-6 -44 -26.5 -66.5t-69.5 -26.5h-8q-46 0 -74 22q-31 24 -39 60q-8 120 -8 237q0 49 1 97z" />
<glyph unicode="N" horiz-adv-x="1105" d="M74 23q31 156 39 319.5t8 328.5t-2 329v54q0 136 8 269q2 59 26.5 88t58.5 36q17 4 34.5 3.5t35.5 -3.5q36 -7 62 -20q29 -2 41 -18t23 -31q53 -125 96 -226t82 -191.5t77.5 -177.5t84.5 -181q8 -20 17 -39.5t17 -38.5q14 70 14 157v44q-4 113 -13 227.5t-9 223t27 188.5 q17 55 71 82q33 17 87 17q34 0 77 -7q1 -5 1 -15q0 -25 -4 -79q-5 -76 -13 -187.5t-14.5 -249t-8.5 -276.5q0 -33 -1 -65q0 -105 6 -204q6 -130 24 -230q2 -11 2 -22q0 -24 -9 -48q-13 -35 -39 -58.5t-62 -31.5q-10 -2 -20 -2q-26 0 -52 14q-12 8 -41 63.5t-67 139.5 t-83 189.5t-89 214t-86 211t-74.5 181t-53 126t-22.5 44.5q0 -141 6 -255.5t11 -225t6 -227.5v-26q0 -107 -7 -236q-4 -74 -20 -131q-16 -58 -48 -86q-26 -23 -64 -22q-8 0 -18 1q-50 6 -122 60z" />
<glyph unicode="O" horiz-adv-x="1089" d="M37 713q8 162 24.5 277.5t42 195.5t61.5 130t84 78.5t109.5 42t137.5 19.5q156 0 265 -85t176 -217t93 -294q17 -109 16 -215q0 -51 -4 -103q-12 -156 -59 -287.5t-127 -203.5q-39 -37 -101.5 -55.5t-130.5 -23.5q-30 -2 -60 -2q-38 0 -76 4q-66 6 -113 18 q-94 27 -154.5 73t-96.5 105t-53.5 128t-23.5 140.5t-6 142.5t-4 132zM240 704q8 -106 33.5 -207.5t63.5 -179t86 -122.5q42 -40 87 -40q6 0 12 1q49 6 86 34.5t63.5 68.5t45 86t33.5 87q12 38 18 112q5 64 5 140v26q-1 92 -12 190.5t-33.5 178.5t-57.5 132.5t-86 54.5h-8 q-98 0 -166 -45q-70 -47 -110 -127t-54 -182q-9 -65 -8 -132q-1 -38 2 -76z" />
<glyph unicode="P" horiz-adv-x="960" d="M55 23q10 90 14.5 220t7.5 274.5t4 289.5t3 263t5 198t9 92l-2 -2q24 56 90 72q45 11 98 11q26 0 54 -3q86 -8 180 -37t172 -62q49 -20 93 -47.5t77 -64.5q34 -37 50 -86q13 -39 13 -89q0 -12 -1 -24q-6 -78 -45 -149.5t-105 -114.5q-35 -20 -101.5 -42t-138 -41 t-135 -38.5t-94.5 -34.5q-6 -53 -6 -119.5t2 -145.5q1 -32 1 -64q0 -49 -2 -101q-3 -86 -15 -178q-25 -8 -47 -13q-15 -4 -32 -4q-6 0 -14 1q-26 2 -58 10.5t-77 28.5zM281 1241q14 -102 15 -205.5t7 -212.5q72 12 138.5 20.5t116.5 29t80 62.5q28 39 28 114v10 q-2 66 -52.5 103.5t-115 56t-127.5 21.5q-38 2 -63 2q-16 0 -27 -1z" />
<glyph unicode="Q" horiz-adv-x="1050" d="M26 732q7 138 43.5 270.5t103.5 234.5t166 165.5t234 63.5q23 0 66 -1t93 -21.5t101.5 -67.5t92.5 -141t66 -243q22 -137 22 -336v-33q1 -23 1 -45q0 -101 -30 -190q-37 -109 -100.5 -194t-142 -139.5t-156.5 -70.5q29 -16 61.5 -46t76.5 -48q29 -11 64 -11q19 0 38 3 q59 9 139 71q47 -20 56 -51q3 -11 3 -22q0 -21 -10 -43q-17 -34 -51.5 -66.5t-76.5 -59t-83 -44t-70 -19.5h-7q-27 0 -52 14q-29 16 -54.5 41t-49 52.5t-44.5 49.5q-2 0 -5 2.5t-5 2.5h-1q-15 0 -64 -43l-99 -99q-38 -22 -63 -22q-8 0 -15 2q-26 10 -36 40q-6 21 -6 48 q0 13 2 27q4 44 16 84t26.5 68t26.5 26q16 2 31.5 15t32.5 30q-88 4 -155 69.5t-111 170t-63 236.5q-15 95 -15 194q0 38 3 76zM288 569q3 -82 21 -137q12 -33 34 -81t51.5 -89t67.5 -68q28 -19 58 -19q11 0 23 3q59 12 103 59.5t76 113t51.5 142t30.5 148.5t15 132.5 t4 92.5q-2 102 -13 187.5t-48 142.5t-106 82q-38 14 -92 14q-40 0 -89 -8q-35 -6 -58.5 -32.5t-39 -62.5t-24.5 -73t-15 -63q-12 -55 -25.5 -139.5t-20.5 -173.5q-5 -62 -5 -121q0 -25 1 -50z" />
<glyph unicode="R" horiz-adv-x="1044" d="M55 23q10 90 14.5 220t7.5 274.5t4 289.5t3 263t5 198t9 92l-2 -2q24 56 90 72q45 11 98 11q26 0 54 -3q86 -8 180 -37t172 -62q49 -20 93 -47.5t77 -64.5q34 -37 50 -86q13 -39 13 -89q0 -12 -1 -24q-6 -78 -45 -149.5t-105 -114.5q-23 -12 -44 -23.5t-46 -21.5 t-55.5 -20.5t-73.5 -22.5l168 -359q35 -66 57.5 -104.5t34.5 -61t18.5 -35t10.5 -20.5q12 -33 7 -58.5t-21 -41.5t-42 -22q-8 -2 -18 -1q-18 0 -37 7l-407 610l-15 14q-2 2 -3 2t-3 2l-19 -608q-25 -8 -47 -13t-47.5 -3t-57.5 10t-77 29zM281 1241q14 -102 15 -205.5 t7 -212.5q72 12 138.5 20.5t116.5 29t80 62.5q28 39 28 114v10q-2 66 -52.5 103.5t-115 56t-127.5 21.5q-38 2 -63 2q-16 0 -27 -1z" />
<glyph unicode="S" horiz-adv-x="956" d="M44 475v15q0 68 24 114q16 20 43.5 31.5t56.5 10.5t52.5 -15.5t31.5 -46.5q0 -2 2 -7.5t4 -26t6 -62.5t10 -115q2 -12 22.5 -47t56.5 -62q37 -28 89 -34l14 -2q47 0 105 38q20 14 43 38t33 46q18 39 18 72q-10 63 -26.5 105t-42 76t-60 63.5t-82.5 68.5q-10 8 -29.5 22.5 t-52 39t-81 63.5t-117.5 96q-35 37 -53.5 66t-26.5 51.5t-10 39.5t-2 34q0 55 17 108.5t64.5 96.5t130.5 69.5t214 28.5q23 0 64.5 -4t88.5 -13.5t93.5 -26.5t79.5 -43q32 -25 42 -61q3 -11 4 -24q0 -27 -16 -59q-23 -45 -51.5 -54.5t-58 -1.5t-54 24.5t-39.5 22.5 q-33 14 -71.5 27.5t-79.5 21t-81 7.5t-75 -13q-60 -23 -68 -74q-1 -4 -1 -9q0 -48 71 -117l377 -314q78 -59 121 -131.5t54 -147.5q5 -32 5 -63q0 -43 -9 -85q-15 -72 -54 -133.5t-96.5 -107.5t-129.5 -67q-52 -18 -108 -18q-30 0 -62 6q-90 14 -167.5 59t-135 115 t-71.5 153q-23 78 -26 156z" />
<glyph unicode="T" horiz-adv-x="1126" d="M71 1366q3 27 15 45q19 37 78 43q80 -10 192 -16t226 -8q72 -2 138 -2h78q102 2 163 4q29 2 53 2t42.5 -7.5t30 -25t13.5 -49.5q11 -20 11 -39q1 -16 -7 -31q-16 -33 -70 -43q-90 13 -160 19q-52 4 -115 5q-23 0 -48 -1q0 -45 -1 -91.5t-4.5 -106.5t-6.5 -142t-4 -199 q0 -58 -0.5 -126.5t0.5 -146.5q1 -156 5 -366q-2 -39 -30.5 -63.5t-66.5 -32.5q-19 -4 -37 -4q-20 0 -38 4q-36 8 -51 32q0 125 -7 245q-2 31 -2 60q0 83 15 150v47.5t1 56t1 84t1 129t2 190.5t1 267q-21 -4 -58 -4q-25 0 -57 2q-80 4 -222 4q-31 2 -49.5 20.5t-26.5 42.5 q-6 18 -6 37q0 8 1 15z" />
<glyph unicode="U" horiz-adv-x="1028" d="M66 621l14 776q0 31 34 43q27 10 59 10q8 0 16 -1q42 -3 81 -20.5t52 -50.5q0 -136 -2 -250q-1 -43 0 -85q0 -71 2 -141q2 -112 9 -226.5t23 -249.5q6 -39 9.5 -74t14.5 -64.5t35.5 -50t71.5 -28.5q29 -6 61 -6q18 0 38 2q52 6 92 26q53 31 64.5 89.5t15.5 119.5t4 125 q0 56 -3 114q-7 124 -19 248q-11 125 -18 243q-3 49 -3 95q0 67 6 130q39 53 99 64q10 2 20 2q52 0 106 -50q12 -145 17 -269t7.5 -228.5t2.5 -189.5t2 -155q1 -15 0 -34q0 -37 -2 -89q-4 -78 -17 -157q-6 -43 -22 -87t-76 -106q-31 -35 -61.5 -50t-77.5 -26 q-72 -16 -153 -20q-27 -1 -53 -1q-52 0 -99 5q-84 10 -143.5 44t-100.5 112q-27 51 -46.5 113.5t-31.5 126t-19 121t-9 100.5z" />
<glyph unicode="V" horiz-adv-x="1249" d="M78 1432q26 16 56 22q22 4 43 4h13q26 -2 47 -11t29 -26q43 -84 72 -157.5t52.5 -144t44 -141.5t44 -150.5t56 -170t79.5 -200.5q0 -2 1 -2t1 -2l5 8l329 788l78 181q20 8 40 17q18 9 40 11h9q18 0 39 -6q26 -8 61 -31q-55 -115 -100.5 -235.5t-88.5 -244.5t-89 -250 t-101 -249q-8 -16 -23.5 -54t-38 -85t-50.5 -98t-56.5 -93t-57 -71t-55.5 -29q-18 0 -44 45t-56.5 119t-64.5 168t-66 193l-205 632q-19 63 -35 136q-10 48 -11 88q0 21 3 39z" />
<glyph unicode="W" horiz-adv-x="1570" d="M23 1405q-2 5 -2 9q0 12 12 22q16 14 43.5 21t61.5 9q14 1 27 1q19 0 37 -2q30 -3 53.5 -13t29.5 -25q49 -104 77.5 -234t53 -265t51.5 -267.5t74 -238.5q59 63 93 114.5t58.5 91.5t48 70.5t64.5 55.5q14 12 32.5 9t52.5 -46t89 -140.5t141 -275.5q0 12 16.5 28.5 t39 53.5t48 103.5t46 180t30.5 282.5q6 96 6 215q0 91 -3 196q6 37 39.5 55.5t72.5 19.5h4q37 -1 70 -17q35 -18 45 -54q-6 -61 -16.5 -175t-27.5 -251t-41 -285.5t-55.5 -279.5t-70.5 -231.5t-86 -139.5q-36 -21 -62 -21q-10 1 -18 3q-31 10 -51 26l-240 504l-288 -516 q-20 -14 -60.5 -12t-60.5 20q-131 338 -242 684t-192 715z" />
<glyph unicode="X" horiz-adv-x="1333" d="M59 1417q0 20 12.5 39t32.5 28q18 8 39 8h5q24 -1 49 -19q90 -68 150.5 -143t110.5 -148.5t101 -145t123 -133.5q10 25 32.5 70t51.5 98t61.5 111.5t63.5 111.5q29 47 46 91.5t48 56.5q25 8 58.5 5t61.5 -15.5t43 -33t1 -44.5q-68 -119 -120 -202t-95 -148.5t-78 -120 t-65 -115.5l485 -662q6 -23 6 -38t-10 -37q-20 -25 -50 -35t-62 -9t-61.5 13t-49.5 35l-2 4v2l-404 471q-23 -27 -68 -90.5t-98 -139t-107.5 -150.5t-93.5 -124q-32 -43 -61 -55q-12 -2 -23 -2q-22 0 -40 8q-26 12 -38 35.5t-6.5 51.5t33.5 52q86 127 146.5 216t100.5 149.5 t64.5 95.5t39 55.5t20.5 28.5t12 14q-61 106 -116.5 190.5t-102.5 153t-87 123t-68 101.5q-6 10 -21.5 36.5t-31 57.5t-27 58.5t-11.5 39.5z" />
<glyph unicode="Y" horiz-adv-x="1044" d="M18 1380q6 27 24.5 46.5t43.5 27.5q13 4 27 4q12 0 25 -3q26 -7 46 -34q68 -84 103 -146.5t62.5 -115.5t59 -101t95.5 -102q88 135 145.5 222.5t94 138.5t58 74.5t36.5 33.5q14 6 36.5 11.5t46 3.5t41 -17.5t19.5 -52.5v-6q0 -39 -25 -92q-26 -58 -68 -123.5t-91 -134 t-93.5 -132t-74 -116.5t-31.5 -88q-4 -48 -4 -97q0 -33 2 -66l8 -166t4 -167t-14 -166q-4 -20 -37 -30q-22 -7 -45 -7q-13 0 -26 1q-37 6 -68 28q-29 20 -29 59v5q10 125 15.5 279.5t21.5 344.5l-6 13q-31 53 -87.5 133t-115.5 162.5t-109.5 159.5t-68.5 124q-6 12 -15 41 q-7 20 -7 37q0 7 1 14z" />
<glyph unicode="Z" horiz-adv-x="1187" d="M82 96q55 162 138 309.5t180.5 285.5t203 268.5t205.5 257.5q-25 8 -73 17t-100 17.5t-102 10.5h-21q-35 0 -58 -5q-70 -16 -128 -42t-128 -44q-25 2 -57.5 14.5t-43.5 41.5q-8 20 -7 60t11 81q6 31 15.5 46.5t25 23.5t37 11t51.5 9q58 8 121 8q45 0 91 -4 q112 -10 223.5 -24.5t221.5 -19.5q18 -1 36 -1q90 0 170 21q23 -12 33 -27.5t6 -42.5q-160 -303 -348.5 -594t-405.5 -538l420 24q111 6 178 12q24 2 44 3q36 1 60 -7q37 -12 50.5 -48t17.5 -116l-4 -24q0 -29 -20.5 -55.5t-65.5 -30.5q-59 0 -116.5 5t-115 12t-115.5 11 q-40 3 -80 4q-18 0 -36 -1q-23 -2 -84 -10.5t-130 -15.5t-128 -12q-33 -3 -53 -3q-16 0 -25 2q-18 4 -35.5 11t-30.5 19q-14 12 -22 32q-6 16 -6 37v11z" />
<glyph unicode="[" horiz-adv-x="630" d="M86 1253q16 25 41 38.5t53 23.5q37 8 73 9t72.5 -1t73.5 -2t74 8q43 2 67.5 -20.5t27.5 -51t-15 -55t-61 -35.5q-53 -8 -107.5 1.5t-108.5 13.5q0 -129 -6 -257t-12 -266q-6 -158 -5 -330.5t23 -367.5v-8q0 -8 1.5 -14.5t1.5 -14.5q6 -4 11 -8t9 -8q20 2 50 4t58.5 -1 t53 -14.5t37.5 -35.5q0 -2 1 -2t1 -2q4 -8 4 -11q0 -43 -19.5 -64.5t-51.5 -28.5t-70.5 -4t-76.5 7t-74 4t-58 -12q-39 20 -48 49q-10 195 -3.5 381.5t11.5 366.5t2 356t-30 352z" />
<glyph unicode="\" horiz-adv-x="956" d="M230 1291q-11 -42 42 -120h2q68 -141 147.5 -275t159.5 -268t154.5 -271.5t132.5 -282.5q4 -16 4 -23q12 -35 37.5 -50t51.5 -12t47.5 23.5t25.5 57.5q-10 39 -24.5 67.5t-37.5 59.5q-47 88 -98 165.5t-102.5 155.5t-96.5 159t-80 175q-14 43 -40.5 114.5t-62.5 145.5 t-80 135.5t-95 81.5q-76 4 -87 -38z" />
<glyph unicode="]" horiz-adv-x="630" d="M75 1257.5q-3 -28.5 15 -55t61 -35.5q53 -8 107.5 1.5t108.5 13.5q0 -129 6 -257t12 -266q6 -158 5 -330.5t-23 -367.5v-8q0 -8 -1.5 -14.5t-1.5 -14.5q-6 -4 -11 -8t-9 -8q-20 2 -50 4t-58.5 -1t-53 -14.5t-37.5 -35.5q0 -2 -1 -2t-1 -2q-4 -8 -4 -11q0 -43 19.5 -64.5 t51.5 -28.5t70.5 -4t76.5 7t74 4t58 -12q39 20 48 49q10 195 3.5 381.5t-11.5 366.5t-2 356t30 352q-16 25 -41 38.5t-53 23.5q-37 8 -73 9t-72.5 -1t-73.5 -2t-74 8q-43 2 -67.5 -20.5t-27.5 -51z" />
<glyph unicode="^" horiz-adv-x="1275" d="M91 734.5q-3 29.5 15 62.5q37 -8 88.5 36t106.5 115.5t111.5 155.5t103.5 155.5t82 116.5t47 39q14 -6 33.5 -37.5t38 -68.5l35 -70t22.5 -43q35 -47 76 -106.5t87 -117t97 -104.5t107 -71q31 -23 40 -50.5t-1.5 -52t-36 -40t-62.5 -11.5q-68 39 -131 110.5t-121.5 156.5 t-108.5 174.5t-91 164.5q-6 -18 -12.5 -36.5t-12.5 -34.5q-29 -78 -68.5 -150t-99.5 -131q-23 -31 -41 -56.5t-37.5 -49t-44 -45t-59.5 -39.5q-16 -10 -16.5 -11.5t-14.5 -15.5q-33 -18 -62.5 -15t-48 21.5t-21.5 48z" />
<glyph unicode="_" horiz-adv-x="1316" d="M19 -381q1 29 24 52.5t66 25.5q176 -16 346 -28.5t348 -14.5q39 0 101.5 4t127 9t118.5 9.5t79 6.5q37 -10 53 -34t15 -50.5t-20.5 -49t-55.5 -28.5q-178 16 -350.5 29.5t-352.5 13.5q-41 0 -100.5 -4t-120.5 -8.5t-115.5 -9.5t-81.5 -7q-43 4 -62.5 29.5t-18.5 54.5z " />
<glyph unicode="`" horiz-adv-x="753" d="M195.5 1409q11.5 31 68.5 51q37 8 65.5 -1t52.5 -28.5t43 -44t36 -49.5q2 -4 20.5 -32.5t38 -62.5t35.5 -62.5t16 -32.5q-2 -29 -19 -41t-44 2q-25 8 -69 31.5t-90 56.5t-86 71t-59.5 74.5t-8 67.5z" />
<glyph unicode="a" horiz-adv-x="899" d="M61 274.5q0 34.5 11 63.5q8 23 15 37t22 31q20 25 36 43q4 4 9.5 9t3.5 1q10 16 27.5 39.5t31.5 33.5q39 31 96.5 36t104.5 14l31 4q125 12 167 40q31 21 31 45q0 8 -4 15q-14 31 -70.5 57.5t-128.5 34.5q-22 2 -44 2q-50 0 -99 -12q-72 -18 -117 -76q-35 -4 -60.5 10.5 t-34.5 39t-2 52t38 50.5q31 10 43 26.5t41 32.5q131 70 235 77q17 1 32 1q82 0 146 -30q76 -36 126 -105q48 -68 72 -152q23 -81 24 -164q0 -4 -1 -7q-1 -87 -28 -161q-10 -29 -9 -53t6 -54t11 -69t11 -92q8 -14 8 -26q6 -18 6 -39v-11q0 -2 -2 -2q-12 -31 -34 -46 q-20 -14 -42 -14h-3q-24 1 -45.5 16.5t-33.5 43.5q-4 14 -4 20.5v8.5q-14 16 -16 31q-8 6 -14.5 13t-12.5 15t-20.5 7.5t-18.5 9.5q-10 -4 -18.5 -9.5t-16.5 -9.5q-61 -39 -115.5 -68.5t-107.5 -37.5q-15 -2 -31 -2q-39 0 -77 14q-54 20 -115 80q-18 18 -31.5 49t-21 67 t-7.5 70.5zM240 219l57 -43q25 -6 53 -6q39 0 82 12q74 20 166 64q25 35 33 61.5t10 50t3 44t7 44.5q-63 10 -137 14q-11 1 -21 0q-63 0 -115 -18q-62 -20 -100 -72q-38 -50 -38 -142v-9zM692 29q2 -2 2 -4.5t2 -4.5q1 -2 1.5 -2t-0.5 2q-1 4 -5 9z" />
<glyph unicode="b" horiz-adv-x="915" d="M50 1263q1 130 11 222q0 4 3.5 8t7.5 8q18 23 32.5 22t42.5 7q4 0 7.5 -3t5.5 -1q8 4 12 11t12 7v2q6 -2 13.5 -3t13.5 -3q2 -2 2 -3t2 -3q31 -14 37 -49q12 -68 16 -141.5t4 -147.5t-1 -148v-48q0 -48 1 -93v-58.5t2 -60.5q29 43 81.5 85t105.5 53q50 10 90 10 q17 0 32 -2q50 -6 87 -27.5t65.5 -55.5t57.5 -77q53 -82 71 -176q10 -53 10 -106q0 -40 -6 -80q-14 -92 -56 -173t-106 -137q-65 -58 -149 -82q-44 -13 -92 -12q-43 0 -88 10q-29 6 -57.5 29t-51.5 41q-10 -51 -26 -76q-12 -20 -37 -30q-23 -10 -47 -10h-4q-26 1 -50 13.5 t-32 37.5q-16 45 -20 102q-2 31 -1 62q0 27 1 55q3 60 8.5 119t5.5 106q-4 106 -8.5 244.5t-6.5 280.5q-1 94 -1 183v88zM283 236q8 -6 18 -23q59 -57 115 -65q12 -2 24 -1q41 0 77 20q46 26 83 79t60.5 116.5t30.5 129.5q3 24 3 48q0 38 -8 74q-12 56 -45 91.5t-92 35.5 q-33 0 -63.5 -13t-58.5 -32.5t-50.5 -40t-38.5 -32.5q-20 -29 -53 -56q2 -56 2 -109t-2 -102q-2 -22 -1 -54v-22q0 -21 -1 -44z" />
<glyph unicode="c" horiz-adv-x="851" d="M26 508q3 88 19 164q25 135 91.5 209.5t149.5 106.5q80 31 164 31h5q86 -1 149 -15q33 -6 71 -24.5t69 -45.5q30 -26 48 -58q12 -22 12 -46q0 -11 -3 -23q-15 -32 -46 -32q-6 0 -14 1q-12 4 -19 8t-17 13q-2 4 -8.5 7t-10.5 7q-37 10 -72.5 25.5t-72.5 26.5t-74 13 q-5 0 -9 1l-65 -15q-80 -37 -120 -106.5t-52 -149.5q-6 -40 -6 -80t6 -78q12 -78 37 -133q33 -31 60.5 -53t60.5 -32q23 -7 51 -7q12 0 24 2q42 4 103 23q33 10 77 31.5t83 28.5q12 2 23 2q24 0 42 -10q24 -14 23 -70v-9q-33 -82 -109 -138q-74 -56 -166 -81 q-64 -18 -130 -18q-27 0 -55 4q-93 10 -157 61q-63 49 -100 125t-51 161q-12 70 -12 142q0 15 1 31z" />
<glyph unicode="d" horiz-adv-x="940" d="M42 412q-6 41 -6 83q0 51 9 103q16 94 72 176q29 43 57.5 77t65 55.5t86.5 27.5q15 2 33 2q40 0 90 -10q53 -10 105 -52.5t81 -85.5q2 31 2 61v58q1 68 1 140.5t-1 148.5v25q0 138 20 264q6 35 37 49q2 2 2 3t2 3q6 2 13.5 3t13.5 3v-2q8 0 12 -7t13 -11q2 -2 5 1t7 3 q29 -8 43 -7t33 -22q4 -4 7 -8t3 -8l-10 -1462q-8 -25 -32 -37.5t-50 -13.5h-5q-25 0 -47 10q-24 10 -36 30q-16 25 -27 76q-23 -18 -51.5 -40.5t-57.5 -29.5q-47 -11 -90 -11q-47 0 -91 13q-83 25 -147.5 81.5t-106.5 137.5t-55 173zM218 492q7 -66 30.5 -129.5 t60.5 -116.5t83 -79q36 -20 77 -20q13 -1 25 1q56 8 114 65q10 16 19 23q-1 23 -1 45v21q1 31 -1 54q-2 49 -2 101.5t2 109.5q-33 27 -54 56q-16 12 -38.5 32.5t-50 40t-58.5 32.5t-64 13q-59 0 -91.5 -35.5t-44.5 -91.5q-8 -36 -9 -75q0 -23 3 -47z" />
<glyph unicode="e" horiz-adv-x="976" d="M42 396q-10 48 -11 101q0 59 13 125q24 124 112 265q35 55 105.5 90t155.5 46q36 5 73 5q50 0 102 -9q90 -15 164.5 -57t122 -115t49.5 -177q0 -72 -2 -110t-24 -56q-20 -17 -70 -19q-25 -1 -60.5 -1t-81.5 1q-39 0 -92 2t-109.5 2h-109.5t-92 -2q-2 -16 -2 -32 q0 -29 7 -58q11 -45 37.5 -86t67.5 -73.5t97 -51.5q20 -8 50.5 -14t62.5 -8t58.5 2t41.5 14q18 12 38.5 20.5t32.5 20.5q4 4 4 9.5t2 11.5l2 -2q12 23 34 27.5t39.5 -1.5t25.5 -23.5t-2 -41.5q-41 -90 -113 -140.5t-158 -62.5q-31 -4 -62 -4q-56 0 -115 14q-91 22 -171 73.5 t-140 132t-82 182.5zM225 838l2 -2zM313 662h49q80 0 164 -4q67 -4 132 -5q40 0 79 2q-6 57 -25.5 91t-48 53.5t-62.5 29t-71 15.5q-57 -8 -88.5 -17.5t-52 -29t-36 -51t-40.5 -84.5z" />
<glyph unicode="f" horiz-adv-x="782" d="M92 -416q8 47 45 68v6q0 10 1 17.5t1 15.5q-2 47 -5 91t-3 89q-2 162 -2 322.5t4 322.5q2 49 5 97.5t3 95.5q0 117 40 190.5t102.5 111.5t137.5 40h10q70 0 133 -25q69 -27 122 -82t72 -133q-18 -23 -41 -24t-45 20q-57 37 -108 51q-44 12 -80 12h-10q-40 -2 -67.5 -19 t-37.5 -42q-31 -77 -31 -119q0 -45 22 -66q21 -20 55 -24t65.5 -7t54 -12.5t22.5 -41.5q0 -35 -35 -52q-33 -12 -58.5 -16t-47 -10t-42 -22.5t-44.5 -55.5v-10q-2 -117 -5 -231.5t-6 -231.5v-36q0 -69 5 -138q3 -32 3 -64q0 -55 -8 -110q0 -37 -39 -56q-38 -19 -80 -19h-4 q-44 1 -79 25q-27 18 -27 51q0 10 2 21zM131 -391v-4v-4q1 0 1 1q1 3 1 11q0 -2 -1 -2t-1 -2z" />
<glyph unicode="g" horiz-adv-x="940" d="M48 532q13 93 55 173.5t106.5 137t147.5 81.5q44 12 92 12q43 0 90 -10q29 -6 57.5 -29t50.5 -41q10 51 27 76q12 20 36 30q23 10 47 10h5q26 -1 50 -13.5t32 -36.5q16 -47 18 -104q1 -24 1 -47q0 -35 -2 -71q-3 -59 -7 -117.5t-4 -105.5q-16 -53 -16 -137t3 -180.5 t5 -198.5v-30q0 -85 -10 -161q-11 -89 -43.5 -158t-96.5 -99q-39 -18 -85 -25.5t-89 -11.5q-24 -2 -48 -2t-50 2q-51 4 -98 14q-16 2 -43 20.5t-52.5 42t-47 49t-27.5 44.5q-6 10 -9 22q-15 44 -15 77q0 26 9 45q21 44 76 44q18 -2 28.5 -15.5t22.5 -36t29.5 -52t52.5 -66.5 q33 -23 74 -28q20 -2 39 -2q21 0 42 2q40 6 74.5 19t53.5 32q33 33 35 90v22q0 48 -6 101l-18 134q-4 32 -4 61q0 33 5 61q-29 -43 -81 -85t-105 -53q-50 -10 -90 -10q-17 0 -32 2q-50 6 -87 27.5t-65.5 55.5t-57.5 77q-55 82 -71 176q-10 53 -10 105q0 41 6 81zM222 405 q0 -81 33 -141q34 -61 112 -61q33 0 63.5 13t58 32.5t50 40t39.5 33.5q20 29 53 55q-2 57 -2 109.5t2 101.5q2 23 1 54v22q0 22 1 45q-8 6 -19 22q-71 68 -135 68q-8 0 -15 -1q-71 -10 -124 -68t-85 -147q-33 -92 -33 -178z" />
<glyph unicode="h" horiz-adv-x="929" d="M74 1423q6 29 22 50q0 8 2 12q35 57 66 64q6 1 12 1q24 0 44 -22q26 -28 45.5 -81.5t30.5 -118t15 -133.5q2 -28 2 -53q0 -38 -4 -71l23 -237q35 35 67.5 72.5t81.5 47.5l60 4l28 5l35 -7l58 -12h2h2q51 -16 90 -49v-2q2 -2 4 -2q61 -43 84 -101q24 -58 30 -126 q3 -34 2 -68q0 -34 -2 -70q-3 -41 -4 -81q0 -29 2 -58q3 -39 3 -80q0 -19 -1 -41q-1 -18 -1 -36q0 -45 4 -89q1 -23 0 -41q-1 -24 -1 -38q-2 -28 -15 -43t-40 -22t-76 -13q-53 2 -65 47q-8 28 -8 69q0 24 3 52q7 76 22.5 179t17.5 222q-4 31 -9.5 64.5t-16.5 65.5 t-31.5 60.5t-55.5 53.5l-12 2l-76 18q-27 -16 -49.5 -28.5t-44 -30t-41 -43t-39.5 -68.5q0 -82 -4 -161.5t-4 -161.5q0 -23 3 -67q2 -33 2 -68v-24q-1 -48 -10.5 -91t-33.5 -64q-29 -16 -55.5 -15t-44.5 13q-20 0 -45 5t-33 34q-6 25 -6 63v20q2 52 7 108.5t10 106.5t5 75 q0 248 -19.5 494.5t-37.5 508.5z" />
<glyph unicode="i" horiz-adv-x="403" d="M76 78q4 130 4 259v85v43q0 149 12 301q2 37 3 70.5t5 65.5t17.5 60.5t44.5 55.5q10 8 37.5 8t40.5 8q43 -18 59 -52q17 -34 21 -74q2 -18 2 -37q0 -23 -4 -46q-6 -43 -5 -82q-6 -174 -7 -346q0 -19 -1 -38q0 -153 8 -308q-6 -31 -26.5 -50t-46.5 -25q-10 -2 -21 -2 q-15 0 -31 6q-26 8 -41 30q-23 4 -42 20.5t-29 47.5zM88 1196q0 14 3 33.5t15.5 36t38 30t72.5 17.5q8 1 16 1q53 0 75 -24q26 -28 26 -67q0 -14 -3 -33t-18.5 -37t-46 -30.5t-86.5 -14.5q-41 8 -66.5 30.5t-25.5 57.5z" />
<glyph unicode="j" horiz-adv-x="423" d="M-377 -210q21 44 76 44q18 -2 28.5 -15.5t22.5 -36t29.5 -52t52.5 -66.5q33 -23 74 -28q20 -2 39 -2q21 0 42 2q40 6 75 19.5t53 31.5q23 25 30 63q5 26 5 55q0 15 -2 30q-3 46 -10 96.5t-13 97.5q-29 174 -29 364.5t17 372.5q2 37 3 70.5t5 65.5t17.5 60.5t43.5 55.5 q10 8 38 8t40 8q43 -18 59.5 -52t20.5 -74q2 -18 2 -36q0 -23 -3 -47q-5 -43 -5 -82q-23 -65 -23 -161v-16q2 -107 11.5 -231t17.5 -253q4 -61 4 -118q0 -64 -5 -124q-9 -114 -45 -201.5t-116 -125.5q-39 -18 -85 -25.5t-89 -11.5q-24 -2 -48 -2t-50 2q-51 4 -99 14 q-16 2 -42.5 20.5t-52 42t-47 49t-27.5 44.5q-6 10 -9 22q-15 44 -15 77q0 26 9 45zM109 1196q0 14 3 33.5t15 36t38 30t73 17.5q8 1 16 1q53 0 75 -24q25 -28 25 -67q0 -14 -3 -33t-18.5 -37t-46 -30.5t-85.5 -14.5q-41 8 -66.5 30.5t-25.5 57.5z" />
<glyph unicode="k" horiz-adv-x="882" d="M61 1423q6 29 23 50q0 8 2 12q36 57 66 64q6 1 12 1q24 0 44 -22q26 -28 45 -81.5t30.5 -118t15.5 -133.5q2 -28 2 -53q0 -38 -4 -71l27 -409q37 25 75.5 46t71.5 44q39 29 63.5 47t46 34.5t44 34t57.5 43.5q12 10 28.5 25.5t34 26t36 11.5t36.5 -16q24 -20 24 -43 q1 -5 -1 -13q-8 -32 -34 -60.5t-56.5 -52t-44.5 -35.5l-26.5 -26.5t-33 -34t-30 -32t-15.5 -16.5q-33 -33 -70 -55q-14 -6 -28 -17q0 -8 -9.5 -13t-15.5 -11q-14 -16 -25.5 -28.5t-23.5 -24.5q2 -4 4 -5.5t4 -3.5q16 -16 29.5 -35.5t26.5 -39.5q18 -20 36.5 -41t38.5 -39 q41 -39 88 -69t82 -73q31 -36 53 -76q11 -19 11 -39q0 -23 -13 -48q-31 -37 -68.5 -37t-60.5 26q-4 0 -4 2q-23 20 -34 43q-8 8 -13 15q-31 41 -30.5 44t7.5 -3t8 -7t-28 33q-20 27 -52 49.5t-54 45.5q-2 2 -17.5 18t-36 37.5l-41 43t-32.5 34.5l-13 12v-59q-1 -23 3 -67 q3 -34 3 -71v-21q-1 -48 -10.5 -91t-33.5 -64q-29 -16 -55.5 -15t-45.5 13q-20 0 -44.5 5t-33.5 34q-6 25 -6 63v20q2 52 7.5 108.5t10.5 106.5t5 75q0 248 -19.5 494.5t-38.5 508.5zM477 557q4 0 9.5 5t9.5 9q-20 -11 -20 -13q0 -1 1 -1z" />
<glyph unicode="l" horiz-adv-x="634" d="M-15 1392q5 26 27.5 44t59.5 18q4 -8 6 -10q14 14 47 18q23 -2 43 -7t43 -11q12 4 25.5 5t25.5 1q27 -8 37 -22.5t18 -45.5q14 -114 14 -231q0 -53 -3 -105q-9 -170 -15 -335q-2 -38 -2 -83q0 -56 3 -123q1 -35 1 -72q0 -87 -8 -181q8 -10 13.5 -21.5t5.5 -23.5 q6 0 10 -4q18 -4 53 0t73 9t72.5 8t53.5 1q20 -5 28 -37q6 -21 6 -43q0 -12 -2 -24q-4 -35 -19 -66t-38 -35h-4q-29 -2 -69.5 -4t-85 -6t-86 -8t-72.5 -8q-4 0 -6 1t-7 1q-16 -6 -35 -6h-10q-24 2 -45.5 13t-35 34.5t-13.5 58.5l6 613q-14 68 -14 146.5t1 159.5v23 q0 70 -5 134q-6 76 -33 137q-4 -2 -12 -11q-33 18 -45 45q-8 19 -8 37q0 8 1 16z" />
<glyph unicode="m" horiz-adv-x="1363" d="M72 0q-2 8 -2 17q0 22 12 44v5q2 10 4 32.5t2 24.5q2 31 3 62.5t1 60.5q1 31 1 63q0 62 -3 124q-2 37 -2 74q0 56 4 111q2 23 4 42.5t6 41.5q-2 31 -5 69t-4 76q-1 39 -2 75v23q0 23 1 44q8 33 22.5 49.5t43.5 26.5q2 2 6 2q23 0 39 -6q8 0 12 -2q14 7 30 7q17 0 33 -8 q34 -14 48 -57q32 15 66 27q26 9 50 9q9 0 17 -1q86 -10 135 -53t98 -115q4 -8 8 -12q29 45 73 86t99 59q60 20 117 20q11 0 21 -1q68 -4 124 -39t98 -101.5t64 -170.5q14 -64 13 -140q1 -3 1 -5q0 -79 -9 -169t-21 -191.5t-20 -209.5q-20 -20 -51 -32q-29 -12 -56 -12h-4 q-29 1 -51.5 19.5t-26.5 59.5q4 39 12.5 94t17.5 113.5t17 114t12 93.5q1 13 1 27q0 31 -6 65q-9 48 -29.5 90t-50 71.5t-68.5 33.5q-5 1 -10 1q-35 0 -74 -24q-45 -28 -96 -100q-8 -23 -15.5 -47t-11.5 -51q-6 -47 -6 -96v-24q2 -62 7 -123.5t12.5 -122t7.5 -121.5 q-2 -55 -56 -64q-37 -6 -63 -6q-22 0 -36 4q-32 9 -44 35q-10 23 -10 56v11q2 41 8 95l-6 512q-6 23 -15.5 42t-19.5 37q-27 23 -53.5 25t-61.5 0q-63 -4 -99 -41t-51.5 -91t-15.5 -119.5t6.5 -128t14.5 -114t10 -77.5q2 -37 7 -69t6 -60.5t-5 -57t-26 -59.5l-172 20 q-10 10 -37 27z" />
<glyph unicode="n" horiz-adv-x="976" d="M72 0q-2 8 -2 17q0 22 12 44v5q2 10 4 32.5t2 24.5q2 31 3 62.5t1 60.5q1 31 1 61q0 60 -3 116q-2 33 -2 68q0 52 4 107q2 23 4 42t6 42q-2 31 -5 68.5t-4 75.5t-2 75v24q0 23 1 44q8 33 22.5 49t43.5 26q2 2 6 3q23 0 39 -7q8 0 12 -2q14 7 30 7q17 0 33 -7 q34 -14 48 -57q32 15 66 27q26 9 50 9q9 0 17 -1q104 -12 190 -26.5t144.5 -56.5t86.5 -122q21 -59 21 -153q0 -33 -2 -70q-8 -23 -15 -37t-12 -41q-6 -47 -7 -96q0 -12 1 -24q2 -62 7.5 -123.5t12.5 -122t7 -121.5q-2 -55 -55 -64q-37 -6 -63 -6q-21 0 -35 4q-32 9 -46 35 q-11 23 -10 56v11q2 41 8 95q8 152 14 257q5 80 5 140v35q-2 70 -16.5 110.5t-45.5 61t-83 25.5t-132 8h-6q-58 0 -93 -35q-36 -37 -51.5 -94.5t-15.5 -127t6.5 -135t14.5 -120t10 -80.5q2 -37 7 -69t6 -60.5t-5 -57t-26 -59.5l-172 20q-10 10 -37 27z" />
<glyph unicode="o" horiz-adv-x="909" d="M28 492q6 100 34 200.5t80.5 185.5t123.5 128q18 10 44 19t66 10h7q38 0 88 -9q55 -10 135 -35q82 -37 129 -97t70.5 -135t30 -159t8.5 -170v-18q0 -44 -8 -96q-10 -64 -35 -109q-41 -66 -92.5 -111t-116.5 -86q-60 -12 -120 -15q-30 -2 -58 -1.5t-54 1.5q-52 3 -89.5 12 t-53.5 22q-41 31 -67.5 62.5t-45 66.5t-32 74.5t-27.5 84.5q-19 60 -19 137zM190 408q2 -52 27 -98t79 -78.5t148 -45.5q13 -2 25 -2q41 0 73 22q40 28 65.5 73t40 97t20.5 94t7 64.5t3 8.5q-4 55 -20.5 115.5t-53.5 106.5q-38 45 -102 67q-29 10 -64 10q-45 0 -102 -15 q-18 -8 -32.5 -28.5t-24 -45t-17.5 -47t-14 -34.5q-8 -25 -24 -68t-26 -93q-8 -40 -8 -82v-21z" />
<glyph unicode="p" horiz-adv-x="925" d="M50 -337v88q0 89 1 183q2 142 6.5 279t8.5 246q0 47 -5.5 105.5t-8.5 117.5q-2 30 -2 59t2 57q3 58 20 105q8 25 31.5 37t50.5 13h4q24 0 46 -9q25 -10 38 -31q16 -25 26 -75q23 18 51.5 40.5t57.5 28.5q46 11 90 11q47 0 90 -12q84 -25 148.5 -81.5t106.5 -137.5 t56 -173q5 -40 5 -81q0 -52 -9 -105q-18 -95 -71 -176q-29 -43 -57.5 -77t-65.5 -55.5t-88 -27.5q-15 -2 -32 -2q-39 0 -89 10q-53 10 -105.5 52t-81.5 85q-2 -31 -2 -60.5v-58.5q-1 -45 -1 -93v-49q1 -73 1 -146.5t-4 -147.5t-16 -141q-6 -35 -37 -49q-2 -2 -2 -3t-2 -3 q-6 -2 -13.5 -3t-13.5 -4v3q-8 0 -12 7t-12 11q-2 2 -5 -1t-8 -3q-29 8 -43 7t-32 22q-4 4 -7.5 8t-3.5 8q-10 92 -11 222zM283 690q1 -23 1 -45v-21q-1 -32 1 -55q2 -49 2 -102t-2 -109q33 -27 53 -55q16 -12 38.5 -32.5t50.5 -40t58.5 -33t63.5 -13.5q78 0 111 62 q33 59 33 140q0 86 -33 178q-31 89 -84.5 147.5t-125.5 67.5q-7 1 -15 1q-64 0 -134 -67q-10 -16 -18 -23z" />
<glyph unicode="q" horiz-adv-x="942" d="M48 532q13 93 55 173.5t106.5 137t147.5 81.5q44 12 92 12q43 0 90 -10q29 -6 57.5 -29t50.5 -41q10 51 27 76q12 20 36 30q23 10 47 10h5q26 -1 50 -13.5t32 -36.5q16 -47 18 -104q1 -24 1 -47q0 -35 -2 -71q-3 -59 -7 -117.5t-4 -105.5q4 -109 8 -246t6 -278 q1 -71 1 -138.5t-1 -132.5q-2 -131 -10 -223q0 -4 -3 -8t-7 -8q-18 -23 -32.5 -22t-43.5 -7q-4 0 -7 3t-5 1q-8 -4 -12.5 -11t-12.5 -7v-2q-6 2 -13 3t-13 3q-2 2 -2.5 3t-2.5 3q-31 14 -36 49q-21 126 -21 265v24q1 76 1 148t-1 141v58.5t-2 60.5q-29 -43 -81 -85t-105 -53 q-50 -10 -90 -10q-17 0 -32 2q-50 6 -87 27.5t-65.5 55.5t-57.5 77q-55 82 -71 176q-10 53 -10 105q0 41 6 81zM222 405q0 -81 33 -141q34 -61 112 -61q33 0 63.5 13t58 32.5t50 40t39.5 33.5q20 29 53 55q-2 57 -2 109.5t2 101.5q2 23 1 54v22q0 22 1 45q-8 6 -19 22 q-71 68 -135 68q-8 0 -15 -1q-71 -10 -124 -68t-85 -147q-33 -92 -33 -178z" />
<glyph unicode="r" horiz-adv-x="720" d="M43 61.5q0 10.5 4 25.5t10 43t10.5 80t4.5 138t-6 217q6 78 6 153v36q-2 92 -2 188q0 29 20 50q20 20 48 28q15 4 31 4q13 0 29 -3q32 -7 60 -33q27 -26 41 -74q9 -31 9 -71q0 -23 -3 -50q6 2 20.5 12t30 20.5t29.5 19.5t21 11q47 35 108.5 45t110.5 11q72 -45 72 -74 q0 -32 -43 -56q-42 -24 -108.5 -46.5t-128 -53.5t-99.5 -74q-29 -33 -30 -78q0 -14 3 -30q-2 -10 -3 -18.5t-1 -12.5q-6 -100 -16.5 -201.5t-12.5 -216.5q-2 -41 -30.5 -61.5t-64.5 -21.5h-4q-34 0 -65 14q-33 16 -43 51q-8 18 -8 28.5z" />
<glyph unicode="s" horiz-adv-x="831" d="M60 94q3 39 36 72t105 37q41 -2 85 -5q33 -2 66 -2h22q44 1 87 9t84 28q6 12 11 30t6 36t-2 35.5t-11 27.5q-16 20 -35.5 35t-40.5 27q-4 2 -6 4t-6 4q-53 25 -115.5 38t-119 32.5t-97.5 55.5t-49 104q-3 18 -3 36q0 20 4 42q7 40 11 81l33 66q53 63 136 100t174 47 q34 4 67 4q57 0 112 -11q88 -17 154 -60q32 -32 32 -64v-6q-3 -35 -26 -55q2 -18 0 -33q-6 -23 -24 -29q-4 -1 -8 -1q-20 0 -64 18q-63 14 -79.5 23t-25.5 18q-33 8 -68.5 13t-68.5 5t-61.5 -6t-46.5 -25q-18 -18 -27.5 -43.5t-7.5 -52.5t11 -51.5t28 -40.5q25 -23 54.5 -39 t59.5 -29q37 -4 69 -10t62.5 -17.5t63.5 -30.5t74 -46q35 -25 56.5 -66t25.5 -82v-20q1 -38 -5 -78q-8 -51 -28.5 -95t-56 -77t-89.5 -43q-42 -8 -88 -8h-18q-28 1 -53 1t-49 -1q-66 -2 -129.5 -5t-128.5 -3q-45 2 -70 34q-22 29 -22 64v8z" />
<glyph unicode="t" horiz-adv-x="894" d="M-100 1163q4 14 14 25q4 4 12 8q2 2 4 2t4 2q6 2 19 2q16 0 50 2t50 6q23 6 35 15.5t21.5 19.5t17.5 20.5t20 16.5q2 29 4.5 56.5t6.5 56.5q6 12 25.5 45t49 64.5t64.5 51.5q22 13 44 13l26 -4q47 -29 61 -72q11 -33 11 -69q0 -10 -1 -21q0 -37 -7 -78t-17 -78l233 -51 l12 -12q10 0 20.5 -1t22.5 -1q4 -2 9.5 -4t9.5 -4l10 -11q2 -2 6 -10q2 -2 2 -6q2 -6 2 -14q0 -12 -10 -27q0 -2 -4 -6l-4 -4q-10 -6 -25 -11l-301 -26h-2q-4 0 -5 -1t-3 -1q-2 -16 -2 -29.5v-30.5q1 -24 1 -54q0 -29 -1 -65q-2 -70 -2 -151.5t3 -165.5t17.5 -160.5t42 -141 t74.5 -105.5q18 -16 35.5 -16t34 6t34 14t35.5 10h23q4 6 9 17.5t7 17.5q18 31 46 31h7q33 -4 44 -44q0 -55 -21.5 -95t-57.5 -64.5t-81 -36.5t-94 -12q-17 -7 -38 -7q-14 0 -28 3q-37 8 -74 28q-41 16 -72.5 40t-47.5 54q-23 23 -39.5 43.5t-24.5 34.5q-23 39 -29 77t-8 81 l-28 244q-4 129 -8 259q-3 90 -4 180q0 40 1 81l-192 2q-39 6 -47 39q-2 8 -2 22z" />
<glyph unicode="u" horiz-adv-x="919" d="M47 963q6 27 24.5 44t41 23t47 2t41.5 -18q29 -55 43 -136t21 -172.5t11 -184.5t11 -169q2 -31 5 -48t8 -29.5t14.5 -27t23.5 -40.5q28 -48 65 -48h7q41 5 84 36.5t85 74.5t72 66q4 201 7.5 359.5t22.5 248.5t65 98q4 1 8 1q46 0 127 -93q-6 -90 -19.5 -187t-23.5 -197 q-11 -102 -12 -202v-10q0 -95 18 -182q2 31 5 17.5t5 -42t2 -61.5t-6 -45q-14 -39 -40 -53.5t-54 -7.5q-14 -8 -29 -8q-22 0 -46 17q-40 29 -44 93q-2 16 -2 32.5v32.5q-39 -47 -85 -89t-99 -66q-27 -12 -66 -18q-15 -3 -29 -3q-21 0 -39 6q-86 29 -138 94.5t-79.5 152.5 t-36 189.5t-9.5 202.5v97v93v20q0 78 -7 137z" />
<glyph unicode="v" horiz-adv-x="1034" d="M31 926q-1 10 -1 19q0 29 14 49q19 26 47 34q10 3 21 3q18 0 36 -9q30 -14 42 -55q6 -31 21.5 -72t58.5 -129q35 -49 61.5 -115.5t49 -133t42 -126t42.5 -96.5q25 53 53.5 129t62 158t73.5 161.5t87 141t105 97.5q52 32 112 32h13q28 -12 28 -42q0 -12 -4 -26 q-4 -4 -4 -6q0 -6 -4 -22l-129 -242q-16 -37 -40.5 -97.5t-55.5 -130t-68 -144.5t-75.5 -139.5t-79.5 -113.5t-80 -69q-14 -2 -26 -2q-9 0 -15 1q-16 3 -35 21q-111 229 -198.5 456.5t-153.5 467.5z" />
<glyph unicode="w" horiz-adv-x="1323" d="M-12 864q-1 8 -1 15q0 19 8 37q11 24 28 36q-3 11 -3 20q0 29 29 42h13q59 0 108 -33q55 -37 102 -99.5t87 -142.5t74 -161.5t63.5 -156.5t58.5 -126q45 121 83 188.5t81 69.5q16 0 21 -21.5t13.5 -58.5t27 -84t61.5 -94q29 45 55.5 116.5t54 152.5t59 165t70.5 152.5 t86 117t109 60.5q33 -8 33 -45q0 -9 -2 -19q-4 -4 -4 -8q0 -14 -3 -22l-104 -252q-12 -39 -30.5 -101.5t-43 -135.5t-53.5 -150.5t-61.5 -145t-67.5 -121t-72 -77.5q-21 -7 -36 -7q-3 1 -5 1q-16 2 -36 18q-12 18 -24.5 47t-25 60.5t-24.5 60t-23 47.5q-8 -16 -15 -45 t-13.5 -58.5t-13.5 -58.5t-15 -45q-18 -18 -34.5 -21.5t-41.5 1.5q-37 20 -74.5 66t-73.5 107.5t-69 132t-61 140.5q-10 23 -22.5 43.5t-24.5 42.5q-57 92 -124 175t-124 175z" />
<glyph unicode="x" horiz-adv-x="976" d="M9 108v8q0 26 16 48q8 10 17 23.5t15 19.5q43 41 80 74.5t78 76.5q37 41 76 80t80 78q-59 98 -115.5 196.5t-126.5 190.5q-41 12 -53.5 45t0.5 62q2 23 15 39t31 23q13 5 29 5q7 0 13 -1q24 -3 47 -17l82 -17q25 -10 56.5 -42.5t67.5 -80t72.5 -103.5t71.5 -111 q14 16 28.5 32.5t28.5 32.5q10 10 27 38t39.5 60.5t48 63.5t52 49t52 18t50.5 -28q16 -23 6 -51q-68 -82 -130.5 -169t-121.5 -178l178 -297q6 -12 12.5 -23t10.5 -24q45 -55 86 -110q16 -22 16 -42q0 -5 -1 -9q-5 -24 -34 -41q-6 -4 -11 -6.5t-11 -2.5q-12 -27 -38 -44 t-54 -7q-47 14 -89 55t-78 91.5t-67 101.5t-55 88l-25 35l-12 -19q-72 -104 -149.5 -209.5t-188.5 -177.5q-12 -2 -23 -2q-18 0 -34 6q-24 10 -37.5 30t-13.5 44.5t16 46.5q-27 20 -30 51zM49 184q2 2 4 3t4 3q-2 -2 -6 -2q-2 -2 -2 -4z" />
<glyph unicode="y" horiz-adv-x="1028" d="M-124 -484v8q0 21 12 42q16 26 51 39q27 0 73.5 4t95 12t90.5 22.5t60 37.5q25 29 45.5 61.5t42.5 64.5q61 125 88 208t28 139v6q0 53 -20 87q-20 36 -54 69.5t-76 72.5t-83 100l-112 179q-4 0 -16.5 13t-26 33.5t-24.5 43t-11 39.5q2 10 10 30q0 16 10.5 26.5t26.5 12.5 q29 14 61.5 2t49.5 -53q-2 4 -2 8q31 -53 54 -88t39.5 -59.5t30 -42t25.5 -33.5q57 -45 97 -72.5t68 -46t46 -29t33 -18.5q4 8 6 14.5t6 14.5q29 70 63.5 149.5t55.5 151.5q6 25 12 49.5t10 46.5q4 10 17.5 28.5t21.5 29.5q4 4 5 7t3 7q4 10 6.5 16t6.5 15q20 37 59 43 q25 25 55 30q33 0 54.5 -13t32.5 -33q8 -15 8 -32q0 -5 -1 -10q-3 -24 -20 -43q-2 -4 -9 -17.5t-9 -15.5q-10 -20 -21.5 -39.5t-21.5 -41.5q-41 -100 -74 -209t-64.5 -218.5t-67.5 -218t-84 -211t-113.5 -195.5t-155.5 -173q-8 -6 -21 -19q-43 -37 -81 -57t-81 -29.5 t-97 -12.5t-132 -5q-37 4 -57.5 25.5t-23.5 47.5z" />
<glyph unicode="z" horiz-adv-x="1120" d="M66 965q-7 20 -8 37q0 18 8 32q14 28 71 27h8q68 -8 158 -20.5t189.5 -21.5t201.5 -14q46 -2 89 -2q53 0 102 3q55 15 94 15q11 0 21 -1q44 -6 64 -32q15 -20 14 -52q0 -10 -1 -20q-6 -44 -37 -101q-43 -68 -117.5 -142.5t-158.5 -147t-167 -142.5t-146 -127 q-31 -31 -70 -76q61 -10 132 -23.5t149 -20.5q69 -6 141 -6h21q83 1 167 22q29 -8 44.5 -24.5t19.5 -37.5q32 -10 32 -38q0 -27 -28 -44q-107 -31 -209 -36q-45 -2 -89 -2q-59 0 -117 4q-104 6 -212 14q-87 6 -179 6h-46q-29 -6 -55.5 -6t-45 9t-26.5 28.5t-2 54.5q2 6 8 15 t28.5 36t68.5 75t128 134t206 215t302 315q-31 -4 -61.5 -9t-65.5 -5q-127 -2 -252 -4t-252 -8q-37 8 -72.5 45t-49.5 76z" />
<glyph unicode="{" horiz-adv-x="780" d="M78 539q0 25 11 34t27.5 12t35 5t30.5 10q12 6 27.5 19.5t30 28t27 27.5t16.5 23q12 18 10 58.5t-8 85.5t-14.5 87t-8.5 66q0 70 20.5 132.5t60.5 108.5t99 72.5t133 26.5q43 2 68 -20.5t28 -51t-15.5 -55t-61.5 -34.5q-29 -4 -56.5 -4.5t-56.5 -8.5q-45 -14 -66.5 -48 t-26.5 -80t-2 -100t6 -107.5t0 -100.5t-21 -80q-14 -23 -49 -48.5t-52 -37.5q-12 -10 -22 -19.5t-21 -15.5q61 -43 93 -89t46.5 -95t16.5 -100.5t3 -104.5t5 -107.5t23 -109.5q18 -45 23 -71.5t15.5 -42t38 -19.5t93.5 -2q68 -31 70.5 -68t-29 -64.5t-84 -35.5t-97.5 18 q-86 49 -119.5 120t-41 152t-2 167t-4 164.5t-45 146.5t-123.5 113q-16 8 -21.5 17t-9.5 26z" />
<glyph unicode="|" d="M532 1413q6 37 29 56.5t49.5 20.5t50 -15.5t33.5 -53.5q-16 -328 -18 -649t14 -649q2 -16 9.5 -79.5t13.5 -138.5t6 -142.5t-14 -90.5q-25 -27 -51.5 -33t-50 4.5t-38 32t-10.5 50.5q10 70 13 143.5t3 147t1 146.5t8 144q8 279 -11 554.5t-37 551.5z" />
<glyph unicode="}" horiz-adv-x="780" d="M107 1263.5q-3 -28.5 15.5 -55t61.5 -34.5q29 -4 56.5 -4.5t56.5 -8.5q45 -14 66.5 -48t26.5 -80t2 -100t-6 -107.5t0 -100.5t21 -80q14 -23 49 -48.5t52 -37.5q12 -10 22 -19.5t21 -15.5q-61 -43 -93 -89t-46.5 -95t-16.5 -100.5t-3 -104.5t-5 -107.5t-23 -109.5 q-18 -45 -23 -71.5t-15.5 -42t-38 -19.5t-93.5 -2q-68 -31 -70.5 -68t29 -64.5t84 -35.5t97.5 18q86 49 119.5 120t41 152t2 167t4 164.5t45 146.5t123.5 113q16 8 21.5 17t9.5 26q0 25 -11 34t-27.5 12t-35 5t-30.5 10q-12 6 -27.5 19.5t-30 28t-27 27.5t-16.5 23 q-12 18 -10 58.5t8 85.5t14.5 87t8.5 66q0 70 -20.5 132.5t-60.5 108.5t-99 72.5t-133 26.5q-43 2 -68 -20.5t-28 -51z" />
<glyph unicode="~" horiz-adv-x="1275" d="M55 439.5q6 19.5 29 35.5q0 2 2 4q25 16 70 38t98 40t107.5 30.5t97.5 8.5q66 -6 105.5 -19.5t70.5 -32t62.5 -39t84.5 -40.5q18 -6 50 -4t70 16.5t77 41t70 67.5q43 25 80.5 19.5t61 -29t23.5 -55.5t-32 -58q-33 -18 -74 -44t-89 -46.5t-102.5 -28.5t-111.5 8 q-41 12 -85 39t-87 53.5t-86 43t-82 8.5q-49 -10 -84 -34t-67.5 -49.5t-66.5 -45t-81 -17.5q-43 2 -69.5 16.5t-37 34t-4.5 39zM896 484q-1 1 1 -2t3 -7t1 -2q-4 10 -5 11z" />
<glyph unicode="&#xa1;" horiz-adv-x="464" d="M117 78q6 174 4 344t12 344q4 37 4 71t4 65.5t17.5 60.5t44.5 55q10 8 37.5 8t40.5 9q43 -18 59 -52t20.5 -74t-1 -83t-5.5 -82q-6 -174 -7 -346.5t7 -346.5q-6 -31 -26.5 -50t-47 -24t-51 3t-41.5 31q-23 4 -42 20t-29 47zM129 1196q0 16 3 35t15.5 35t39 29.5 t71.5 17.5q66 4 91.5 -23.5t25.5 -66.5q0 -14 -3 -32.5t-18.5 -37t-46 -31t-86.5 -14.5q-41 8 -66.5 31t-25.5 57z" />
<glyph unicode="&#xa2;" horiz-adv-x="851" d="M26 508q3 88 19 164q25 135 91.5 209.5t149.5 106.5t169 31t149 -15q33 -6 71 -24.5t68.5 -45.5t48 -58.5t9.5 -68.5q-18 -39 -60 -31q-12 4 -19 8t-17 13q-2 4 -8.5 7t-10.5 7q-37 10 -72.5 25.5t-72.5 26.5t-74 13.5t-74 -14.5q-80 -37 -120 -106.5t-52 -149.5 t0 -157.5t37 -133.5q33 -31 60.5 -53t60.5 -31.5t75 -5.5t103 23q33 10 77 31.5t83 28.5t64.5 -8.5t23.5 -78.5q-33 -82 -108.5 -138t-167 -81t-184.5 -14.5t-157 61.5q-63 49 -100 125t-51 161t-11 173zM322 1413q6 37 28.5 56.5t49 20.5t50 -15.5t33.5 -53.5 q-16 -328 -18 -649t14 -649q2 -16 9.5 -79.5t13.5 -138.5t6 -142.5t-14 -90.5q-25 -27 -51.5 -33t-50 4.5t-38 32t-10.5 50.5q10 70 13 143.5t3 147t1 146.5t8 144q8 279 -10.5 554.5t-36.5 551.5z" />
<glyph unicode="&#xa3;" horiz-adv-x="987" d="M55 41q-10 27 5.5 48.5t45 41t69.5 37.5t78 37.5t68.5 42t45.5 51.5q-16 80 -23.5 180.5t-2.5 206t22.5 207.5t50 187t84 146.5t121 84t161.5 -2t207 -108.5l137 -121q12 -18 11.5 -38.5t-11 -39t-29 -29.5t-40.5 -11q-29 -16 -64 -7t-57 50q-80 88 -142.5 116.5 t-108.5 16t-78 -57.5t-51 -105.5t-27.5 -127t-6.5 -121.5q2 -51 1 -99t0 -96.5t9.5 -96.5t26.5 -99q25 -23 44.5 -48.5t42 -50t51 -43t70.5 -22.5t101.5 8t145.5 51q25 16 48 10t36.5 -25t10.5 -47t-32 -54q-27 -25 -43 -47.5t-34.5 -38t-45 -23.5t-71.5 -8q-37 2 -75 15.5 t-75 28.5t-73.5 28.5t-71.5 13.5q-80 16 -145.5 7t-119 -28.5t-94.5 -42t-73.5 -33t-56 0t-42.5 55.5zM200 606.5q1 28.5 23.5 52t65.5 25.5q59 -33 128.5 -38t135 1t124 13.5t96.5 1t52.5 -34t-8.5 -95.5q-27 -8 -62.5 -8t-74.5 4t-76 10.5t-63 8.5q-66 6 -130 -3.5 t-130 -21.5q-43 4 -62.5 30t-18.5 54.5z" />
<glyph unicode="&#xa4;" d="M190.5 1182.5q4.5 23.5 26.5 54.5q12 18 34.5 20.5t46.5 -6t44 -27t29 -42.5q2 -10 3 -17.5t9 -18.5t28.5 -26.5t63.5 -40.5q20 25 75.5 32t120 3t125 -17.5t89.5 -29.5q39 23 60.5 53.5t41.5 65.5q14 25 21.5 52.5t19.5 44.5t35.5 20.5t71.5 -19.5q27 -12 39 -34.5 t9 -47t-22.5 -45t-56.5 -29.5q-20 -4 -36.5 -19t-29 -36.5t-22.5 -47.5t-17 -50q45 -47 64.5 -94t13.5 -113v-4v-14.5t-2 -16.5q-4 -41 -8 -80t-20 -78q-14 -35 -34 -71.5t-46 -69.5q31 -63 68.5 -121.5t111.5 -95.5q10 -37 -2 -64.5t-36 -40t-51.5 -8t-49.5 30.5l-2 2 q-6 25 -16.5 52.5t-26 54t-41 48t-62.5 38.5q-37 -33 -81 -44.5t-92 -8t-96 16.5t-91 25q-33 -18 -51.5 -40.5t-33 -47t-27.5 -51t-34 -51.5q-33 -33 -68.5 -28t-54 30t-11.5 59.5t63 61.5q49 27 65.5 54.5t30.5 58.5q-57 68 -90 158.5t-35 182t29.5 173.5t105.5 133 q-6 0 -19.5 16t-32 35.5t-41 36t-48.5 14.5q-16 0 -31.5 7t-23 22.5t-3 39zM369 702q0 -61 20 -125.5t49 -125.5q14 14 34 16t38 -5t33.5 -22.5t21.5 -33.5q39 -12 68 -25.5t54.5 -18t54 4t69.5 39.5q6 31 24.5 52t53.5 25q31 43 49 92.5t25 98.5q12 98 -25 161.5 t-100.5 94.5t-142.5 29.5t-149.5 -31t-120.5 -87t-56 -139.5z" />
<glyph unicode="&#xa5;" horiz-adv-x="1044" d="M18 1380q6 27 15.5 46.5t23 27.5t29.5 1t37 -34q68 -84 113 -162.5t82.5 -150.5t79.5 -136.5t106 -117.5q176 272 271 412.5t124 158.5q14 6 27.5 11.5t25 3.5t19.5 -17.5t10 -52.5q2 -41 -24.5 -98.5t-68.5 -123t-91 -134t-93.5 -132t-74 -116.5t-31.5 -88 q-6 -80 -2 -163l8 -166t4 -167t-14 -166q-4 -20 -37 -30.5t-70.5 -5t-68.5 27t-29 64.5q10 125 15.5 279.5t21.5 344.5l-6 13q-31 53 -87.5 133t-115.5 162.5t-109.5 159.5t-68.5 124q-6 12 -15.5 41t-5.5 51zM63 561.5q0 24.5 26 47t71 28.5q137 -10 265 -11.5t263 -17.5 q18 -2 48 0t64 5t64.5 3t50.5 -8q27 -10 37.5 -28.5t-1 -36t-45.5 -29.5t-91 -12q-86 -2 -160.5 -1t-147.5 2t-147.5 1t-160.5 -4q-72 -2 -104 17.5t-32 44zM91 303q-9 19 2 36t44 29.5t92 12.5q86 2 161 1t147.5 -2t147.5 -1t161 4q72 2 103.5 -17.5t31.5 -44t-25.5 -47 t-70.5 -28.5q-137 10 -265.5 11t-263.5 17q-18 2 -47.5 0t-63.5 -5t-64.5 -3t-51.5 8q-29 10 -38 29z" />
<glyph unicode="&#xa6;" horiz-adv-x="534" d="M160 1298q6 37 28.5 56.5t49 20.5t50 -15.5t34.5 -52.5q6 -90 7 -145.5t-1 -102.5q12 -123 22 -229.5t-26 -200.5q-18 -23 -42 -20t-36 30q-10 18 -15.5 50t-12.5 101.5t-19 190t-39 317.5zM172 354q6 37 28.5 56.5t49 20.5t50.5 -15.5t34 -53.5q-23 -70 -29 -130 t-4 -118.5t7 -121t7 -137.5q0 -57 -2 -117t6 -119q-12 -14 -23 -26.5t-32 -22.5q-18 -4 -32.5 2t-22.5 40t-7 104.5t11 197.5z" />
<glyph unicode="&#xa7;" d="M239 518q-3 47 7 95.5t33.5 90t58.5 72.5q12 8 47 19.5t75 18.5t77.5 10t54.5 -5q51 -27 22 -71q-20 -20 -45.5 -24.5t-55.5 -9.5t-62.5 -17.5t-65.5 -49.5l-43 -74q4 -39 32.5 -85t57.5 -68q41 -31 116 -71t155.5 -87t153.5 -100t113 -107.5t31.5 -109t-90.5 -105.5 l-256 -110q-33 -10 -83 -21.5t-102 -18.5t-97.5 -5t-65.5 20q-14 43 9.5 69.5t68.5 41t103.5 21.5t117 15.5t108.5 20.5t79 37q49 43 35.5 86t-57.5 82t-100.5 70.5t-90.5 50.5q-41 23 -87.5 44t-89.5 47.5t-79.5 60.5t-61.5 81q-20 39 -23 86zM248 1045.5q8 54.5 90 105.5 l256 111q33 8 83 20t102 19.5t97.5 5t65.5 -20.5q14 -45 -9.5 -70.5t-68.5 -40t-103.5 -21.5t-116.5 -15.5t-109.5 -20.5t-77.5 -37q-49 -43 -36 -86t57 -82t100.5 -70.5t91.5 -49.5q41 -23 87 -44.5t89 -48t80 -60.5t61 -81q20 -39 23.5 -86t-8 -95t-35 -90t-56.5 -73 q-12 -10 -47 -20.5t-74.5 -18.5t-77.5 -10t-55 6q-51 27 -22 72q20 20 46 24t55.5 9.5t61 17.5t66.5 49l43 74q-4 39 -32.5 85t-57.5 68q-41 31 -115.5 71t-155.5 87t-154 100.5t-112.5 107.5t-31.5 108.5z" />
<glyph unicode="&#xa8;" horiz-adv-x="448" d="M77 1232q-1 36 16.5 61.5t60.5 21.5q63 49 100 43t50 -43t8 -89t-25.5 -95.5t-51 -63.5t-67.5 10q-14 8 -18 17q-4 4 -9.5 6t-9.5 6q-23 18 -38 54t-16 72zM441 1232q-1 36 16.5 61.5t60.5 21.5q63 49 100 43t50.5 -43t8.5 -89t-25.5 -95.5t-51.5 -63.5t-68 10 q-14 8 -18 17q-4 4 -9 6t-9 6q-23 18 -38.5 54t-16.5 72z" />
<glyph unicode="&#xa9;" horiz-adv-x="851" d="M40 830q5 69 27.5 135.5t57.5 127t76 103.5q59 63 136 98t161 48.5t168 9.5t159 -19q270 -59 367 -313q29 -78 40 -165t-5 -169q-27 -145 -110 -259t-199.5 -182.5t-255 -86t-275.5 31.5q-82 29 -136 84.5t-92 124t-62.5 147.5t-45.5 154q-16 61 -11 130zM168 820.5 q-2 -72.5 15.5 -148.5t35.5 -158q10 -33 27.5 -72t48.5 -76.5t77 -67.5t113 -44q119 -25 232.5 14t205 118t149.5 184.5t66.5 213t-43 206t-180.5 161.5q-59 27 -122.5 29t-124.5 14q-49 0 -99.5 -1t-97.5 -10t-92 -28.5t-82 -54.5q-72 -68 -99.5 -137.5t-29.5 -142z M389 727q2 57 12 107q16 88 59.5 136t96.5 68.5t109.5 19.5t97.5 -9q20 -4 46 -16.5t45 -29t31.5 -38t6.5 -43.5q-12 -27 -39 -21q-10 2 -25 12q-2 4 -5 5.5t-7 5.5q-23 6 -46 16t-47 17.5t-48.5 8.5t-48.5 -10q-51 -23 -77 -67.5t-34 -97t0 -103.5t25 -86 q20 -20 37.5 -34.5t39 -20.5t48 -3t67.5 15q20 6 49 19.5t54.5 18.5t43 -5t15.5 -51q-20 -53 -69.5 -89t-109 -52.5t-119.5 -9.5t-101 40t-64.5 81t-34 103.5t-8.5 112.5z" />
<glyph unicode="&#xaa;" horiz-adv-x="692" d="M71 572q0 20 6 37q5 14 9 22t13 18q12 15 21 26q2 2 5.5 5t2.5 1q5 9 15.5 23t18.5 19q23 19 56.5 21.5t61.5 8.5l18 2q73 7 97.5 24t16.5 35t-41.5 33.5t-75 20.5t-84 -6t-68.5 -45q-21 -2 -36 6.5t-20 23t-1 30.5t22 30q18 5 25.5 15t23.5 19q77 41 138 45.5t105 -17 t73 -61.5t43 -89.5t13.5 -100.5t-16.5 -94q-6 -17 -5.5 -31.5t3.5 -32t6.5 -40.5t6.5 -54q5 -8 5 -15q4 -14 3 -29q0 -2 -1 -2q-7 -18 -19.5 -26.5t-27 -8t-27 9.5t-19.5 25q-2 9 -2 12.5v4.5q-8 10 -9 19q-5 3 -9 7t-7 9q-4 5 -12.5 4.5t-10.5 5.5q-6 -2 -11 -5.5t-10 -5.5 q-35 -23 -67 -40.5t-63 -22t-63 7t-68 47.5q-11 10 -18.5 28.5t-12 39.5t-4.5 41zM176 540l33 -26q36 -8 79.5 3.5t97.5 37.5q14 21 19 36.5t6 29.5t1.5 26t4.5 26q-37 6 -80.5 8t-79.5 -10t-59.5 -43t-21.5 -88zM441 428q1 -1 1 -2.5t1 -2.5q1 -3 0.5 0t-2.5 5z" />
<glyph unicode="&#xab;" horiz-adv-x="980" d="M127 532.5q6 26.5 29.5 46t57.5 43t74 55.5t81 83q25 31 41 65.5t33.5 68.5t41 61.5t60.5 43.5q57 -25 63 -62.5t-21.5 -81.5t-78.5 -92t-108.5 -95t-112 -89t-84.5 -73q18 -25 62 -73t95.5 -101t98.5 -100.5t71 -65.5q25 -35 26 -65.5t-14.5 -48t-42 -16.5t-57.5 32 q-57 70 -125.5 143.5t-126.5 159.5q-41 59 -55 97t-8 64.5zM414 532.5q6 26.5 29.5 46t57.5 43t74 55.5t81 83q25 31 41 65.5t33.5 68.5t41 61.5t60.5 43.5q57 -25 63 -62.5t-21.5 -81.5t-78.5 -92t-108.5 -95t-112 -89t-84.5 -73q18 -25 62 -73t95.5 -101t98.5 -100.5 t71 -65.5q25 -35 26 -65.5t-14.5 -48t-42 -16.5t-57.5 32q-57 70 -125.5 143.5t-126.5 159.5q-41 59 -55 97t-8 64.5z" />
<glyph unicode="&#xac;" horiz-adv-x="1261" d="M81 905.5q1 28.5 23.5 52t65.5 25.5q156 -14 309.5 -31.5t308.5 -27.5h35t57.5 1t62.5 3t50 2h-12q-6 0 5 3t15 5q23 10 48.5 13t44.5 -17q16 -16 26 -41t14.5 -51.5t6.5 -54t4 -48.5q4 -41 6 -81l4 -80q-2 -43 -25.5 -66t-52 -24t-54.5 18.5t-30 62.5q6 59 17.5 130 t1.5 132q-6 -6 -19 -6q-209 12 -414.5 11t-416.5 -15q-43 4 -62.5 30t-18.5 54.5zM997 930h17h-17z" />
<glyph unicode="&#xad;" horiz-adv-x="733" d="M99 581.5q1 28.5 23.5 52t65.5 25.5q59 -33 124 -38t124.5 0.5t109.5 11.5t81.5 0t41 -35t-13.5 -96q-27 -8 -53.5 -7t-53 6t-54 12t-54.5 9q-66 6 -130 -3t-130 -21q-43 4 -62.5 29.5t-18.5 54z" />
<glyph unicode="&#xae;" d="M40 830q5 69 27.5 135.5t57.5 127t76 103.5q59 63 136 98t161 48.5t168 9.5t159 -19q270 -59 367 -313q29 -78 40 -165t-5 -169q-27 -145 -110 -259t-199.5 -182.5t-255 -86t-275.5 31.5q-82 29 -136 84.5t-92 124t-62.5 147.5t-45.5 154q-16 61 -11 130zM168 820.5 q-2 -72.5 15.5 -148.5t35.5 -158q10 -33 27.5 -72t48.5 -76.5t77 -67.5t113 -44q119 -25 232.5 14t205 118t149.5 184.5t66.5 213t-43 206t-180.5 161.5q-59 27 -122.5 29t-124.5 14q-49 0 -99.5 -1t-97.5 -10t-92 -28.5t-82 -54.5q-72 -68 -99.5 -137.5t-29.5 -142z M379 440q6 43 8 105.5t4 132.5t2 139.5t2 126.5t3 95t5 44h-2q12 27 49 35t85.5 4t101.5 -17t96 -30q55 -20 94 -54t35 -97q-4 -37 -25.5 -71t-58.5 -56q-25 -12 -49 -21.5t-72 -19.5l93 -172q39 -63 51 -81t16 -26q14 -33 -7.5 -50t-53.5 -7l-228 295l-8 6l-2 2l-12 -293 q-27 -8 -52.5 -8t-74.5 18zM504 1028q8 -49 9 -99t5 -104q39 6 76 10.5t65.5 14.5t45 30.5t14.5 59.5q0 31 -28.5 49.5t-64.5 27.5t-72 10t-50 1z" />
<glyph unicode="&#xb0;" horiz-adv-x="780" d="M100 1061q-2 55 18.5 108.5t56.5 95.5t82 70.5t97.5 35.5t101.5 -10.5t93 -66.5q45 -49 75.5 -126.5t31.5 -155.5t-34.5 -140.5t-121.5 -83.5q-115 -25 -189.5 -18.5t-120 42.5t-66 98.5t-24.5 150.5zM208 1019q3 -54 9 -81q8 -47 39 -65.5t72 -13.5t85 27.5t80.5 57.5 t58 76t15.5 81t-44 76.5t-122 61.5q-84 8 -124.5 -27.5t-56 -87t-12.5 -105.5z" />
<glyph unicode="&#xb1;" horiz-adv-x="940" d="M72 568q1 25 20.5 45.5t56.5 21.5q72 -8 142.5 -18t145.5 -12q1 64 -3.5 131t-13.5 145q5 31 24.5 47.5t43 17.5t43.5 -13t29 -45q-12 -80 -19.5 -147t-10.5 -134q62 3 124.5 12t125.5 8q36 -11 49.5 -35t7.5 -48.5t-28 -41.5t-59 -13q-8 3 -23 2.5t-14 7.5l2 2 q-49 9 -95 14.5t-92 8.5q2 -52 5.5 -107t12.5 -117q-2 -37 -22.5 -56t-45 -20t-46.5 15.5t-26 53.5q9 64 16 120t11 111q-71 -2 -141.5 -10t-149.5 -18q-37 3 -54 25t-16 47zM165 78.5q1 28.5 23.5 52t65.5 25.5q70 -16 122 -24.5t99 -9.5t98.5 5.5t122.5 22.5 q37 -10 53.5 -33.5t15.5 -50.5t-20.5 -49.5t-56.5 -28.5q-72 16 -122 25.5t-97 10.5t-98 -6.5t-125 -23.5q-43 4 -62.5 30t-18.5 54.5z" />
<glyph unicode="&#xb2;" horiz-adv-x="688" d="M101 971.5q-1 19.5 15 36.5q-3 -1 0.5 3.5t5.5 7.5q13 13 23 14.5t31 9.5q34 10 67.5 17t69.5 4q47 -4 90.5 -28t67 -64.5t21 -97.5t-46.5 -128q-21 -43 -47.5 -82.5t-52.5 -79.5q-2 -5 -5.5 -10t-7.5 -12q23 -10 42 -18.5t38 -13t42.5 -4.5t56.5 8q36 -10 43 -37 t-11 -47q0 -2 -0.5 -6t-0.5 -7q-5 -18 -26 -21q-37 0 -74.5 4t-74.5 11q-18 4 -35.5 9.5t-35.5 3.5q-26 -1 -51 -6.5t-52 -7.5q-34 -10 -59.5 6.5t-22.5 58.5q0 8 4 17t9 17t9 14t5 8q22 37 59.5 69.5t76 65.5t71.5 68.5t49 79.5q0 1 0.5 1t0.5 1q0 3 2 4q-13 54 -60 85 q-30 -3 -63.5 -3.5t-64.5 -8.5q-16 -11 -28 -13.5t-34 -0.5q-15 6 -22.5 17t-8.5 22q-14 14 -15 33.5z" />
<glyph unicode="&#xb3;" horiz-adv-x="641" d="M9.5 201.5q-5.5 25.5 8.5 66.5q6 10 11.5 15.5t16.5 8.5q13 1 23 -2t19 -7.5t18 -8.5t21 -4q29 0 70.5 14.5t82 38.5t70.5 56t37 66.5t-18 69.5t-95 66l-30 10q-13 -1 -27 1t-26.5 7t-21 11.5t-8.5 14.5q-8 20 7.5 32.5t42 22t57.5 18t55.5 21t35.5 31.5t-4 49 q-6 25 -31.5 37.5t-59.5 17t-67 4t-51 -1.5q-24 2 -35.5 17t-10.5 31q-3 27 -1.5 44t6 26t11.5 13t15 4l134 1q81 -4 130 -31.5t71.5 -63.5t23.5 -73.5t-11 -62.5q-8 -18 -23.5 -29.5t-29.5 -25.5q-14 -13 -28.5 -25.5t-29.5 -21.5q45 -23 76 -61t41 -86.5t-2.5 -106 t-53.5 -118.5q-6 -7 -11 -14t-11 -14q-27 -30 -70 -58t-93 -46.5t-101.5 -22t-92.5 16.5q-10 6 -16 15q-19 12 -24.5 37.5z" />
<glyph unicode="&#xb4;" horiz-adv-x="641" d="M119 1147q2 -29 19 -41t44 2q25 8 69 31.5t90 56.5t86 71t59.5 74.5t8 67.5t-68.5 51q-37 8 -65.5 -1t-52.5 -28.5t-43 -44t-36 -49.5q-2 -4 -20.5 -32.5t-38 -62.5t-35.5 -62.5t-16 -32.5z" />
<glyph unicode="&#xb5;" d="M223 -444q14 139 31.5 226t35 148.5t31 114.5t18.5 129t1 187.5t-25 289.5q-4 41 -6 100.5t2 118t17.5 109.5t41 77.5t71.5 21.5t110 -58l-51 -770q0 -61 24.5 -91t61.5 -37t82 4t87 31.5t73.5 47t43.5 51.5q43 88 61.5 193.5t20.5 214t-9 215t-30 196.5q4 27 20.5 41 t36 15.5t38 -11t26.5 -37.5h2v-2q12 -66 28.5 -140.5t26 -153t7.5 -161.5t-29 -163l57 -502q0 -37 -17 -56.5t-40.5 -21.5t-49.5 15.5t-42 58.5q-8 49 -22.5 98t-24.5 103q-35 -35 -86 -69t-107.5 -59.5t-108.5 -39t-89 -6.5q-29 6 -60 22v-14.5t-2 -16.5q-49 -201 -93 -304 t-79 -142t-57.5 -24.5t-26.5 51.5z" />
<glyph unicode="&#xb6;" d="M138 942q7 100 54.5 181t130 137t195.5 79q45 -8 84 -17t82 -17.5t93 -13.5t119 -6t160 3t216 17q37 -10 53 -34t15 -50.5t-20.5 -49t-55.5 -28.5q-47 6 -103.5 11t-116.5 9v-2l-8 -794q16 -166 18.5 -333t12.5 -335q-2 -43 -25.5 -65.5t-52 -23.5t-54.5 18.5t-30 62.5 q49 190 46 374.5t-22.5 367.5t-40 366.5t-5.5 371.5q-39 2 -75 3.5t-71 1.5q10 -53 3 -112.5t-13 -100.5q-23 -139 -36 -266.5t-17 -251t3 -251.5t25 -270q6 -37 12.5 -73.5t7.5 -73.5t-6 -72t-32 -65q-10 6 -28.5 0.5t-37 -11.5t-35 -6t-22.5 17q-29 68 -36 178t-4 234 t11.5 245t10.5 207q-37 12 -92.5 31.5t-110.5 49t-101 66.5t-65 82q-43 109 -36 209z" />
<glyph unicode="&#xb7;" horiz-adv-x="413" d="M76 648q0 17 8 33.5t22 26.5q2 39 35 63.5t80 8.5q43 21 94 -12q18 -29 18.5 -56.5t-11.5 -50.5l-2.5 -5l-2.5 -5q-2 -8 -2 -14t-4 -13q18 -31 16.5 -61.5t-19 -51t-45 -25.5t-58.5 18q-33 23 -37 59q-29 -4 -55 18q-20 14 -28.5 32t-8.5 35z" />
<glyph unicode="&#xb8;" d="M501 -286.5q1 28.5 23.5 52t65.5 25.5q94 -6 137 -6t45 10t-34 32.5t-101 61.5q-33 20 -51.5 47t-34.5 60q-4 37 11.5 62.5t40 35.5t52 1t50.5 -40q2 -10 2 -21t4 -22q8 -23 30.5 -39t48 -33.5t49 -37t38.5 -47.5q8 -16 9 -37t-7 -37q-23 -47 -53.5 -73.5t-69.5 -42 t-83 -21.5t-91 -15q-43 4 -62.5 30t-18.5 54.5z" />
<glyph unicode="&#xb9;" horiz-adv-x="501" d="M83.5 727q-4.5 17 7.5 37q42 29 64.5 66t41.5 85q2 1 3 2.5t3 2.5q5 16 21 25t40 4q1 0 1.5 -1t1.5 -1q12 -7 16.5 -14t7.5 -20v-8l-11 -109l-1 -19v19l5 -264q0 -14 3.5 -31.5t5 -35.5t0 -35t-10.5 -30q-10 -13 -29 -22.5t-38.5 -11t-35 8t-17.5 34.5l13 157l24 220 q-10 -16 -19 -34t-17 -39q-16 -18 -33 -19.5t-29.5 7.5t-17 26zM290 888q0 5 1 9v-5q0 -1 -0.5 -3t-0.5 -1z" />
<glyph unicode="&#xba;" horiz-adv-x="688" d="M61.5 754q3.5 63 21.5 126t51 116.5t77 80.5q12 6 28 11.5t41.5 6.5t60 -5.5t84.5 -22.5q52 -23 81.5 -60.5t44.5 -84.5t19 -100t5 -107q2 -31 -4 -71.5t-23 -68.5q-26 -41 -58 -69.5t-73 -54.5q-39 -7 -76.5 -9t-69.5 0t-56 7.5t-34 13.5q-26 20 -43 39.5t-28.5 41.5 t-20 47t-17.5 53q-14 47 -10.5 110zM163.5 702q1.5 -33 17 -62t49.5 -49.5t93 -28.5q36 -5 61.5 12t41.5 46t25.5 61.5t13 59t4.5 40.5t2 5q-3 35 -13.5 73t-33.5 66.5t-63.5 42t-105.5 -3.5q-11 -5 -20 -17.5t-15 -28t-11 -29.5t-9 -22q-5 -16 -14.5 -43t-16.5 -58 t-5.5 -64z" />
<glyph unicode="&#xbb;" horiz-adv-x="980" d="M129 936.5q-6 -37.5 21.5 -81.5t78.5 -92t108.5 -95t112 -89t84.5 -73q-18 -25 -62 -73t-95.5 -101t-98.5 -100.5t-71 -65.5q-25 -35 -26 -65.5t14.5 -48t42 -16.5t57.5 32q57 70 125.5 143.5t126.5 159.5q41 59 55 97t8 64.5t-29.5 46t-57.5 43t-74 55.5t-81 83 q-25 31 -41 65.5t-33.5 68.5t-41 61.5t-60.5 43.5q-57 -25 -63 -62.5zM416 936.5q-6 -37.5 21.5 -81.5t78.5 -92t108.5 -95t112 -89t84.5 -73q-18 -25 -62 -73t-95.5 -101t-98.5 -100.5t-71 -65.5q-25 -35 -26 -65.5t14.5 -48t42 -16.5t57.5 32q57 70 125.5 143.5 t126.5 159.5q41 59 55 97t8 64.5t-29.5 46t-57.5 43t-74 55.5t-81 83q-25 31 -41 65.5t-33.5 68.5t-41 61.5t-60.5 43.5q-57 -25 -63 -62.5z" />
<glyph unicode="&#xbc;" horiz-adv-x="1404" d="M119 860q-5 21 9 46q52 35 80 80.5t51 105.5q3 1 3.5 3t3.5 3q6 19 26 30.5t49 4.5q1 0 1.5 -0.5t2.5 -0.5q15 -10 20 -18t9 -25v-9l-14 -135l-1 -23v23l7 -326q0 -17 4 -38.5t6 -44t0 -43.5t-13 -36q-12 -17 -35 -28t-47.5 -13t-43.5 9t-22 43l17 193l30 272 q-14 -20 -24.5 -42.5t-21.5 -48.5q-19 -22 -40 -24t-36.5 9.5t-20.5 32.5zM145 107q10 39 24.5 67.5t37.5 59.5q47 88 98 165.5t102.5 155.5t96.5 159t80 175q14 43 40.5 114.5t62.5 145.5t80 135.5t95 81.5q76 4 87 -38t-42 -120h-2q-68 -141 -147.5 -275t-159.5 -268 t-154.5 -271.5t-132.5 -282.5q-4 -16 -4 -23q-12 -35 -37.5 -50t-51.5 -12t-47.5 23.5t-25.5 57.5zM315 190q-4 29 14 49q1 2 2.5 3t3.5 3q38 52 73.5 106t70.5 108t70.5 108.5t74.5 107.5q7 11 15 23.5t14 22.5q20 32 45 54t49 29.5t44 -2t32 -42t13.5 -89t-13.5 -144.5 q-5 -53 -12 -105t-11 -105q2 -10 3 -19.5t3 -19.5q52 0 75.5 -17.5t26.5 -38t-9.5 -37.5t-31.5 -14h-3q-7 -3 -19 -3t-25 0.5t-25 2t-19 0.5q2 -36 1 -75.5t-5 -78t-8.5 -76t-8.5 -68.5q-2 -3 -3.5 -6.5t-3.5 -5.5q-12 -22 -41 -27h-88q-29 1 -35 18.5t0 41t16.5 48.5 t15.5 41q19 47 28 76t13 48t4 33t-2 29h-16.5t-15.5 -1q-5 0 -12 3l-233 -3q-11 -2 -20.5 -3t-22.5 1q-14 10 -24 24zM373 1058q0 7 1 11v-6q0 -1 -0.5 -3.5t-0.5 -1.5zM492 268q32 -2 63 -2.5t61 -0.5q10 3 16 3h3q9 3 18 4t18 4q1 36 9.5 76t17.5 81t17.5 81t9.5 77l7 36 q-3 -6 -8.5 -16t-11.5 -21.5t-10.5 -22.5t-7.5 -16q-45 -75 -95.5 -145t-106.5 -138z" />
<glyph unicode="&#xbd;" horiz-adv-x="1353" d="M119 860q-5 21 9 46q52 35 80 80.5t51 105.5q3 1 3.5 3t3.5 3q6 19 26 30.5t49 4.5q1 0 1.5 -0.5t2.5 -0.5q15 -10 20 -18t9 -25v-9l-14 -135l-1 -23v23l7 -326q0 -17 4 -38.5t6 -44t0 -43.5t-13 -36q-12 -17 -35 -28t-47.5 -13t-43.5 9t-22 43l17 193l30 272 q-14 -20 -24.5 -42.5t-21.5 -48.5q-19 -22 -40 -24t-36.5 9.5t-20.5 32.5zM145 107q10 39 24.5 67.5t37.5 59.5q47 88 98 165.5t102.5 155.5t96.5 159t80 175q14 43 40.5 114.5t62.5 145.5t80 135.5t95 81.5q76 4 87 -38t-42 -120h-2q-68 -141 -147.5 -275t-159.5 -268 t-154.5 -271.5t-132.5 -282.5q-4 -16 -4 -23q-12 -35 -37.5 -50t-51.5 -12t-47.5 23.5t-25.5 57.5zM373 1058q0 7 1 11v-6q0 -1 -0.5 -3.5t-0.5 -1.5zM535 550q-1 21 17 40q-3 -2 0.5 3.5t6.5 7.5q13 14 24 16t34 11q36 11 72.5 18.5t75.5 3.5q50 -4 97.5 -30t73 -70 t22.5 -105.5t-50 -138.5q-23 -46 -51.5 -89t-56.5 -86q-3 -6 -6.5 -11.5t-7.5 -11.5q25 -11 45 -20.5t41 -14.5t46 -5t61 9q39 -11 46.5 -40.5t-11.5 -50.5q0 -3 -1 -7t-1 -7q-5 -19 -27 -23q-40 0 -80.5 4.5t-80.5 12.5q-20 4 -38.5 10t-38.5 3q-28 -1 -55 -6.5t-57 -8.5 q-37 -11 -64 7t-25 64q0 8 4.5 18t10 18.5t9.5 15t6 8.5q23 40 63.5 75.5t82.5 71t78 73.5t53 86q0 1 0.5 1t0.5 2t2 4q-14 58 -65 91q-32 -2 -68.5 -3t-70.5 -9q-17 -12 -30 -15t-37 0q-15 6 -23.5 18t-9.5 24q-16 15 -17 36z" />
<glyph unicode="&#xbe;" horiz-adv-x="1384" d="M0.5 274q-5.5 25 9.5 67q5 10 11 15.5t17 8.5q13 1 23 -2t19 -7.5t18.5 -8.5t20.5 -4q30 0 72 14.5t83 39t71 56.5t37.5 67t-18 70t-96.5 66l-30 10q-13 -1 -27 1.5t-27 7t-21.5 11.5t-8.5 14q-8 21 7.5 33.5t42.5 22t58.5 18t56 21t35.5 31.5t-4 49q-6 26 -31.5 38.5 t-60 17t-68 4t-51.5 -1.5q-25 2 -36.5 17t-10.5 31q-3 28 -1.5 45t6.5 26t12 13t15 4l135 1q83 -4 132 -32t71.5 -64t24 -74t-10.5 -63q-8 -18 -24 -29.5t-30 -25.5q-14 -13 -28.5 -25.5t-30.5 -22.5q46 -23 77 -61t41.5 -87t-2 -106.5t-54.5 -119.5q-6 -7 -11 -14t-11 -14 q-28 -30 -71.5 -58.5t-94 -47t-102.5 -22t-93 16.5q-10 6 -16 15q-20 13 -25.5 38zM145 107q10 39 24.5 67.5t37.5 59.5q47 88 98 165.5t102.5 155.5t96.5 159t80 175q14 43 40.5 114.5t62.5 145.5t80 135.5t95 81.5q76 4 87 -38t-42 -120h-2q-68 -141 -147.5 -275 t-159.5 -268t-154.5 -271.5t-132.5 -282.5q-4 -16 -4 -23q-12 -35 -37.5 -50t-51.5 -12t-47.5 23.5t-25.5 57.5zM315 190q-4 29 14 49q1 2 2.5 3t3.5 3q38 52 73.5 106t70.5 108t70.5 108.5t74.5 107.5q7 11 15 23.5t14 22.5q20 32 45 54t49 29.5t44 -2t32 -42t13.5 -89 t-13.5 -144.5q-5 -53 -12 -105t-11 -105q2 -10 3 -19.5t3 -19.5q52 0 75.5 -17.5t26.5 -38t-9.5 -37.5t-31.5 -14h-3q-7 -3 -19 -3t-25 0.5t-25 2t-19 0.5q2 -36 1 -75.5t-5 -78t-8.5 -76t-8.5 -68.5q-2 -3 -3.5 -6.5t-3.5 -5.5q-12 -22 -41 -27h-88q-29 1 -35 18.5t0 41 t16.5 48.5t15.5 41q19 47 28 76t13 48t4 33t-2 29h-16.5t-15.5 -1q-5 0 -12 3l-233 -3q-11 -2 -20.5 -3t-22.5 1q-14 10 -24 24zM492 268q32 -2 63 -2.5t61 -0.5q10 3 16 3h3q9 3 18 4t18 4q1 36 9.5 76t17.5 81t17.5 81t9.5 77l7 36q-3 -6 -8.5 -16t-11.5 -21.5 t-10.5 -22.5t-7.5 -16q-45 -75 -95.5 -145t-106.5 -138z" />
<glyph unicode="&#xbf;" horiz-adv-x="946" d="M94 0q-2 66 19.5 120t58.5 99t83 81t93 66.5t89 57t68 51.5q-6 98 -6 160.5t4.5 100.5t9.5 60.5t7 43.5q23 6 49 9t55 5q57 -6 71.5 -34t-1.5 -89q-4 -43 -8 -103.5t-11.5 -120t-18.5 -109.5t-30 -70q-43 -33 -87 -57.5t-87 -51.5t-79.5 -61.5t-63.5 -90.5 q-8 -33 -8 -65.5t11 -61t36.5 -50t64.5 -31.5l25 -7h10q39 2 74 10.5t70 24.5q4 4 8 7t8 8q6 4 8 8l80 76q10 12 27.5 26.5t39 25.5t48 14t57.5 -9q25 -12 33 -35.5t5 -50.5t-14.5 -54.5t-25.5 -48.5q-39 -59 -75 -100t-81 -65.5t-103.5 -34.5t-139.5 -10q-180 0 -273.5 93 t-99.5 263zM493 999q0 16 3 35t15.5 35t39 29.5t71.5 17.5q66 4 91.5 -23.5t25.5 -66.5q0 -14 -3 -32.5t-18.5 -37t-46 -31t-86.5 -14.5q-41 8 -66.5 31t-25.5 57zM604 -105q4 2 7 4.5t-1 0.5q-2 -2 -3 -2.5t-3 -2.5z" />
<glyph unicode="&#xc0;" horiz-adv-x="1394" d="M25 106q137 131 225 287t154.5 324t124 341t130.5 339q0 6 2.5 11t4.5 13l2 -2q10 12 24.5 17.5t25.5 1.5t19 -15.5t6 -29.5q0 -2 -2 -2q20 -16 35 -54q23 -166 71 -334.5t118.5 -330.5t162 -311.5t199.5 -276.5q35 -25 41 -56.5t-8 -57t-45 -36t-70 8.5q-37 27 -78 56.5 t-89 76.5t-103 118.5t-121 186.5q-25 41 -55.5 55.5t-70.5 12t-92 -15.5t-120 -27q-47 -45 -81 -107.5t-65.5 -124t-67.5 -115t-91 -79.5q-33 -41 -79 -32t-60 56q-27 10 -41.5 37t-5.5 65zM543 563q47 4 107.5 11.5t117.5 29.5q-20 43 -30.5 88t-16.5 94.5t-11.5 102.5 t-17.5 112q-20 -68 -34.5 -125t-31 -110t-36 -103.5t-47.5 -99.5zM588.5 1819q11.5 31 68.5 51q37 8 65.5 -1t52.5 -28.5t43 -44t36 -49.5q2 -4 20.5 -32.5t38 -62.5t35.5 -62.5t16 -32.5q-2 -29 -19 -41t-44 2q-25 8 -69 31.5t-90 56.5t-86 71t-59.5 74.5t-8 67.5z" />
<glyph unicode="&#xc1;" horiz-adv-x="1394" d="M25 106q137 131 225 287t154.5 324t124 341t130.5 339q0 6 2.5 11t4.5 13l2 -2q10 12 24.5 17.5t25.5 1.5t19 -15.5t6 -29.5q0 -2 -2 -2q20 -16 35 -54q23 -166 71 -334.5t118.5 -330.5t162 -311.5t199.5 -276.5q35 -25 41 -56.5t-8 -57t-45 -36t-70 8.5q-37 27 -78 56.5 t-89 76.5t-103 118.5t-121 186.5q-25 41 -55.5 55.5t-70.5 12t-92 -15.5t-120 -27q-47 -45 -81 -107.5t-65.5 -124t-67.5 -115t-91 -79.5q-33 -41 -79 -32t-60 56q-27 10 -41.5 37t-5.5 65zM486 1557q2 -29 19 -41t44 2q25 8 69 31.5t90 56.5t86 71t59.5 74.5t8 67.5 t-68.5 51q-37 8 -65.5 -1t-52.5 -28.5t-43 -44t-36 -49.5q-2 -4 -20.5 -32.5t-38 -62.5t-35.5 -62.5t-16 -32.5zM543 563q47 4 107.5 11.5t117.5 29.5q-20 43 -30.5 88t-16.5 94.5t-11.5 102.5t-17.5 112q-20 -68 -34.5 -125t-31 -110t-36 -103.5t-47.5 -99.5z" />
<glyph unicode="&#xc2;" horiz-adv-x="1394" d="M25 106q137 131 225 287t154.5 324t124 341t130.5 339q0 6 2.5 11t4.5 13l2 -2q10 12 24.5 17.5t25.5 1.5t19 -15.5t6 -29.5q0 -2 -2 -2q20 -16 35 -54q23 -166 71 -334.5t118.5 -330.5t162 -311.5t199.5 -276.5q35 -25 41 -56.5t-8 -57t-45 -36t-70 8.5q-37 27 -78 56.5 t-89 76.5t-103 118.5t-121 186.5q-25 41 -55.5 55.5t-70.5 12t-92 -15.5t-120 -27q-47 -45 -81 -107.5t-65.5 -124t-67.5 -115t-91 -79.5q-33 -41 -79 -32t-60 56q-27 10 -41.5 37t-5.5 65zM340.5 1518q-11.5 27 7.5 57q29 47 65.5 62.5t83.5 34.5q63 43 97 79.5t62 52 t63.5 3t107.5 -67.5q31 -33 70 -49t82 -23q43 -47 40 -81.5t-32 -51t-75 -10.5t-85 41q-37 35 -68.5 78t-68.5 80l-195 -219q-25 -29 -57.5 -33t-59 8t-38 39zM543 563q47 4 107.5 11.5t117.5 29.5q-20 43 -30.5 88t-16.5 94.5t-11.5 102.5t-17.5 112q-20 -68 -34.5 -125 t-31 -110t-36 -103.5t-47.5 -99.5z" />
<glyph unicode="&#xc3;" horiz-adv-x="1394" d="M25 106q137 131 225 287t154.5 324t124 341t130.5 339q0 6 2.5 11t4.5 13l2 -2q10 12 24.5 17.5t25.5 1.5t19 -15.5t6 -29.5q0 -2 -2 -2q20 -16 35 -54q23 -166 71 -334.5t118.5 -330.5t162 -311.5t199.5 -276.5q35 -25 41 -56.5t-8 -57t-45 -36t-70 8.5q-37 27 -78 56.5 t-89 76.5t-103 118.5t-121 186.5q-25 41 -55.5 55.5t-70.5 12t-92 -15.5t-120 -27q-47 -45 -81 -107.5t-65.5 -124t-67.5 -115t-91 -79.5q-33 -41 -79 -32t-60 56q-27 10 -41.5 37t-5.5 65zM268 1570.5q4 21.5 21 37.5q0 2 2 4q16 18 49 42t70.5 43.5t77.5 32.5t71 9 q47 -6 75.5 -20.5t51 -35t46.5 -43t60 -42.5q12 -6 36 -4t51.5 17.5t55 44t50.5 73.5q31 27 58.5 20.5t45 -31t17.5 -59.5t-25 -63q-23 -18 -52.5 -47t-64 -50.5t-73.5 -30.5t-82 9q-31 12 -61.5 42t-62.5 57.5t-62.5 45t-59.5 9.5q-35 -10 -60.5 -36t-49 -53.5t-48 -48 t-57.5 -18.5q-31 2 -50.5 17.5t-26.5 36t-3 42zM543 563q47 4 107.5 11.5t117.5 29.5q-20 43 -30.5 88t-16.5 94.5t-11.5 102.5t-17.5 112q-20 -68 -34.5 -125t-31 -110t-36 -103.5t-47.5 -99.5zM874 1618l4 -12q0 -2 -1 2t-2 7z" />
<glyph unicode="&#xc4;" horiz-adv-x="1394" d="M25 106q137 131 225 287t154.5 324t124 341t130.5 339q0 6 2.5 11t4.5 13l2 -2q10 12 24.5 17.5t25.5 1.5t19 -15.5t6 -29.5q0 -2 -2 -2q20 -16 35 -54q23 -166 71 -334.5t118.5 -330.5t162 -311.5t199.5 -276.5q35 -25 41 -56.5t-8 -57t-45 -36t-70 8.5q-37 27 -78 56.5 t-89 76.5t-103 118.5t-121 186.5q-25 41 -55.5 55.5t-70.5 12t-92 -15.5t-120 -27q-47 -45 -81 -107.5t-65.5 -124t-67.5 -115t-91 -79.5q-33 -41 -79 -32t-60 56q-27 10 -41.5 37t-5.5 65zM368 1642q-1 36 16.5 61.5t60.5 21.5q63 49 100 43t50 -43t8 -89t-25.5 -95.5 t-51 -63.5t-67.5 10q-14 8 -18 17q-4 4 -9.5 6t-9.5 6q-23 18 -38 54t-16 72zM543 563q47 4 107.5 11.5t117.5 29.5q-20 43 -30.5 88t-16.5 94.5t-11.5 102.5t-17.5 112q-20 -68 -34.5 -125t-31 -110t-36 -103.5t-47.5 -99.5zM732 1642q-1 36 16.5 61.5t60.5 21.5 q63 49 100 43t50.5 -43t8.5 -89t-25.5 -95.5t-51.5 -63.5t-68 10q-14 8 -18 17q-4 4 -9 6t-9 6q-23 18 -38.5 54t-16.5 72z" />
<glyph unicode="&#xc5;" horiz-adv-x="1394" d="M25 106q137 131 225 287t154.5 324t124 341t130.5 339q0 6 2.5 11t4.5 13l2 -2q10 12 24.5 17.5t25.5 1.5t19 -15.5t6 -29.5q0 -2 -2 -2q20 -16 35 -54q23 -166 71 -334.5t118.5 -330.5t162 -311.5t199.5 -276.5q35 -25 41 -56.5t-8 -57t-45 -36t-70 8.5q-37 27 -78 56.5 t-89 76.5t-103 118.5t-121 186.5q-25 41 -55.5 55.5t-70.5 12t-92 -15.5t-120 -27q-47 -45 -81 -107.5t-65.5 -124t-67.5 -115t-91 -79.5q-33 -41 -79 -32t-60 56q-27 10 -41.5 37t-5.5 65zM432 1654q6 31 20 47q0 29 16.5 49.5t39.5 39.5q72 55 157.5 55t152 -41 t96.5 -112.5t-11 -159.5q-10 -23 -14.5 -46.5t-20.5 -46.5q-33 -47 -82 -63.5t-101 -11t-103.5 32t-89.5 65.5t-55 89t-5 103zM520 1695q6 4 14 7.5t13 5.5v8q-6 -6 -13.5 -11.5t-13.5 -9.5zM524 1669q0 -20 3 -49t9 -57.5t16.5 -52.5t24.5 -32q104 -53 163.5 -36.5t81 65.5 t8.5 114.5t-51 109.5t-97 49.5t-133 -64.5q-6 -16 -13.5 -26.5t-11.5 -20.5zM543 563q47 4 107.5 11.5t117.5 29.5q-20 43 -30.5 88t-16.5 94.5t-11.5 102.5t-17.5 112q-20 -68 -34.5 -125t-31 -110t-36 -103.5t-47.5 -99.5z" />
<glyph unicode="&#xc6;" horiz-adv-x="2484" d="M25 106q113 166 193.5 323t154 307.5t152.5 298t188 296.5q4 31 47 54.5t91 39t86 20.5t32 -5l-21 37q4 -78 4 -198t-5 -252t-17 -262t-31.5 -225.5t-45 -143.5t-60.5 -15q-25 41 -49.5 55.5t-56.5 13.5t-77 -13.5t-112 -26.5q-59 -86 -110.5 -179.5t-86.5 -189.5 q-14 -35 -38.5 -50.5t-51.5 -10.5q-33 -41 -79 -32t-60 56q-27 10 -41.5 37t-5.5 65zM514 551q47 4 104.5 3t114.5 21q-2 59 4 118t12.5 117t9.5 113.5t-5 108.5q-25 -49 -54.5 -111.5t-61.5 -128t-63.5 -129t-60.5 -112.5zM754.5 857q17.5 364 64.5 568l813 23 q47 -4 74 -41t32 -79t-11.5 -75.5t-53.5 -33.5q-82 -10 -158.5 -11.5t-156.5 1.5t-165 7.5t-183 8.5q8 -16 6 -62.5t-6 -105t-8.5 -121t-0.5 -113.5q68 -4 125.5 -4t109.5 1t104.5 0t113.5 -7q45 -8 61.5 -42t11.5 -70.5t-27.5 -64.5t-55.5 -22q-53 -8 -120 -7t-132.5 3 t-120.5 1t-84 -11q-8 -78 -10 -165t-12 -185q0 -6 -4 -19q4 0 6 -2q86 -8 154.5 -11t133 -3t128 3t139.5 9q90 8 127 1t48 -27.5t12 -55t20 -82.5q0 -43 -41 -51q-63 -12 -136 -13t-137 -3q-70 0 -153.5 2t-170.5 4t-171 4t-154 0q-29 487 -11.5 851z" />
<glyph unicode="&#xc7;" horiz-adv-x="1167" d="M45 759q12 165 90 309t202 239.5t284.5 127t341.5 -29.5q45 -16 76.5 -53t42 -80t-4 -86t-61.5 -70q-59 -12 -94 20.5t-29 75.5q-4 2 -10 4.5t-11 6.5q-47 33 -103 40t-114.5 -4.5t-112 -38t-91.5 -57.5q-63 -49 -105.5 -122.5t-62 -159.5t-16.5 -177.5t30 -173 t75 -148.5t120.5 -103.5t168 -36.5t213.5 49q12 10 25.5 17t26.5 11q18 33 46.5 43.5t57.5 4t53.5 -25.5t34.5 -46q10 -35 4 -60.5t-22 -56.5q-37 -76 -93.5 -122t-126 -67.5t-146.5 -20.5t-153.5 18.5t-147.5 49.5t-128 73q-152 145 -212 315t-48 335zM411 -286.5 q1 28.5 23.5 52t65.5 25.5q94 -6 137 -6t45 10t-34 32.5t-101 61.5q-33 20 -51.5 47t-34.5 60q-4 37 11.5 62.5t40 35.5t52 1t50.5 -40q2 -10 2 -21t4 -22q8 -23 30.5 -39t48 -33.5t49 -37t38.5 -47.5q8 -16 9 -37t-7 -37q-23 -47 -53.5 -73.5t-69.5 -42t-83 -21.5t-91 -15 q-43 4 -62.5 30t-18.5 54.5z" />
<glyph unicode="&#xc8;" horiz-adv-x="1089" d="M56.5 857q17.5 364 64.5 568l813 23q47 -4 73.5 -41t31.5 -79t-11 -75.5t-53 -33.5q-82 -10 -159 -11.5t-156.5 1.5t-164.5 7.5t-184 8.5q8 -16 6 -62.5t-6 -105t-8 -121t0 -113.5q68 -4 125 -4t109.5 1t104.5 0t114 -7q45 -8 61.5 -42t11 -70.5t-28 -64.5t-55.5 -22 q-53 -8 -119.5 -7t-132 3t-121 1t-83.5 -11q-8 -78 -10.5 -165t-12.5 -185q0 -6 -4 -19q4 0 6 -2q86 -8 155 -11t133.5 -3t128 3t138.5 9q90 8 127 1t48.5 -27.5t12.5 -55t19 -82.5q0 -43 -41 -51q-63 -12 -136 -13t-136 -3q-70 0 -154 2t-171 4t-170.5 4t-153.5 0 q-29 487 -11.5 851zM355.5 1819q11.5 31 68.5 51q37 8 65.5 -1t52.5 -28.5t43 -44t36 -49.5q2 -4 20.5 -32.5t38 -62.5t35.5 -62.5t16 -32.5q-2 -29 -19 -41t-44 2q-25 8 -69 31.5t-90 56.5t-86 71t-59.5 74.5t-8 67.5z" />
<glyph unicode="&#xc9;" horiz-adv-x="1089" d="M56.5 857q17.5 364 64.5 568l813 23q47 -4 73.5 -41t31.5 -79t-11 -75.5t-53 -33.5q-82 -10 -159 -11.5t-156.5 1.5t-164.5 7.5t-184 8.5q8 -16 6 -62.5t-6 -105t-8 -121t0 -113.5q68 -4 125 -4t109.5 1t104.5 0t114 -7q45 -8 61.5 -42t11 -70.5t-28 -64.5t-55.5 -22 q-53 -8 -119.5 -7t-132 3t-121 1t-83.5 -11q-8 -78 -10.5 -165t-12.5 -185q0 -6 -4 -19q4 0 6 -2q86 -8 155 -11t133.5 -3t128 3t138.5 9q90 8 127 1t48.5 -27.5t12.5 -55t19 -82.5q0 -43 -41 -51q-63 -12 -136 -13t-136 -3q-70 0 -154 2t-171 4t-170.5 4t-153.5 0 q-29 487 -11.5 851zM498 1557q2 -29 19 -41t44 2q25 8 69 31.5t90 56.5t86 71t59.5 74.5t8 67.5t-68.5 51q-37 8 -65.5 -1t-52.5 -28.5t-43 -44t-36 -49.5q-2 -4 -20.5 -32.5t-38 -62.5t-35.5 -62.5t-16 -32.5z" />
<glyph unicode="&#xca;" horiz-adv-x="1089" d="M56.5 857q17.5 364 64.5 568l813 23q47 -4 73.5 -41t31.5 -79t-11 -75.5t-53 -33.5q-82 -10 -159 -11.5t-156.5 1.5t-164.5 7.5t-184 8.5q8 -16 6 -62.5t-6 -105t-8 -121t0 -113.5q68 -4 125 -4t109.5 1t104.5 0t114 -7q45 -8 61.5 -42t11 -70.5t-28 -64.5t-55.5 -22 q-53 -8 -119.5 -7t-132 3t-121 1t-83.5 -11q-8 -78 -10.5 -165t-12.5 -185q0 -6 -4 -19q4 0 6 -2q86 -8 155 -11t133.5 -3t128 3t138.5 9q90 8 127 1t48.5 -27.5t12.5 -55t19 -82.5q0 -43 -41 -51q-63 -12 -136 -13t-136 -3q-70 0 -154 2t-171 4t-170.5 4t-153.5 0 q-29 487 -11.5 851zM193.5 1554q-11.5 27 7.5 57q29 47 65.5 62.5t83.5 34.5q63 43 97 79.5t62 52t63.5 3t107.5 -67.5q31 -33 70 -49t82 -23q43 -47 40 -81.5t-32 -51t-75 -10.5t-85 41q-37 35 -68.5 78t-68.5 80l-195 -219q-25 -29 -57.5 -33t-59 8t-38 39z" />
<glyph unicode="&#xcb;" horiz-adv-x="1089" d="M56.5 857q17.5 364 64.5 568l813 23q47 -4 73.5 -41t31.5 -79t-11 -75.5t-53 -33.5q-82 -10 -159 -11.5t-156.5 1.5t-164.5 7.5t-184 8.5q8 -16 6 -62.5t-6 -105t-8 -121t0 -113.5q68 -4 125 -4t109.5 1t104.5 0t114 -7q45 -8 61.5 -42t11 -70.5t-28 -64.5t-55.5 -22 q-53 -8 -119.5 -7t-132 3t-121 1t-83.5 -11q-8 -78 -10.5 -165t-12.5 -185q0 -6 -4 -19q4 0 6 -2q86 -8 155 -11t133.5 -3t128 3t138.5 9q90 8 127 1t48.5 -27.5t12.5 -55t19 -82.5q0 -43 -41 -51q-63 -12 -136 -13t-136 -3q-70 0 -154 2t-171 4t-170.5 4t-153.5 0 q-29 487 -11.5 851zM216 1683q-1 36 16.5 61.5t60.5 21.5q63 49 100 43t50 -43t8 -89t-25.5 -95.5t-51 -63.5t-67.5 10q-14 8 -18 17q-4 4 -9.5 6t-9.5 6q-23 18 -38 54t-16 72zM580 1683q-1 36 16.5 61.5t60.5 21.5q63 49 100 43t50.5 -43t8.5 -89t-25.5 -95.5t-51.5 -63.5 t-68 10q-14 8 -18 17q-4 4 -9 6t-9 6q-23 18 -38.5 54t-16.5 72z" />
<glyph unicode="&#xcc;" horiz-adv-x="413" d="M78 1096.5q0 183.5 24 341.5q14 20 52.5 29.5t79 9.5t74.5 -5.5t40 -9.5q-16 -147 -14 -323t5 -365.5t0 -380t-26 -364.5q-2 -18 -28.5 -36t-57 -26t-57.5 -1t-29 40q-6 158 -22.5 342t-28.5 374.5t-12 374zM103.5 1819q11.5 31 68.5 51q37 8 65.5 -1t52.5 -28.5t43 -44 t36 -49.5q2 -4 20.5 -32.5t38 -62.5t35.5 -62.5t16 -32.5q-2 -29 -19 -41t-44 2q-25 8 -69 31.5t-90 56.5t-86 71t-59.5 74.5t-8 67.5z" />
<glyph unicode="&#xcd;" horiz-adv-x="413" d="M78 1096.5q0 183.5 24 341.5q14 20 52.5 29.5t79 9.5t74.5 -5.5t40 -9.5q-16 -147 -14 -323t5 -365.5t0 -380t-26 -364.5q-2 -18 -28.5 -36t-57 -26t-57.5 -1t-29 40q-6 158 -22.5 342t-28.5 374.5t-12 374zM160 1557q2 -29 19 -41t44 2q25 8 69 31.5t90 56.5t86 71 t59.5 74.5t8 67.5t-68.5 51q-37 8 -65.5 -1t-52.5 -28.5t-43 -44t-36 -49.5q-2 -4 -20.5 -32.5t-38 -62.5t-35.5 -62.5t-16 -32.5z" />
<glyph unicode="&#xce;" horiz-adv-x="413" d="M-124.5 1440q-11.5 27 7.5 57q29 47 65.5 62.5t83.5 34.5q63 43 97 79.5t62 52t63.5 3t107.5 -67.5q31 -33 70 -49t82 -23q43 -47 40 -81.5t-32 -51t-75 -10.5t-85 41q-37 35 -68.5 78t-68.5 80l-195 -219q-25 -29 -57.5 -33t-59 8t-38 39zM78 1096.5q0 183.5 24 341.5 q14 20 52.5 29.5t79 9.5t74.5 -5.5t40 -9.5q-16 -147 -14 -323t5 -365.5t0 -380t-26 -364.5q-2 -18 -28.5 -36t-57 -26t-57.5 -1t-29 40q-6 158 -22.5 342t-28.5 374.5t-12 374z" />
<glyph unicode="&#xcf;" horiz-adv-x="413" d="M-118 1642q-1 36 16.5 61.5t60.5 21.5q63 49 100 43t50 -43t8 -89t-25.5 -95.5t-51 -63.5t-67.5 10q-14 8 -18 17q-4 4 -9.5 6t-9.5 6q-23 18 -38 54t-16 72zM78 1096.5q0 183.5 24 341.5q14 20 52.5 29.5t79 9.5t74.5 -5.5t40 -9.5q-16 -147 -14 -323t5 -365.5t0 -380 t-26 -364.5q-2 -18 -28.5 -36t-57 -26t-57.5 -1t-29 40q-6 158 -22.5 342t-28.5 374.5t-12 374zM246 1642q-1 36 16.5 61.5t60.5 21.5q63 49 100 43t50.5 -43t8.5 -89t-25.5 -95.5t-51.5 -63.5t-68 10q-14 8 -18 17q-4 4 -9 6t-9 6q-23 18 -38.5 54t-16.5 72z" />
<glyph unicode="&#xd0;" horiz-adv-x="1136" d="M49 202q-8 36 4 64q4 4 25.5 20.5t42.5 30.5q74 70 101.5 168.5t26.5 205t-24.5 210t-52.5 186.5q-4 14 -5 27.5t-5 24.5v-2q-4 -8 -6 3t-4 17q-16 12 -24.5 19.5t-21.5 21.5q-35 23 -46 55.5t3 61.5q-8 37 14.5 70.5t76.5 39.5q137 18 277 3t261 -70t213 -150.5 t133 -236.5q20 -70 28.5 -149t5.5 -158.5t-18.5 -156.5t-41.5 -145q-29 -72 -78 -129t-110.5 -102t-130 -79t-134.5 -56q-129 -43 -235 -23q-10 -4 -27 -8q-2 0 -4 -2t-6 -4q-63 6 -90 47l-37 21q-18 14 -42 42.5t-42.5 62.5t-26.5 70zM97 704.5q1 28.5 23.5 52t65.5 25.5 q59 -33 124 -38t124.5 0.5t109.5 11.5t81.5 0t41 -35t-13.5 -96q-27 -8 -53.5 -7.5t-53 6t-54 12.5t-54.5 9q-66 6 -130 -3t-130 -21q-43 4 -62.5 29.5t-18.5 54zM154 1165q2 -4 4 -7t4 -7q-4 10 -6 14t-2 0zM311 207q106 -31 199.5 -10.5t166.5 77t120 140.5t64.5 179 t1 194.5t-75 186.5t-160 154.5t-254.5 98.5q33 -123 51 -252t15 -260t-34 -259t-94 -249z" />
<glyph unicode="&#xd1;" horiz-adv-x="1153" d="M74 23q31 156 39 319.5t8 328.5t-2 328.5t8 323.5q2 59 26.5 88t58.5 36t69.5 0t62.5 -20q29 -2 41 -18t23 -31q53 -125 96 -226t82 -191.5t77.5 -177.5t84.5 -181q8 -20 17 -39.5t17 -38.5q18 88 13.5 201t-13 227.5t-8.5 223t27 188.5q18 55 71.5 82t163.5 10 q2 -18 -3 -94t-13 -187.5t-14.5 -249t-8.5 -276.5t4.5 -269t24.5 -230q6 -35 -7 -70t-39 -58.5t-61.5 -31.5t-72.5 12q-12 8 -41 63.5t-67 139.5t-83 189.5t-89 214t-86 211t-74.5 181t-53 126t-22.5 44.5q0 -141 6 -255.5t11 -225t6 -227.5t-7 -262q-4 -74 -20.5 -131.5 t-48 -85t-81 -21.5t-122.5 60zM147 1570.5q4 21.5 21 37.5q0 2 2 4q16 18 49 42t70.5 43.5t77.5 32.5t71 9q47 -6 75.5 -20.5t51 -35t46.5 -43t60 -42.5q12 -6 36 -4t51.5 17.5t55 44t50.5 73.5q31 27 58.5 20.5t45 -31t17.5 -59.5t-25 -63q-23 -18 -52.5 -47t-64 -50.5 t-73.5 -30.5t-82 9q-31 12 -61.5 42t-62.5 57.5t-62.5 45t-59.5 9.5q-35 -10 -60.5 -36t-49 -53.5t-48 -48t-57.5 -18.5q-31 2 -50.5 17.5t-26.5 36t-3 42zM753 1618l4 -12q0 -2 -1 2t-2 7z" />
<glyph unicode="&#xd2;" horiz-adv-x="1085" d="M37 713q8 162 24.5 277.5t42 195.5t61.5 130t84 78.5t109.5 42t137.5 19.5q156 0 265 -85t176 -217t92.5 -294t13 -318.5t-59.5 -287.5t-127 -203q-39 -37 -101.5 -55.5t-131 -23.5t-135 1.5t-113.5 18.5q-94 27 -154.5 73t-96.5 105t-53.5 128t-23.5 140.5t-6 142.5 t-4 132zM240.5 704.5q7.5 -106.5 33 -208t63.5 -179t86 -122.5t99 -39q49 6 86 34.5t63.5 68.5t45 86t33.5 87q12 37 18 111.5t5 167t-12 190.5t-33.5 178t-57.5 132.5t-86 54.5q-104 2 -174 -45t-110 -127t-53.5 -181.5t-6 -208zM433.5 1819q11.5 31 68.5 51q37 8 65.5 -1 t52.5 -28.5t43 -44t36 -49.5q2 -4 20.5 -32.5t38 -62.5t35.5 -62.5t16 -32.5q-2 -29 -19 -41t-44 2q-25 8 -69 31.5t-90 56.5t-86 71t-59.5 74.5t-8 67.5z" />
<glyph unicode="&#xd3;" horiz-adv-x="1085" d="M37 713q8 162 24.5 277.5t42 195.5t61.5 130t84 78.5t109.5 42t137.5 19.5q156 0 265 -85t176 -217t92.5 -294t13 -318.5t-59.5 -287.5t-127 -203q-39 -37 -101.5 -55.5t-131 -23.5t-135 1.5t-113.5 18.5q-94 27 -154.5 73t-96.5 105t-53.5 128t-23.5 140.5t-6 142.5 t-4 132zM240.5 704.5q7.5 -106.5 33 -208t63.5 -179t86 -122.5t99 -39q49 6 86 34.5t63.5 68.5t45 86t33.5 87q12 37 18 111.5t5 167t-12 190.5t-33.5 178t-57.5 132.5t-86 54.5q-104 2 -174 -45t-110 -127t-53.5 -181.5t-6 -208zM576 1557q2 -29 19 -41t44 2q25 8 69 31.5 t90 56.5t86 71t59.5 74.5t8 67.5t-68.5 51q-37 8 -65.5 -1t-52.5 -28.5t-43 -44t-36 -49.5q-2 -4 -20.5 -32.5t-38 -62.5t-35.5 -62.5t-16 -32.5z" />
<glyph unicode="&#xd4;" horiz-adv-x="1085" d="M37 713q8 162 24.5 277.5t42 195.5t61.5 130t84 78.5t109.5 42t137.5 19.5q156 0 265 -85t176 -217t92.5 -294t13 -318.5t-59.5 -287.5t-127 -203q-39 -37 -101.5 -55.5t-131 -23.5t-135 1.5t-113.5 18.5q-94 27 -154.5 73t-96.5 105t-53.5 128t-23.5 140.5t-6 142.5 t-4 132zM191.5 1524q-11.5 27 7.5 57q29 47 65.5 62.5t83.5 34.5q63 43 97 79.5t62 52t63.5 3t107.5 -67.5q31 -33 70 -49t82 -23q43 -47 40 -81.5t-32 -51t-75 -10.5t-85 41q-37 35 -68.5 78t-68.5 80l-195 -219q-25 -29 -57.5 -33t-59 8t-38 39zM240.5 704.5 q7.5 -106.5 33 -208t63.5 -179t86 -122.5t99 -39q49 6 86 34.5t63.5 68.5t45 86t33.5 87q12 37 18 111.5t5 167t-12 190.5t-33.5 178t-57.5 132.5t-86 54.5q-104 2 -174 -45t-110 -127t-53.5 -181.5t-6 -208z" />
<glyph unicode="&#xd5;" horiz-adv-x="1085" d="M37 713q8 162 24.5 277.5t42 195.5t61.5 130t84 78.5t109.5 42t137.5 19.5q156 0 265 -85t176 -217t92.5 -294t13 -318.5t-59.5 -287.5t-127 -203q-39 -37 -101.5 -55.5t-131 -23.5t-135 1.5t-113.5 18.5q-94 27 -154.5 73t-96.5 105t-53.5 128t-23.5 140.5t-6 142.5 t-4 132zM115 1570.5q4 21.5 21 37.5q0 2 2 4q16 18 49 42t70.5 43.5t77.5 32.5t71 9q47 -6 75.5 -20.5t51 -35t46.5 -43t60 -42.5q12 -6 36 -4t51.5 17.5t55 44t50.5 73.5q31 27 58.5 20.5t45 -31t17.5 -59.5t-25 -63q-23 -18 -52.5 -47t-64 -50.5t-73.5 -30.5t-82 9 q-31 12 -61.5 42t-62.5 57.5t-62.5 45t-59.5 9.5q-35 -10 -60.5 -36t-49 -53.5t-48 -48t-57.5 -18.5q-31 2 -50.5 17.5t-26.5 36t-3 42zM240.5 704.5q7.5 -106.5 33 -208t63.5 -179t86 -122.5t99 -39q49 6 86 34.5t63.5 68.5t45 86t33.5 87q12 37 18 111.5t5 167t-12 190.5 t-33.5 178t-57.5 132.5t-86 54.5q-104 2 -174 -45t-110 -127t-53.5 -181.5t-6 -208zM721 1618l4 -12q0 -2 -1 2t-2 7z" />
<glyph unicode="&#xd6;" horiz-adv-x="1085" d="M37 713q8 162 24.5 277.5t42 195.5t61.5 130t84 78.5t109.5 42t137.5 19.5q156 0 265 -85t176 -217t92.5 -294t13 -318.5t-59.5 -287.5t-127 -203q-39 -37 -101.5 -55.5t-131 -23.5t-135 1.5t-113.5 18.5q-94 27 -154.5 73t-96.5 105t-53.5 128t-23.5 140.5t-6 142.5 t-4 132zM214 1642q-1 36 16.5 61.5t60.5 21.5q63 49 100 43t50 -43t8 -89t-25.5 -95.5t-51 -63.5t-67.5 10q-14 8 -18 17q-4 4 -9.5 6t-9.5 6q-23 18 -38 54t-16 72zM240.5 704.5q7.5 -106.5 33 -208t63.5 -179t86 -122.5t99 -39q49 6 86 34.5t63.5 68.5t45 86t33.5 87 q12 37 18 111.5t5 167t-12 190.5t-33.5 178t-57.5 132.5t-86 54.5q-104 2 -174 -45t-110 -127t-53.5 -181.5t-6 -208zM578 1642q-1 36 16.5 61.5t60.5 21.5q63 49 100 43t50.5 -43t8.5 -89t-25.5 -95.5t-51.5 -63.5t-68 10q-14 8 -18 17q-4 4 -9 6t-9 6q-23 18 -38.5 54 t-16.5 72z" />
<glyph unicode="&#xd7;" d="M260 318.5q4 31.5 39 58.5q57 72 129 149.5t131 153.5q-8 6 -20 22q-59 66 -124 128.5t-130 123.5q-16 31 -13 56q0 39 32 64.5t83 10.5q20 -16 53 -59t70 -95t75 -106.5t70 -91.5l291 301q27 18 55.5 11t46 -27.5t16.5 -47t-34 -46.5q-2 0 -3 -1t-3 -1 q-35 -29 -74 -56.5t-77.5 -58.5t-73.5 -64.5t-60 -72.5q2 -4 2 -8.5t2 -8.5l7 -4v-2q63 -57 118.5 -129t126.5 -129q29 -25 28 -66.5t-48 -70.5q-47 -10 -76 8.5t-51 61.5q-35 59 -93.5 113t-129.5 114q-8 -10 -12.5 -18.5t-10.5 -14.5q-27 -29 -52.5 -63.5t-53 -67.5 t-57 -62.5t-66.5 -48.5q-33 -33 -61.5 -30.5t-42 23t-9.5 52zM307 383l2 2z" />
<glyph unicode="&#xd8;" horiz-adv-x="1085" d="M37 713q8 162 24.5 277.5t42 195.5t61.5 130t84 78.5t109.5 42t137.5 19.5q156 0 265 -85t176 -217t92.5 -294t13 -318.5t-59.5 -287.5t-127 -203q-39 -37 -101.5 -55.5t-131 -23.5t-135 1.5t-113.5 18.5q-94 27 -154.5 73t-96.5 105t-53.5 128t-23.5 140.5t-6 142.5 t-4 132zM133 86q10 39 24.5 67.5t37.5 59.5q47 88 98 165.5t102.5 155.5t96.5 159t80 175q14 43 40.5 114.5t62.5 145.5t80 135.5t95 81.5q76 4 87 -38t-42 -120h-2q-68 -141 -147.5 -275t-159.5 -268t-154.5 -271.5t-132.5 -282.5q-4 -16 -4 -23q-12 -35 -37.5 -50 t-51.5 -12t-47.5 23.5t-25.5 57.5zM240.5 704.5q7.5 -106.5 33 -208t63.5 -179t86 -122.5t99 -39q49 6 86 34.5t63.5 68.5t45 86t33.5 87q12 37 18 111.5t5 167t-12 190.5t-33.5 178t-57.5 132.5t-86 54.5q-104 2 -174 -45t-110 -127t-53.5 -181.5t-6 -208z" />
<glyph unicode="&#xd9;" horiz-adv-x="1028" d="M66 621l14 776q0 31 33.5 43t75.5 9t81 -20.5t52 -50.5q0 -135 -1.5 -249.5t1 -226t9.5 -226.5t23 -250q6 -39 9.5 -74t14.5 -64.5t35.5 -50t71.5 -28.5q47 -10 99.5 -4t91.5 26q53 31 64.5 89.5t15.5 119.5q8 115 1 239t-18.5 248t-18.5 242.5t3 225.5q39 53 99.5 64 t125.5 -48q12 -145 17.5 -269t7.5 -228.5t2 -189.5t2 -155q2 -45 -2 -123.5t-17 -156.5q-6 -43 -22 -87t-76 -106q-31 -35 -61.5 -50t-77.5 -26q-72 -16 -153 -20t-152 4q-84 10 -143.5 44t-100.5 112q-27 51 -46.5 113.5t-31.5 126t-19 121t-9 100.5zM404.5 1819 q11.5 31 68.5 51q37 8 65.5 -1t52.5 -28.5t43 -44t36 -49.5q2 -4 20.5 -32.5t38 -62.5t35.5 -62.5t16 -32.5q-2 -29 -19 -41t-44 2q-25 8 -69 31.5t-90 56.5t-86 71t-59.5 74.5t-8 67.5z" />
<glyph unicode="&#xda;" horiz-adv-x="1028" d="M66 621l14 776q0 31 33.5 43t75.5 9t81 -20.5t52 -50.5q0 -135 -1.5 -249.5t1 -226t9.5 -226.5t23 -250q6 -39 9.5 -74t14.5 -64.5t35.5 -50t71.5 -28.5q47 -10 99.5 -4t91.5 26q53 31 64.5 89.5t15.5 119.5q8 115 1 239t-18.5 248t-18.5 242.5t3 225.5q39 53 99.5 64 t125.5 -48q12 -145 17.5 -269t7.5 -228.5t2 -189.5t2 -155q2 -45 -2 -123.5t-17 -156.5q-6 -43 -22 -87t-76 -106q-31 -35 -61.5 -50t-77.5 -26q-72 -16 -153 -20t-152 4q-84 10 -143.5 44t-100.5 112q-27 51 -46.5 113.5t-31.5 126t-19 121t-9 100.5zM445 1557 q2 -29 19 -41t44 2q25 8 69 31.5t90 56.5t86 71t59.5 74.5t8 67.5t-68.5 51q-37 8 -65.5 -1t-52.5 -28.5t-43 -44t-36 -49.5q-2 -4 -20.5 -32.5t-38 -62.5t-35.5 -62.5t-16 -32.5z" />
<glyph unicode="&#xdb;" horiz-adv-x="1028" d="M66 621l14 776q0 31 33.5 43t75.5 9t81 -20.5t52 -50.5q0 -135 -1.5 -249.5t1 -226t9.5 -226.5t23 -250q6 -39 9.5 -74t14.5 -64.5t35.5 -50t71.5 -28.5q47 -10 99.5 -4t91.5 26q53 31 64.5 89.5t15.5 119.5q8 115 1 239t-18.5 248t-18.5 242.5t3 225.5q39 53 99.5 64 t125.5 -48q12 -145 17.5 -269t7.5 -228.5t2 -189.5t2 -155q2 -45 -2 -123.5t-17 -156.5q-6 -43 -22 -87t-76 -106q-31 -35 -61.5 -50t-77.5 -26q-72 -16 -153 -20t-152 4q-84 10 -143.5 44t-100.5 112q-27 51 -46.5 113.5t-31.5 126t-19 121t-9 100.5zM162.5 1532 q-11.5 27 7.5 57q29 47 65.5 62.5t83.5 34.5q63 43 97 79.5t62 52t63.5 3t107.5 -67.5q31 -33 70 -49t82 -23q43 -47 40 -81.5t-32 -51t-75 -10.5t-85 41q-37 35 -68.5 78t-68.5 80l-195 -219q-25 -29 -57.5 -33t-59 8t-38 39z" />
<glyph unicode="&#xdc;" horiz-adv-x="1028" d="M66 621l14 776q0 31 33.5 43t75.5 9t81 -20.5t52 -50.5q0 -135 -1.5 -249.5t1 -226t9.5 -226.5t23 -250q6 -39 9.5 -74t14.5 -64.5t35.5 -50t71.5 -28.5q47 -10 99.5 -4t91.5 26q53 31 64.5 89.5t15.5 119.5q8 115 1 239t-18.5 248t-18.5 242.5t3 225.5q39 53 99.5 64 t125.5 -48q12 -145 17.5 -269t7.5 -228.5t2 -189.5t2 -155q2 -45 -2 -123.5t-17 -156.5q-6 -43 -22 -87t-76 -106q-31 -35 -61.5 -50t-77.5 -26q-72 -16 -153 -20t-152 4q-84 10 -143.5 44t-100.5 112q-27 51 -46.5 113.5t-31.5 126t-19 121t-9 100.5zM186 1642 q-1 36 16.5 61.5t60.5 21.5q63 49 100 43t50 -43t8 -89t-25.5 -95.5t-51 -63.5t-67.5 10q-14 8 -18 17q-4 4 -9.5 6t-9.5 6q-23 18 -38 54t-16 72zM550 1642q-1 36 16.5 61.5t60.5 21.5q63 49 100 43t50.5 -43t8.5 -89t-25.5 -95.5t-51.5 -63.5t-68 10q-14 8 -18 17 q-4 4 -9 6t-9 6q-23 18 -38.5 54t-16.5 72z" />
<glyph unicode="&#xdd;" horiz-adv-x="1044" d="M18 1380q6 27 24.5 46.5t43.5 27.5t51.5 1t46.5 -34q68 -84 103 -146.5t62.5 -115.5t59 -101t95.5 -102q88 135 145.5 222.5t94 138.5t58 74.5t36.5 33.5q14 6 36.5 11.5t46 3.5t41 -17.5t19.5 -52.5q2 -41 -24.5 -98.5t-68.5 -123t-91 -134t-93.5 -132t-74 -116.5 t-31.5 -88q-6 -80 -2 -163l8 -166t4 -167t-14 -166q-4 -20 -37 -30.5t-70.5 -5t-68.5 27t-29 64.5q10 125 15.5 279.5t21.5 344.5l-6 13q-31 53 -87.5 133t-115.5 162.5t-109.5 159.5t-68.5 124q-6 12 -15.5 41t-5.5 51zM453 1557q2 -29 19 -41t44 2q25 8 69 31.5t90 56.5 t86 71t59.5 74.5t8 67.5t-68.5 51q-37 8 -65.5 -1t-52.5 -28.5t-43 -44t-36 -49.5q-2 -4 -20.5 -32.5t-38 -62.5t-35.5 -62.5t-16 -32.5z" />
<glyph unicode="&#xde;" horiz-adv-x="1032" d="M131 623q0 72 3 163t10.5 183t18.5 174t27 137q6 37 29 56.5t49.5 20.5t50 -15.5t33.5 -53.5q0 -63 3 -124.5t7 -123.5q55 10 118 10.5t125.5 -12t120.5 -40t101 -72.5q76 -78 97.5 -174.5t-3 -183.5t-92 -153.5t-170.5 -84.5q-37 -6 -78.5 -5t-84.5 2t-84 -3.5 t-76 -22.5q0 -8 -1 -15t-1 -16q10 -49 9 -132t-30 -161q-16 -35 -61 -30l-8 2l-51 45q-12 14 -21.5 59t-15.5 106.5t-11.5 132t-8.5 135.5t-4 117t-1 79zM331 580.5q-5 -48.5 5 -97.5q88 -12 166 -9t157 38q33 16 56.5 29.5t38 30t20.5 38t2 54.5q-20 66 -57 106.5t-89 63 t-116.5 30.5t-140.5 10q-2 0 -4 -1t-4 -1q4 -49 -3.5 -98t-16.5 -97t-14 -96.5z" />
<glyph unicode="&#xdf;" horiz-adv-x="1032" d="M119 676.5q-4 66.5 1 133.5t27 136q16 43 36 95.5t55 86.5q57 57 115.5 82t113.5 22t104.5 -27.5t87 -65.5t60 -94.5t26.5 -110.5q14 -76 -17.5 -145.5t-96.5 -116.5q-2 -2 -4 -3t-4 -3q4 -4 7 -4t7 -3q59 -37 109.5 -72.5t89 -76.5t65.5 -93t39 -122t-25.5 -137.5 t-100 -116.5t-137.5 -70.5t-138 0.5q-37 20 -48.5 51t-1 57.5t39 42t69.5 3.5q27 -12 62.5 0t68.5 37.5t55.5 57.5t20.5 61q-4 57 -27.5 97t-62.5 74.5t-93.5 68.5t-117.5 81q-37 10 -54.5 47t11.5 84q63 16 101 68.5t43 110t-26.5 105.5t-105.5 56q-23 4 -50.5 -1l-49.5 -9 q-4 0 -8 -2q-49 -94 -73 -230.5t-30 -291.5l80 -699q12 -53 16 -71.5t-1 -33t-18 -42t-36 -101.5q-80 57 -108.5 138.5t-33.5 172.5t1 186t-4 185q-2 33 -3 66t-5 68q-6 70 -16.5 136t-14.5 132.5z" />
<glyph unicode="&#xe0;" horiz-adv-x="960" d="M61 274.5q0 34.5 11 63.5q8 23 15 37t22 31q20 25 36 43q4 4 9.5 9t3.5 1q10 16 27.5 39.5t31.5 33.5q39 31 96.5 36t104.5 14l31 4q125 12 166.5 40.5t27.5 59.5t-70.5 57.5t-128 34.5t-143.5 -10t-117 -76q-35 -4 -60.5 10.5t-34.5 39t-2 52t38 50.5q31 10 43 26.5 t41 32.5q131 70 234.5 77t179 -29t125 -104.5t73 -152.5t22.5 -171t-28 -161q-10 -29 -9 -53t6 -54t11 -69t11 -92q8 -14 8 -26q8 -23 6 -50q0 -2 -2 -2q-12 -31 -33.5 -46t-45.5 -14t-45.5 16.5t-33.5 43.5q-4 14 -4 20.5v8.5q-14 16 -16 31q-8 6 -14.5 13t-12.5 15 t-20.5 7.5t-18.5 9.5q-10 -4 -18.5 -9.5t-16.5 -9.5q-61 -39 -115.5 -68.5t-107.5 -37.5t-107.5 11.5t-115.5 80.5q-18 18 -31.5 49t-21 67t-7.5 70.5zM240 219l57 -43q61 -14 135 5.5t166 64.5q25 35 33 61.5t10 50t3 44t7 44.5q-63 10 -137 13.5t-135.5 -17t-101 -73 t-37.5 -150.5zM371.5 1409q11.5 31 68.5 51q37 8 65.5 -1t52.5 -28.5t43 -44t36 -49.5q2 -4 20.5 -32.5t38 -62.5t35.5 -62.5t16 -32.5q-2 -29 -19 -41t-44 2q-25 8 -69 31.5t-90 56.5t-86 71t-59.5 74.5t-8 67.5zM692 29q2 -2 2 -4.5t2 -4.5q2 -4 1 0.5t-5 8.5z" />
<glyph unicode="&#xe1;" horiz-adv-x="960" d="M61 274.5q0 34.5 11 63.5q8 23 15 37t22 31q20 25 36 43q4 4 9.5 9t3.5 1q10 16 27.5 39.5t31.5 33.5q39 31 96.5 36t104.5 14l31 4q125 12 166.5 40.5t27.5 59.5t-70.5 57.5t-128 34.5t-143.5 -10t-117 -76q-35 -4 -60.5 10.5t-34.5 39t-2 52t38 50.5q31 10 43 26.5 t41 32.5q131 70 234.5 77t179 -29t125 -104.5t73 -152.5t22.5 -171t-28 -161q-10 -29 -9 -53t6 -54t11 -69t11 -92q8 -14 8 -26q8 -23 6 -50q0 -2 -2 -2q-12 -31 -33.5 -46t-45.5 -14t-45.5 16.5t-33.5 43.5q-4 14 -4 20.5v8.5q-14 16 -16 31q-8 6 -14.5 13t-12.5 15 t-20.5 7.5t-18.5 9.5q-10 -4 -18.5 -9.5t-16.5 -9.5q-61 -39 -115.5 -68.5t-107.5 -37.5t-107.5 11.5t-115.5 80.5q-18 18 -31.5 49t-21 67t-7.5 70.5zM240 219l57 -43q61 -14 135 5.5t166 64.5q25 35 33 61.5t10 50t3 44t7 44.5q-63 10 -137 13.5t-135.5 -17t-101 -73 t-37.5 -150.5zM350 1147q2 -29 19 -41t44 2q25 8 69 31.5t90 56.5t86 71t59.5 74.5t8 67.5t-68.5 51q-37 8 -65.5 -1t-52.5 -28.5t-43 -44t-36 -49.5q-2 -4 -20.5 -32.5t-38 -62.5t-35.5 -62.5t-16 -32.5zM692 29q2 -2 2 -4.5t2 -4.5q2 -4 1 0.5t-5 8.5z" />
<glyph unicode="&#xe2;" horiz-adv-x="960" d="M61 274.5q0 34.5 11 63.5q8 23 15 37t22 31q20 25 36 43q4 4 9.5 9t3.5 1q10 16 27.5 39.5t31.5 33.5q39 31 96.5 36t104.5 14l31 4q125 12 166.5 40.5t27.5 59.5t-70.5 57.5t-128 34.5t-143.5 -10t-117 -76q-35 -4 -60.5 10.5t-34.5 39t-2 52t38 50.5q31 10 43 26.5 t41 32.5q131 70 234.5 77t179 -29t125 -104.5t73 -152.5t22.5 -171t-28 -161q-10 -29 -9 -53t6 -54t11 -69t11 -92q8 -14 8 -26q8 -23 6 -50q0 -2 -2 -2q-12 -31 -33.5 -46t-45.5 -14t-45.5 16.5t-33.5 43.5q-4 14 -4 20.5v8.5q-14 16 -16 31q-8 6 -14.5 13t-12.5 15 t-20.5 7.5t-18.5 9.5q-10 -4 -18.5 -9.5t-16.5 -9.5q-61 -39 -115.5 -68.5t-107.5 -37.5t-107.5 11.5t-115.5 80.5q-18 18 -31.5 49t-21 67t-7.5 70.5zM68.5 1108q-11.5 27 7.5 57q29 47 65.5 62.5t83.5 34.5q63 43 97 79.5t62 52t63.5 3t107.5 -67.5q31 -33 70 -49t82 -23 q43 -47 40 -81.5t-32 -51t-75 -10.5t-85 41q-37 35 -68.5 78t-68.5 80l-195 -219q-25 -29 -57.5 -33t-59 8t-38 39zM240 219l57 -43q61 -14 135 5.5t166 64.5q25 35 33 61.5t10 50t3 44t7 44.5q-63 10 -137 13.5t-135.5 -17t-101 -73t-37.5 -150.5zM692 29q2 -2 2 -4.5 t2 -4.5q2 -4 1 0.5t-5 8.5z" />
<glyph unicode="&#xe3;" horiz-adv-x="960" d="M51 1160.5q4 21.5 21 37.5q0 2 2 4q16 18 49 42t70.5 43.5t77.5 32.5t71 9q47 -6 75.5 -20.5t51 -35t46.5 -43t60 -42.5q12 -6 36 -4t51.5 17.5t55 44t50.5 73.5q31 27 58.5 20.5t45 -31t17.5 -59.5t-25 -63q-23 -18 -52.5 -47t-64 -50.5t-73.5 -30.5t-82 9 q-31 12 -61.5 42t-62.5 57.5t-62.5 45t-59.5 9.5q-35 -10 -60.5 -36t-49 -53.5t-48 -48t-57.5 -18.5q-31 2 -50.5 17.5t-26.5 36t-3 42zM61 274.5q0 34.5 11 63.5q8 23 15 37t22 31q20 25 36 43q4 4 9.5 9t3.5 1q10 16 27.5 39.5t31.5 33.5q39 31 96.5 36t104.5 14l31 4 q125 12 166.5 40.5t27.5 59.5t-70.5 57.5t-128 34.5t-143.5 -10t-117 -76q-35 -4 -60.5 10.5t-34.5 39t-2 52t38 50.5q31 10 43 26.5t41 32.5q131 70 234.5 77t179 -29t125 -104.5t73 -152.5t22.5 -171t-28 -161q-10 -29 -9 -53t6 -54t11 -69t11 -92q8 -14 8 -26 q8 -23 6 -50q0 -2 -2 -2q-12 -31 -33.5 -46t-45.5 -14t-45.5 16.5t-33.5 43.5q-4 14 -4 20.5v8.5q-14 16 -16 31q-8 6 -14.5 13t-12.5 15t-20.5 7.5t-18.5 9.5q-10 -4 -18.5 -9.5t-16.5 -9.5q-61 -39 -115.5 -68.5t-107.5 -37.5t-107.5 11.5t-115.5 80.5q-18 18 -31.5 49 t-21 67t-7.5 70.5zM240 219l57 -43q61 -14 135 5.5t166 64.5q25 35 33 61.5t10 50t3 44t7 44.5q-63 10 -137 13.5t-135.5 -17t-101 -73t-37.5 -150.5zM657 1208l4 -12q0 -2 -1 2t-2 7zM692 29q2 -2 2 -4.5t2 -4.5q2 -4 1 0.5t-5 8.5z" />
<glyph unicode="&#xe4;" horiz-adv-x="960" d="M61 274.5q0 34.5 11 63.5q8 23 15 37t22 31q20 25 36 43q4 4 9.5 9t3.5 1q10 16 27.5 39.5t31.5 33.5q39 31 96.5 36t104.5 14l31 4q125 12 166.5 40.5t27.5 59.5t-70.5 57.5t-128 34.5t-143.5 -10t-117 -76q-35 -4 -60.5 10.5t-34.5 39t-2 52t38 50.5q31 10 43 26.5 t41 32.5q131 70 234.5 77t179 -29t125 -104.5t73 -152.5t22.5 -171t-28 -161q-10 -29 -9 -53t6 -54t11 -69t11 -92q8 -14 8 -26q8 -23 6 -50q0 -2 -2 -2q-12 -31 -33.5 -46t-45.5 -14t-45.5 16.5t-33.5 43.5q-4 14 -4 20.5v8.5q-14 16 -16 31q-8 6 -14.5 13t-12.5 15 t-20.5 7.5t-18.5 9.5q-10 -4 -18.5 -9.5t-16.5 -9.5q-61 -39 -115.5 -68.5t-107.5 -37.5t-107.5 11.5t-115.5 80.5q-18 18 -31.5 49t-21 67t-7.5 70.5zM151 1232q-1 36 16.5 61.5t60.5 21.5q63 49 100 43t50 -43t8 -89t-25.5 -95.5t-51 -63.5t-67.5 10q-14 8 -18 17 q-4 4 -9.5 6t-9.5 6q-23 18 -38 54t-16 72zM240 219l57 -43q61 -14 135 5.5t166 64.5q25 35 33 61.5t10 50t3 44t7 44.5q-63 10 -137 13.5t-135.5 -17t-101 -73t-37.5 -150.5zM515 1232q-1 36 16.5 61.5t60.5 21.5q63 49 100 43t50.5 -43t8.5 -89t-25.5 -95.5t-51.5 -63.5 t-68 10q-14 8 -18 17q-4 4 -9 6t-9 6q-23 18 -38.5 54t-16.5 72zM692 29q2 -2 2 -4.5t2 -4.5q2 -4 1 0.5t-5 8.5z" />
<glyph unicode="&#xe5;" horiz-adv-x="960" d="M61 274.5q0 34.5 11 63.5q8 23 15 37t22 31q20 25 36 43q4 4 9.5 9t3.5 1q10 16 27.5 39.5t31.5 33.5q39 31 96.5 36t104.5 14l31 4q125 12 166.5 40.5t27.5 59.5t-70.5 57.5t-128 34.5t-143.5 -10t-117 -76q-35 -4 -60.5 10.5t-34.5 39t-2 52t38 50.5q31 10 43 26.5 t41 32.5q131 70 234.5 77t179 -29t125 -104.5t73 -152.5t22.5 -171t-28 -161q-10 -29 -9 -53t6 -54t11 -69t11 -92q8 -14 8 -26q8 -23 6 -50q0 -2 -2 -2q-12 -31 -33.5 -46t-45.5 -14t-45.5 16.5t-33.5 43.5q-4 14 -4 20.5v8.5q-14 16 -16 31q-8 6 -14.5 13t-12.5 15 t-20.5 7.5t-18.5 9.5q-10 -4 -18.5 -9.5t-16.5 -9.5q-61 -39 -115.5 -68.5t-107.5 -37.5t-107.5 11.5t-115.5 80.5q-18 18 -31.5 49t-21 67t-7.5 70.5zM215 1339q6 31 20 47q0 29 16.5 49.5t39.5 39.5q72 55 157.5 55t152 -41t96.5 -112.5t-11 -159.5q-10 -23 -14.5 -46.5 t-20.5 -46.5q-33 -47 -82 -63.5t-101 -11t-103.5 32t-89.5 65.5t-55 89t-5 103zM240 219l57 -43q61 -14 135 5.5t166 64.5q25 35 33 61.5t10 50t3 44t7 44.5q-63 10 -137 13.5t-135.5 -17t-101 -73t-37.5 -150.5zM303 1380q6 4 14 7.5t13 5.5v8q-6 -6 -13.5 -11.5 t-13.5 -9.5zM307 1354q0 -20 3 -49t9 -57.5t16.5 -52.5t24.5 -32q104 -53 163.5 -36.5t81 65.5t8.5 114.5t-51 109.5t-97 49.5t-133 -64.5q-6 -16 -13.5 -26.5t-11.5 -20.5zM692 29q2 -2 2 -4.5t2 -4.5q2 -4 1 0.5t-5 8.5z" />
<glyph unicode="&#xe6;" horiz-adv-x="1662" d="M61 274.5q0 34.5 11 63.5q8 23 15 37t22 31q20 25 36 43q4 4 9.5 9t3.5 1q10 16 27.5 39.5t31.5 33.5q39 31 96.5 36t104.5 14l31 4q125 12 166.5 40.5t27.5 59.5t-70.5 57.5t-128 34.5t-143.5 -10t-117 -76q-35 -4 -60.5 10.5t-34.5 39t-2 52t38 50.5q31 10 43 26.5 t41 32.5q131 70 234.5 77t179 -29t125 -104.5t73 -152.5t22.5 -171t-28 -161q-10 -29 -9 -53t6 -54t11 -69t11 -92q8 -14 8 -26q8 -23 6 -50q0 -2 -2 -2q-12 -31 -33.5 -46t-45.5 -14t-45.5 16.5t-33.5 43.5q-4 14 -4 20.5v8.5q-14 16 -16 31q-8 6 -14.5 13t-12.5 15 t-20.5 7.5t-18.5 9.5q-10 -4 -18.5 -9.5t-16.5 -9.5q-61 -39 -115.5 -68.5t-107.5 -37.5t-107.5 11.5t-115.5 80.5q-18 18 -31.5 49t-21 67t-7.5 70.5zM240 219l57 -43q61 -14 135 5.5t166 64.5q25 35 33 61.5t10 50t3 44t7 44.5q-63 10 -137 13.5t-135.5 -17t-101 -73 t-37.5 -150.5zM674.5 395.5q-21.5 102.5 2.5 226t112 265.5q35 55 105.5 90t155.5 46t175 -4t164.5 -57t122 -115t49.5 -177q0 -72 -2 -110t-23.5 -55.5t-71 -19.5t-141.5 0q-39 0 -92 2t-109.5 2h-109.5t-92 -2q-6 -45 5 -90t37.5 -86t67.5 -73.5t97 -51.5q20 -8 50.5 -14 t62.5 -8t58.5 2t41.5 14q18 12 38.5 20.5t32.5 20.5q4 4 4 9.5t2 11.5l2 -2q12 23 34 27.5t39.5 -1.5t25.5 -23.5t-2 -41.5q-41 -90 -113 -140.5t-158 -62.5t-177 9.5t-171 73.5t-140.5 132t-82 182.5zM692 29q2 -2 2 -4.5t2 -4.5q2 -4 1 0.5t-5 8.5zM858 838l2 -2zM946 662 q104 2 213 -4.5t211 -2.5q-6 57 -25.5 91t-48 53.5t-62.5 29t-71 15.5q-57 -8 -88.5 -17.5t-52 -29t-36 -51t-40.5 -84.5z" />
<glyph unicode="&#xe7;" horiz-adv-x="851" d="M26 508q3 88 19 164q25 135 91.5 209.5t149.5 106.5t169 31t149 -15q33 -6 71 -24.5t68.5 -45.5t48 -58.5t9.5 -68.5q-18 -39 -60 -31q-12 4 -19 8t-17 13q-2 4 -8.5 7t-10.5 7q-37 10 -72.5 25.5t-72.5 26.5t-74 13.5t-74 -14.5q-80 -37 -120 -106.5t-52 -149.5 t0 -157.5t37 -133.5q33 -31 60.5 -53t60.5 -31.5t75 -5.5t103 23q33 10 77 31.5t83 28.5t64.5 -8.5t23.5 -78.5q-33 -82 -108.5 -138t-167 -81t-184.5 -14.5t-157 61.5q-63 49 -100 125t-51 161t-11 173zM261 -286.5q1 28.5 23.5 52t65.5 25.5q94 -6 137 -6t45 10t-34 32.5 t-101 61.5q-33 20 -51.5 47t-34.5 60q-4 37 11.5 62.5t40 35.5t52 1t50.5 -40q2 -10 2 -21t4 -22q8 -23 30.5 -39t48 -33.5t49 -37t38.5 -47.5q8 -16 9 -37t-7 -37q-23 -47 -53.5 -73.5t-69.5 -42t-83 -21.5t-91 -15q-43 4 -62.5 30t-18.5 54.5z" />
<glyph unicode="&#xe8;" horiz-adv-x="976" d="M41.5 395.5q-21.5 102.5 2.5 226t112 265.5q35 55 105.5 90t155.5 46t175 -4t164.5 -57t122 -115t49.5 -177q0 -72 -2 -110t-23.5 -55.5t-71 -19.5t-141.5 0q-39 0 -92 2t-109.5 2h-109.5t-92 -2q-6 -45 5 -90t37.5 -86t67.5 -73.5t97 -51.5q20 -8 50.5 -14t62.5 -8 t58.5 2t41.5 14q18 12 38.5 20.5t32.5 20.5q4 4 4 9.5t2 11.5l2 -2q12 23 34 27.5t39.5 -1.5t25.5 -23.5t-2 -41.5q-41 -90 -113 -140.5t-158 -62.5t-177 9.5t-171 73.5t-140.5 132t-82 182.5zM225 838l2 -2zM313 662q104 2 213 -4.5t211 -2.5q-6 57 -25.5 91t-48 53.5 t-62.5 29t-71 15.5q-57 -8 -88.5 -17.5t-52 -29t-36 -51t-40.5 -84.5zM379.5 1409q11.5 31 68.5 51q37 8 65.5 -1t52.5 -28.5t43 -44t36 -49.5q2 -4 20.5 -32.5t38 -62.5t35.5 -62.5t16 -32.5q-2 -29 -19 -41t-44 2q-25 8 -69 31.5t-90 56.5t-86 71t-59.5 74.5t-8 67.5z" />
<glyph unicode="&#xe9;" horiz-adv-x="976" d="M41.5 395.5q-21.5 102.5 2.5 226t112 265.5q35 55 105.5 90t155.5 46t175 -4t164.5 -57t122 -115t49.5 -177q0 -72 -2 -110t-23.5 -55.5t-71 -19.5t-141.5 0q-39 0 -92 2t-109.5 2h-109.5t-92 -2q-6 -45 5 -90t37.5 -86t67.5 -73.5t97 -51.5q20 -8 50.5 -14t62.5 -8 t58.5 2t41.5 14q18 12 38.5 20.5t32.5 20.5q4 4 4 9.5t2 11.5l2 -2q12 23 34 27.5t39.5 -1.5t25.5 -23.5t-2 -41.5q-41 -90 -113 -140.5t-158 -62.5t-177 9.5t-171 73.5t-140.5 132t-82 182.5zM225 838l2 -2zM313 662q104 2 213 -4.5t211 -2.5q-6 57 -25.5 91t-48 53.5 t-62.5 29t-71 15.5q-57 -8 -88.5 -17.5t-52 -29t-36 -51t-40.5 -84.5zM420 1147q2 -29 19 -41t44 2q25 8 69 31.5t90 56.5t86 71t59.5 74.5t8 67.5t-68.5 51q-37 8 -65.5 -1t-52.5 -28.5t-43 -44t-36 -49.5q-2 -4 -20.5 -32.5t-38 -62.5t-35.5 -62.5t-16 -32.5z" />
<glyph unicode="&#xea;" horiz-adv-x="976" d="M41.5 395.5q-21.5 102.5 2.5 226t112 265.5q35 55 105.5 90t155.5 46t175 -4t164.5 -57t122 -115t49.5 -177q0 -72 -2 -110t-23.5 -55.5t-71 -19.5t-141.5 0q-39 0 -92 2t-109.5 2h-109.5t-92 -2q-6 -45 5 -90t37.5 -86t67.5 -73.5t97 -51.5q20 -8 50.5 -14t62.5 -8 t58.5 2t41.5 14q18 12 38.5 20.5t32.5 20.5q4 4 4 9.5t2 11.5l2 -2q12 23 34 27.5t39.5 -1.5t25.5 -23.5t-2 -41.5q-41 -90 -113 -140.5t-158 -62.5t-177 9.5t-171 73.5t-140.5 132t-82 182.5zM138.5 1108q-11.5 27 7.5 57q29 47 65.5 62.5t83.5 34.5q63 43 97 79.5t62 52 t63.5 3t107.5 -67.5q31 -33 70 -49t82 -23q43 -47 40 -81.5t-32 -51t-75 -10.5t-85 41q-37 35 -68.5 78t-68.5 80l-195 -219q-25 -29 -57.5 -33t-59 8t-38 39zM225 838l2 -2zM313 662q104 2 213 -4.5t211 -2.5q-6 57 -25.5 91t-48 53.5t-62.5 29t-71 15.5 q-57 -8 -88.5 -17.5t-52 -29t-36 -51t-40.5 -84.5z" />
<glyph unicode="&#xeb;" horiz-adv-x="976" d="M41.5 395.5q-21.5 102.5 2.5 226t112 265.5q35 55 105.5 90t155.5 46t175 -4t164.5 -57t122 -115t49.5 -177q0 -72 -2 -110t-23.5 -55.5t-71 -19.5t-141.5 0q-39 0 -92 2t-109.5 2h-109.5t-92 -2q-6 -45 5 -90t37.5 -86t67.5 -73.5t97 -51.5q20 -8 50.5 -14t62.5 -8 t58.5 2t41.5 14q18 12 38.5 20.5t32.5 20.5q4 4 4 9.5t2 11.5l2 -2q12 23 34 27.5t39.5 -1.5t25.5 -23.5t-2 -41.5q-41 -90 -113 -140.5t-158 -62.5t-177 9.5t-171 73.5t-140.5 132t-82 182.5zM159 1232q-1 36 16.5 61.5t60.5 21.5q63 49 100 43t50 -43t8 -89t-25.5 -95.5 t-51 -63.5t-67.5 10q-14 8 -18 17q-4 4 -9.5 6t-9.5 6q-23 18 -38 54t-16 72zM225 838l2 -2zM313 662q104 2 213 -4.5t211 -2.5q-6 57 -25.5 91t-48 53.5t-62.5 29t-71 15.5q-57 -8 -88.5 -17.5t-52 -29t-36 -51t-40.5 -84.5zM523 1232q-1 36 16.5 61.5t60.5 21.5 q63 49 100 43t50.5 -43t8.5 -89t-25.5 -95.5t-51.5 -63.5t-68 10q-14 8 -18 17q-4 4 -9 6t-9 6q-23 18 -38.5 54t-16.5 72z" />
<glyph unicode="&#xec;" horiz-adv-x="403" d="M-9 1409q11 31 68 51q37 8 66 -1t52.5 -28.5t43 -44t35.5 -49.5q2 -4 20.5 -32.5t38 -62.5t36 -62.5t16.5 -32.5q-2 -29 -19.5 -41t-44.5 2q-25 8 -69 31.5t-90 56.5t-86 71t-59 74.5t-8 67.5zM76 78q6 174 4 344t12 344q2 37 3 70.5t5 65.5t17.5 60.5t44.5 55.5 q10 8 37.5 8t40.5 8q43 -18 59 -52t20.5 -74t-1 -83t-5.5 -82q-6 -174 -7 -346t7 -346q-6 -31 -26.5 -50t-47 -24.5t-52 3t-40.5 30.5q-23 4 -42 20.5t-29 47.5z" />
<glyph unicode="&#xed;" horiz-adv-x="403" d="M76 78q10 -31 29.5 -47.5t41.5 -20.5q14 -23 40 -31t52.5 -2.5t47 24.5t26.5 50q-8 174 -7 346t7 346q0 39 5.5 82t1 83t-20.5 74t-59 52q-12 -8 -40 -8t-38 -8q-31 -27 -44.5 -55.5t-17.5 -60.5t-5 -65.5t-3 -70.5q-14 -174 -12 -344t-4 -344zM113 1147q0 4 16 32.5 t35.5 62.5t37 62.5t21.5 32.5q16 25 36 49.5t43.5 44t52 28.5t65.5 1q57 -20 68.5 -51t-8 -67.5t-59.5 -74.5t-86 -71t-90 -56.5t-69 -31.5q-27 -14 -44 -2t-19 41z" />
<glyph unicode="&#xee;" horiz-adv-x="403" d="M-130 958.5q-11 26.5 7 57.5q29 47 66 62.5t84 33.5q63 43 97 80t61.5 52.5t63.5 3t107 -67.5q31 -33 70 -49.5t82 -22.5q43 -47 40 -82t-32 -51.5t-75 -10t-85 41.5q-37 35 -68.5 77.5t-68.5 79.5l-194 -219q-25 -29 -58 -33t-59.5 8.5t-37.5 39zM76 78q6 174 4 344 t12 344q2 37 3 70.5t5 65.5t17.5 60.5t44.5 55.5q10 8 37.5 8t40.5 8q43 -18 59 -52t20.5 -74t-1 -83t-5.5 -82q-6 -174 -7 -346t7 -346q-6 -31 -26.5 -50t-47 -24.5t-52 3t-40.5 30.5q-23 4 -42 20.5t-29 47.5z" />
<glyph unicode="&#xef;" horiz-adv-x="403" d="M-126 1232q-1 36 16.5 61.5t60.5 21.5q63 49 100 43t50.5 -43t8 -89t-26 -95.5t-51 -63.5t-67.5 10q-14 8 -18 17q-4 4 -9.5 6t-9.5 6q-23 18 -38 54t-16 72zM76 78q6 174 4 344t12 344q2 37 3 70.5t5 65.5t17.5 60.5t44.5 55.5q10 8 37.5 8t40.5 8q43 -18 59 -52 t20.5 -74t-1 -83t-5.5 -82q-6 -174 -7 -346t7 -346q-6 -31 -26.5 -50t-47 -24.5t-52 3t-40.5 30.5q-23 4 -42 20.5t-29 47.5zM239 1232q-1 36 16 61.5t60 21.5q63 49 100.5 43t50.5 -43t8 -89t-25.5 -95.5t-51 -63.5t-67.5 10q-14 8 -19 17q-4 4 -9 6t-9 6q-23 18 -38 54 t-16 72z" />
<glyph unicode="&#xf0;" horiz-adv-x="1011" d="M59 420q2 86 53.5 156.5t130.5 116.5t176 65.5t189 1.5q-2 90 -17 162t-40 131q-10 -12 -23.5 -28.5t-29 -32t-34 -27t-36.5 -13.5q-74 6 -96.5 39t-12 75t48.5 85t85 72q-29 39 -54.5 67.5t-41 51t-17.5 40t16 33.5q2 0 4 2v6q55 49 117 33t121 -78q18 35 60 48.5t80 6 t58.5 -35t-3.5 -74.5l-86 -92q55 -92 101 -209t80 -237.5t51 -238.5t11 -216q-6 -109 -60 -181.5t-134 -112.5t-176.5 -47t-188.5 14.5t-168 72.5t-114 129q-25 47 -38.5 104.5t-11.5 110.5zM270 331q8 -40 45 -79q4 -4 24.5 -17.5t50.5 -26.5t66 -24.5t71.5 -9.5t68.5 19.5 t55 60.5q33 61 32 116.5t-22.5 100.5t-59.5 78t-78 48t-78.5 10t-61.5 -34q-35 -43 -64.5 -83.5t-43 -79.5t-5.5 -79z" />
<glyph unicode="&#xf1;" horiz-adv-x="976" d="M59 1160.5q4 21.5 21 37.5q0 2 2 4q16 18 49 42t70.5 43.5t77.5 32.5t71 9q47 -6 75.5 -20.5t51 -35t46.5 -43t60 -42.5q12 -6 36 -4t51.5 17.5t55 44t50.5 73.5q31 27 58.5 20.5t45 -31t17.5 -59.5t-25 -63q-23 -18 -52.5 -47t-64 -50.5t-73.5 -30.5t-82 9 q-31 12 -61.5 42t-62.5 57.5t-62.5 45t-59.5 9.5q-35 -10 -60.5 -36t-49 -53.5t-48 -48t-57.5 -18.5q-31 2 -50.5 17.5t-26.5 36t-3 42zM72 0q-6 31 10 61v5q2 10 4 32.5t2 24.5q2 31 3 62.5t1 60.5q2 94 -2 177t2 175q2 23 4 42t6 42q-2 31 -5 68.5t-4 75.5t-2 75t1 68 q8 33 22.5 49t43.5 26q2 2 6 3q23 0 39 -7q8 0 12 -2q29 14 62.5 0t48.5 -57q31 16 65.5 27.5t67.5 7.5q104 -12 190 -26.5t144.5 -56.5t87 -122t18.5 -223q-8 -23 -15 -37t-12 -41q-8 -59 -6 -120.5t7.5 -123t12.5 -122t7 -121.5q-2 -55 -55 -64q-66 -10 -98.5 -2t-45 34.5 t-10.5 67.5t8 95q8 152 14.5 257t4.5 175.5t-16.5 110.5t-45.5 60.5t-83 25.5t-132 8q-63 2 -99 -35t-51.5 -94.5t-15.5 -127t6.5 -135t14.5 -120t10 -80.5q2 -37 7 -69t6 -60.5t-5 -57t-26 -59.5l-172 20q-10 10 -37 27zM665 1208l4 -12q0 -2 -1 2t-2 7z" />
<glyph unicode="&#xf2;" horiz-adv-x="909" d="M27.5 491.5q5.5 100.5 34 201t81 185.5t123.5 128q18 10 44 19t66 10t95 -9t135 -35q82 -37 129 -97t70.5 -135t30 -159t8.5 -170q2 -49 -7.5 -113.5t-35.5 -109.5q-41 -66 -92.5 -111t-116.5 -86q-61 -12 -120.5 -15t-111 0t-89.5 12t-54 22q-41 31 -67.5 62.5t-45 66.5 t-32 74.5t-27.5 84.5q-23 74 -17.5 174.5zM190.5 408.5q2.5 -52.5 27 -98.5t78.5 -78.5t148 -45.5q57 -8 97.5 19.5t66 73t40 97.5t20.5 94t7 64.5t3 8.5q-4 55 -20.5 115.5t-53.5 106.5t-101.5 67.5t-166.5 -5.5q-18 -8 -32.5 -28.5t-24 -45t-17.5 -47t-14 -34.5 q-8 -25 -23.5 -68t-26 -93t-8 -102.5zM345.5 1409q11.5 31 68.5 51q37 8 65.5 -1t52.5 -28.5t43 -44t36 -49.5q2 -4 20.5 -32.5t38 -62.5t35.5 -62.5t16 -32.5q-2 -29 -19 -41t-44 2q-25 8 -69 31.5t-90 56.5t-86 71t-59.5 74.5t-8 67.5z" />
<glyph unicode="&#xf3;" horiz-adv-x="909" d="M27.5 491.5q5.5 100.5 34 201t81 185.5t123.5 128q18 10 44 19t66 10t95 -9t135 -35q82 -37 129 -97t70.5 -135t30 -159t8.5 -170q2 -49 -7.5 -113.5t-35.5 -109.5q-41 -66 -92.5 -111t-116.5 -86q-61 -12 -120.5 -15t-111 0t-89.5 12t-54 22q-41 31 -67.5 62.5t-45 66.5 t-32 74.5t-27.5 84.5q-23 74 -17.5 174.5zM190.5 408.5q2.5 -52.5 27 -98.5t78.5 -78.5t148 -45.5q57 -8 97.5 19.5t66 73t40 97.5t20.5 94t7 64.5t3 8.5q-4 55 -20.5 115.5t-53.5 106.5t-101.5 67.5t-166.5 -5.5q-18 -8 -32.5 -28.5t-24 -45t-17.5 -47t-14 -34.5 q-8 -25 -23.5 -68t-26 -93t-8 -102.5zM344 1147q2 -29 19 -41t44 2q25 8 69 31.5t90 56.5t86 71t59.5 74.5t8 67.5t-68.5 51q-37 8 -65.5 -1t-52.5 -28.5t-43 -44t-36 -49.5q-2 -4 -20.5 -32.5t-38 -62.5t-35.5 -62.5t-16 -32.5z" />
<glyph unicode="&#xf4;" horiz-adv-x="909" d="M27.5 491.5q5.5 100.5 34 201t81 185.5t123.5 128q18 10 44 19t66 10t95 -9t135 -35q82 -37 129 -97t70.5 -135t30 -159t8.5 -170q2 -49 -7.5 -113.5t-35.5 -109.5q-41 -66 -92.5 -111t-116.5 -86q-61 -12 -120.5 -15t-111 0t-89.5 12t-54 22q-41 31 -67.5 62.5t-45 66.5 t-32 74.5t-27.5 84.5q-23 74 -17.5 174.5zM86.5 1065q-11.5 27 7.5 57q29 47 65.5 62.5t83.5 34.5q63 43 97 79.5t62 52t63.5 3t107.5 -67.5q31 -33 70 -49t82 -23q43 -47 40 -81.5t-32 -51t-75 -10.5t-85 41q-37 35 -68.5 78t-68.5 80l-195 -219q-25 -29 -57.5 -33t-59 8 t-38 39zM190.5 408.5q2.5 -52.5 27 -98.5t78.5 -78.5t148 -45.5q57 -8 97.5 19.5t66 73t40 97.5t20.5 94t7 64.5t3 8.5q-4 55 -20.5 115.5t-53.5 106.5t-101.5 67.5t-166.5 -5.5q-18 -8 -32.5 -28.5t-24 -45t-17.5 -47t-14 -34.5q-8 -25 -23.5 -68t-26 -93t-8 -102.5z" />
<glyph unicode="&#xf5;" horiz-adv-x="909" d="M27.5 491.5q5.5 100.5 34 201t81 185.5t123.5 128q18 10 44 19t66 10t95 -9t135 -35q82 -37 129 -97t70.5 -135t30 -159t8.5 -170q2 -49 -7.5 -113.5t-35.5 -109.5q-41 -66 -92.5 -111t-116.5 -86q-61 -12 -120.5 -15t-111 0t-89.5 12t-54 22q-41 31 -67.5 62.5t-45 66.5 t-32 74.5t-27.5 84.5q-23 74 -17.5 174.5zM31 1160.5q4 21.5 21 37.5q0 2 2 4q16 18 49 42t70.5 43.5t77.5 32.5t71 9q47 -6 75.5 -20.5t51 -35t46.5 -43t60 -42.5q12 -6 36 -4t51.5 17.5t55 44t50.5 73.5q31 27 58.5 20.5t45 -31t17.5 -59.5t-25 -63q-23 -18 -52.5 -47 t-64 -50.5t-73.5 -30.5t-82 9q-31 12 -61.5 42t-62.5 57.5t-62.5 45t-59.5 9.5q-35 -10 -60.5 -36t-49 -53.5t-48 -48t-57.5 -18.5q-31 2 -50.5 17.5t-26.5 36t-3 42zM190.5 408.5q2.5 -52.5 27 -98.5t78.5 -78.5t148 -45.5q57 -8 97.5 19.5t66 73t40 97.5t20.5 94t7 64.5 t3 8.5q-4 55 -20.5 115.5t-53.5 106.5t-101.5 67.5t-166.5 -5.5q-18 -8 -32.5 -28.5t-24 -45t-17.5 -47t-14 -34.5q-8 -25 -23.5 -68t-26 -93t-8 -102.5zM637 1208l4 -12q0 -2 -1 2t-2 7z" />
<glyph unicode="&#xf6;" horiz-adv-x="909" d="M27.5 491.5q5.5 100.5 34 201t81 185.5t123.5 128q18 10 44 19t66 10t95 -9t135 -35q82 -37 129 -97t70.5 -135t30 -159t8.5 -170q2 -49 -7.5 -113.5t-35.5 -109.5q-41 -66 -92.5 -111t-116.5 -86q-61 -12 -120.5 -15t-111 0t-89.5 12t-54 22q-41 31 -67.5 62.5t-45 66.5 t-32 74.5t-27.5 84.5q-23 74 -17.5 174.5zM126 1232q-1 36 16.5 61.5t60.5 21.5q63 49 100 43t50 -43t8 -89t-25.5 -95.5t-51 -63.5t-67.5 10q-14 8 -18 17q-4 4 -9.5 6t-9.5 6q-23 18 -38 54t-16 72zM190.5 408.5q2.5 -52.5 27 -98.5t78.5 -78.5t148 -45.5q57 -8 97.5 19.5 t66 73t40 97.5t20.5 94t7 64.5t3 8.5q-4 55 -20.5 115.5t-53.5 106.5t-101.5 67.5t-166.5 -5.5q-18 -8 -32.5 -28.5t-24 -45t-17.5 -47t-14 -34.5q-8 -25 -23.5 -68t-26 -93t-8 -102.5zM490 1232q-1 36 16.5 61.5t60.5 21.5q63 49 100 43t50.5 -43t8.5 -89t-25.5 -95.5 t-51.5 -63.5t-68 10q-14 8 -18 17q-4 4 -9 6t-9 6q-23 18 -38.5 54t-16.5 72z" />
<glyph unicode="&#xf7;" horiz-adv-x="448" d="M-69 565.5q1 28.5 23.5 52t65.5 25.5q70 -16 122 -24.5t99 -9.5t98.5 5.5t122.5 22.5q37 -10 53.5 -33.5t15.5 -50.5t-20.5 -49.5t-56.5 -28.5q-72 16 -122 25.5t-97 10.5t-98 -6.5t-125 -23.5q-43 4 -62.5 30t-18.5 54.5zM85 173.5q-5 27.5 3 59.5t26.5 56.5t46 35.5 t60.5 1l94 -12q18 -29 18.5 -56.5t-11.5 -50.5l-2.5 -5l-2.5 -5q-2 -8 -2 -14t-4 -13q18 -31 16.5 -61.5t-19 -51t-45 -25.5t-58.5 18q-33 23 -37 59q-37 -2 -57.5 17.5t-25.5 47zM100 921q-2 40 18.5 67.5t71.5 21.5q74 53 116 47t58.5 -46t9.5 -97t-31 -104.5t-59.5 -69 t-78.5 11.5q-8 4 -13.5 9t-9.5 10q-4 4 -9 6t-9 6q-25 18 -43.5 58t-20.5 80z" />
<glyph unicode="&#xf8;" horiz-adv-x="909" d="M45.5 491.5q5.5 100.5 34 201t81 185.5t123.5 128q18 10 44 19t66 10t95 -9t135 -35q82 -37 129 -97t70.5 -135t30 -159t8.5 -170q2 -49 -7.5 -113.5t-35.5 -109.5q-41 -66 -92.5 -111t-116.5 -86q-61 -12 -120.5 -15t-111 0t-89.5 12t-54 22q-41 31 -67.5 62.5t-45 66.5 t-32 74.5t-27.5 84.5q-23 74 -17.5 174.5zM61 -96q10 39 24.5 67.5t37.5 59.5q47 88 98 165.5t102.5 155.5t96.5 159t80 175q14 43 40.5 114.5t62.5 145.5t80 135.5t95 81.5q76 4 87 -38t-42 -120h-2q-68 -141 -147.5 -275t-159.5 -268t-154.5 -271.5t-132.5 -282.5 q-4 -16 -4 -23q-12 -35 -37.5 -50t-51.5 -12t-47.5 23.5t-25.5 57.5zM208.5 408.5q2.5 -52.5 27 -98.5t78.5 -78.5t148 -45.5q57 -8 97.5 19.5t66 73t40 97.5t20.5 94t7 64.5t3 8.5q-4 55 -20.5 115.5t-53.5 106.5t-101.5 67.5t-166.5 -5.5q-18 -8 -32.5 -28.5t-24 -45 t-17.5 -47t-14 -34.5q-8 -25 -23.5 -68t-26 -93t-8 -102.5z" />
<glyph unicode="&#xf9;" horiz-adv-x="919" d="M47 963q6 27 24.5 44t41 23t47 2t41.5 -18q29 -55 43 -136t21 -172.5t11.5 -184.5t10.5 -169q2 -31 5 -48t8 -29.5t14.5 -27t23.5 -40.5q31 -53 72 -48t84 36.5t85 74.5t72 66q4 201 7.5 359.5t22.5 248.5t65.5 98.5t134.5 -92.5q-6 -90 -19.5 -187t-24 -197.5 t-11.5 -201t18 -192.5q2 31 5 17.5t5 -42t2 -61.5t-6 -45q-14 -39 -40 -53.5t-54 -7.5q-35 -20 -75 9t-44 93q-2 16 -2 32.5v32.5q-39 -47 -85 -89t-99 -66q-27 -12 -66 -18.5t-68 3.5q-86 29 -138 94.5t-79.5 152.5t-36 189.5t-9.5 202t0 190.5t-7 157zM351.5 1409 q11.5 31 68.5 51q37 8 65.5 -1t52.5 -28.5t43 -44t36 -49.5q2 -4 20.5 -32.5t38 -62.5t35.5 -62.5t16 -32.5q-2 -29 -19 -41t-44 2q-25 8 -69 31.5t-90 56.5t-86 71t-59.5 74.5t-8 67.5z" />
<glyph unicode="&#xfa;" horiz-adv-x="919" d="M47 963q6 27 24.5 44t41 23t47 2t41.5 -18q29 -55 43 -136t21 -172.5t11.5 -184.5t10.5 -169q2 -31 5 -48t8 -29.5t14.5 -27t23.5 -40.5q31 -53 72 -48t84 36.5t85 74.5t72 66q4 201 7.5 359.5t22.5 248.5t65.5 98.5t134.5 -92.5q-6 -90 -19.5 -187t-24 -197.5 t-11.5 -201t18 -192.5q2 31 5 17.5t5 -42t2 -61.5t-6 -45q-14 -39 -40 -53.5t-54 -7.5q-35 -20 -75 9t-44 93q-2 16 -2 32.5v32.5q-39 -47 -85 -89t-99 -66q-27 -12 -66 -18.5t-68 3.5q-86 29 -138 94.5t-79.5 152.5t-36 189.5t-9.5 202t0 190.5t-7 157zM371 1147 q2 -29 19 -41t44 2q25 8 69 31.5t90 56.5t86 71t59.5 74.5t8 67.5t-68.5 51q-37 8 -65.5 -1t-52.5 -28.5t-43 -44t-36 -49.5q-2 -4 -20.5 -32.5t-38 -62.5t-35.5 -62.5t-16 -32.5z" />
<glyph unicode="&#xfb;" horiz-adv-x="919" d="M47 963q6 27 24.5 44t41 23t47 2t41.5 -18q29 -55 43 -136t21 -172.5t11.5 -184.5t10.5 -169q2 -31 5 -48t8 -29.5t14.5 -27t23.5 -40.5q31 -53 72 -48t84 36.5t85 74.5t72 66q4 201 7.5 359.5t22.5 248.5t65.5 98.5t134.5 -92.5q-6 -90 -19.5 -187t-24 -197.5 t-11.5 -201t18 -192.5q2 31 5 17.5t5 -42t2 -61.5t-6 -45q-14 -39 -40 -53.5t-54 -7.5q-35 -20 -75 9t-44 93q-2 16 -2 32.5v32.5q-39 -47 -85 -89t-99 -66q-27 -12 -66 -18.5t-68 3.5q-86 29 -138 94.5t-79.5 152.5t-36 189.5t-9.5 202t0 190.5t-7 157zM109.5 1108 q-11.5 27 7.5 57q29 47 65.5 62.5t83.5 34.5q63 43 97 79.5t62 52t63.5 3t107.5 -67.5q31 -33 70 -49t82 -23q43 -47 40 -81.5t-32 -51t-75 -10.5t-85 41q-37 35 -68.5 78t-68.5 80l-195 -219q-25 -29 -57.5 -33t-59 8t-38 39z" />
<glyph unicode="&#xfc;" horiz-adv-x="919" d="M47 963q6 27 24.5 44t41 23t47 2t41.5 -18q29 -55 43 -136t21 -172.5t11.5 -184.5t10.5 -169q2 -31 5 -48t8 -29.5t14.5 -27t23.5 -40.5q31 -53 72 -48t84 36.5t85 74.5t72 66q4 201 7.5 359.5t22.5 248.5t65.5 98.5t134.5 -92.5q-6 -90 -19.5 -187t-24 -197.5 t-11.5 -201t18 -192.5q2 31 5 17.5t5 -42t2 -61.5t-6 -45q-14 -39 -40 -53.5t-54 -7.5q-35 -20 -75 9t-44 93q-2 16 -2 32.5v32.5q-39 -47 -85 -89t-99 -66q-27 -12 -66 -18.5t-68 3.5q-86 29 -138 94.5t-79.5 152.5t-36 189.5t-9.5 202t0 190.5t-7 157zM130 1232 q-1 36 16.5 61.5t60.5 21.5q63 49 100 43t50 -43t8 -89t-25.5 -95.5t-51 -63.5t-67.5 10q-14 8 -18 17q-4 4 -9.5 6t-9.5 6q-23 18 -38 54t-16 72zM494 1232q-1 36 16.5 61.5t60.5 21.5q63 49 100 43t50.5 -43t8.5 -89t-25.5 -95.5t-51.5 -63.5t-68 10q-14 8 -18 17 q-4 4 -9 6t-9 6q-23 18 -38.5 54t-16.5 72z" />
<glyph unicode="&#xfd;" horiz-adv-x="1028" d="M-124 -484.5q-3 25.5 12.5 51t50.5 38.5q27 0 73.5 4t95 12t90.5 22.5t60 37.5q25 29 45.5 61.5t42.5 64.5q61 125 88 208t28 139.5t-19.5 92.5t-54.5 69.5t-76 72.5t-83 100l-112 179q-4 0 -16.5 13t-26 33.5t-24.5 43t-11 39.5q2 10 10 30q0 16 10.5 26.5t26.5 12.5 q29 14 61.5 2t49.5 -53q-2 4 -2 8q31 -53 54 -88t39.5 -59.5t30 -42t25.5 -33.5q57 -45 97 -72.5t68 -46t46 -29t33 -18.5q4 8 6 14.5t6 14.5q29 70 63.5 149.5t55.5 151.5q6 25 12 49.5t10 46.5q4 10 17.5 28.5t21.5 29.5q4 4 5 7t3 7q4 10 6.5 16t6.5 15q20 37 59 43 q25 25 55 30q33 0 54.5 -13t32 -32.5t7.5 -43t-20 -42.5q-2 -4 -9 -17.5t-9 -15.5q-10 -20 -21.5 -39.5t-21.5 -41.5q-41 -100 -74 -209t-64.5 -218.5t-67.5 -218t-84 -211t-113.5 -195.5t-155.5 -173q-8 -6 -21 -19q-43 -37 -81 -57t-81 -29.5t-97 -12.5t-132 -5 q-37 4 -57.5 25.5t-23.5 47zM424 1147q2 -29 19 -41t44 2q25 8 69 31.5t90 56.5t86 71t59.5 74.5t8 67.5t-68.5 51q-37 8 -65.5 -1t-52.5 -28.5t-43 -44t-36 -49.5q-2 -4 -20.5 -32.5t-38 -62.5t-35.5 -62.5t-16 -32.5z" />
<glyph unicode="&#xfe;" horiz-adv-x="1132" d="M131 356q0 47 1 118t4 153t7 168t11.5 162.5t15.5 140t20 100.5q6 37 29 56.5t49.5 20.5t50 -15.5t33.5 -53.5q0 -31 1 -91t2 -125.5t3 -125t4 -90.5q55 10 123 26.5t137.5 23.5t134 -2t111.5 -48q61 -51 99.5 -126t51.5 -156.5t1 -164.5t-50 -153t-103.5 -118 t-157.5 -60q-37 -6 -87.5 6t-101.5 25.5t-100 19.5t-84 -12q0 -8 -1 -15.5t-1 -15.5q4 -25 7 -85t2 -130t-8 -136.5t-22 -105.5q-16 -35 -61 -30l-8 2l-51 45q-12 14 -21.5 71.5t-15.5 137.5t-11.5 171t-8.5 174t-4 147.5t-1 90.5zM363.5 307q1.5 -49 11.5 -98 q43 -20 76.5 -38.5t69.5 -28t80 -7.5t108 21q66 33 105.5 93t31.5 126q6 156 -33 227.5t-105.5 87t-154.5 -12.5t-180 -69q-2 0 -4 -1t-4 -1q4 -49 3 -99t-3.5 -100.5t-1 -99.5z" />
<glyph unicode="&#xff;" horiz-adv-x="1028" d="M-124 -484.5q-3 25.5 12.5 51t50.5 38.5q27 0 73.5 4t95 12t90.5 22.5t60 37.5q25 29 45.5 61.5t42.5 64.5q61 125 88 208t28 139.5t-19.5 92.5t-54.5 69.5t-76 72.5t-83 100l-112 179q-4 0 -16.5 13t-26 33.5t-24.5 43t-11 39.5q2 10 10 30q0 16 10.5 26.5t26.5 12.5 q29 14 61.5 2t49.5 -53q-2 4 -2 8q31 -53 54 -88t39.5 -59.5t30 -42t25.5 -33.5q57 -45 97 -72.5t68 -46t46 -29t33 -18.5q4 8 6 14.5t6 14.5q29 70 63.5 149.5t55.5 151.5q6 25 12 49.5t10 46.5q4 10 17.5 28.5t21.5 29.5q4 4 5 7t3 7q4 10 6.5 16t6.5 15q20 37 59 43 q25 25 55 30q33 0 54.5 -13t32 -32.5t7.5 -43t-20 -42.5q-2 -4 -9 -17.5t-9 -15.5q-10 -20 -21.5 -39.5t-21.5 -41.5q-41 -100 -74 -209t-64.5 -218.5t-67.5 -218t-84 -211t-113.5 -195.5t-155.5 -173q-8 -6 -21 -19q-43 -37 -81 -57t-81 -29.5t-97 -12.5t-132 -5 q-37 4 -57.5 25.5t-23.5 47zM186 1232q-1 36 16.5 61.5t60.5 21.5q63 49 100 43t50 -43t8 -89t-25.5 -95.5t-51 -63.5t-67.5 10q-14 8 -18 17q-4 4 -9.5 6t-9.5 6q-23 18 -38 54t-16 72zM550 1232q-1 36 16.5 61.5t60.5 21.5q63 49 100 43t50.5 -43t8.5 -89t-25.5 -95.5 t-51.5 -63.5t-68 10q-14 8 -18 17q-4 4 -9 6t-9 6q-23 18 -38.5 54t-16.5 72z" />
<glyph unicode="&#x152;" horiz-adv-x="1949" d="M37 713q8 162 24.5 277.5t42 195.5t61.5 130t84 78.5t109.5 42t137.5 19.5q156 0 265 -85t176 -217t92.5 -294t13 -318.5t-59.5 -287.5t-127 -203q-39 -37 -101.5 -55.5t-131 -23.5t-135 1.5t-113.5 18.5q-94 27 -154.5 73t-96.5 105t-53.5 128t-23.5 140.5t-6 142.5 t-4 132zM240.5 704.5q7.5 -106.5 33 -208t63.5 -179t86 -122.5t99 -39q49 6 86 34.5t63.5 68.5t45 86t33.5 87q12 37 18 111.5t5 167t-12 190.5t-33.5 178t-57.5 132.5t-86 54.5q-104 2 -174 -45t-110 -127t-53.5 -181.5t-6 -208zM875.5 857q17.5 364 64.5 568l813 23 q47 -4 73.5 -41t31.5 -79t-11 -75.5t-53 -33.5q-82 -10 -159 -11.5t-156.5 1.5t-164.5 7.5t-184 8.5q8 -16 6 -62.5t-6 -105t-8 -121t0 -113.5q68 -4 125 -4t109.5 1t104.5 0t114 -7q45 -8 61.5 -42t11 -70.5t-28 -64.5t-55.5 -22q-53 -8 -119.5 -7t-132 3t-121 1t-83.5 -11 q-8 -78 -10.5 -165t-12.5 -185q0 -6 -4 -19q4 0 6 -2q86 -8 155 -11t133.5 -3t128 3t138.5 9q90 8 127 1t48.5 -27.5t12.5 -55t19 -82.5q0 -43 -41 -51q-63 -12 -136 -13t-136 -3q-70 0 -154 2t-171 4t-170.5 4t-153.5 0q-29 487 -11.5 851z" />
<glyph unicode="&#x153;" horiz-adv-x="1720" d="M27.5 491.5q5.5 100.5 34 201t81 185.5t123.5 128q18 10 44 19t66 10t95 -9t135 -35q82 -37 129 -97t70.5 -135t30 -159t8.5 -170q2 -49 -7.5 -113.5t-35.5 -109.5q-41 -66 -92.5 -111t-116.5 -86q-61 -12 -120.5 -15t-111 0t-89.5 12t-54 22q-41 31 -67.5 62.5t-45 66.5 t-32 74.5t-27.5 84.5q-23 74 -17.5 174.5zM190.5 408.5q2.5 -52.5 27 -98.5t78.5 -78.5t148 -45.5q57 -8 97.5 19.5t66 73t40 97.5t20.5 94t7 64.5t3 8.5q-4 55 -20.5 115.5t-53.5 106.5t-101.5 67.5t-166.5 -5.5q-18 -8 -32.5 -28.5t-24 -45t-17.5 -47t-14 -34.5 q-8 -25 -23.5 -68t-26 -93t-8 -102.5zM725.5 395.5q-21.5 102.5 2.5 226t112 265.5q35 55 105.5 90t155.5 46t175 -4t164.5 -57t122 -115t49.5 -177q0 -72 -2 -110t-23.5 -55.5t-71 -19.5t-141.5 0q-39 0 -92 2t-109.5 2h-109.5t-92 -2q-6 -45 5 -90t37.5 -86t67.5 -73.5 t97 -51.5q20 -8 50.5 -14t62.5 -8t58.5 2t41.5 14q18 12 38.5 20.5t32.5 20.5q4 4 4 9.5t2 11.5l2 -2q12 23 34 27.5t39.5 -1.5t25.5 -23.5t-2 -41.5q-41 -90 -113 -140.5t-158 -62.5t-177 9.5t-171 73.5t-140.5 132t-82 182.5zM909 838l2 -2zM997 662q104 2 213 -4.5 t211 -2.5q-6 57 -25.5 91t-48 53.5t-62.5 29t-71 15.5q-57 -8 -88.5 -17.5t-52 -29t-36 -51t-40.5 -84.5z" />
<glyph unicode="&#x178;" horiz-adv-x="1044" d="M18 1380q6 27 24.5 46.5t43.5 27.5t51.5 1t46.5 -34q68 -84 103 -146.5t62.5 -115.5t59 -101t95.5 -102q88 135 145.5 222.5t94 138.5t58 74.5t36.5 33.5q14 6 36.5 11.5t46 3.5t41 -17.5t19.5 -52.5q2 -41 -24.5 -98.5t-68.5 -123t-91 -134t-93.5 -132t-74 -116.5 t-31.5 -88q-6 -80 -2 -163l8 -166t4 -167t-14 -166q-4 -20 -37 -30.5t-70.5 -5t-68.5 27t-29 64.5q10 125 15.5 279.5t21.5 344.5l-6 13q-31 53 -87.5 133t-115.5 162.5t-109.5 159.5t-68.5 124q-6 12 -15.5 41t-5.5 51zM194 1642q-1 36 16.5 61.5t60.5 21.5q63 49 100 43 t50 -43t8 -89t-25.5 -95.5t-51 -63.5t-67.5 10q-14 8 -18 17q-4 4 -9.5 6t-9.5 6q-23 18 -38 54t-16 72zM558 1642q-1 36 16.5 61.5t60.5 21.5q63 49 100 43t50.5 -43t8.5 -89t-25.5 -95.5t-51.5 -63.5t-68 10q-14 8 -18 17q-4 4 -9 6t-9 6q-23 18 -38.5 54t-16.5 72z" />
<glyph unicode="&#x2c6;" d="M244.5 1108q-11.5 27 7.5 57q29 47 65.5 62.5t83.5 34.5q63 43 97 79.5t62 52t63.5 3t107.5 -67.5q31 -33 70 -49t82 -23q43 -47 40 -81.5t-32 -51t-75 -10.5t-85 41q-37 35 -68.5 78t-68.5 80l-195 -219q-25 -29 -57.5 -33t-59 8t-38 39z" />
<glyph unicode="&#x2dc;" horiz-adv-x="919" d="M47 1160.5q4 21.5 21 37.5q0 2 2 4q16 18 49 42t70.5 43.5t77.5 32.5t71 9q47 -6 75.5 -20.5t51 -35t46.5 -43t60 -42.5q12 -6 36 -4t51.5 17.5t55 44t50.5 73.5q31 27 58.5 20.5t45 -31t17.5 -59.5t-25 -63q-23 -18 -52.5 -47t-64 -50.5t-73.5 -30.5t-82 9 q-31 12 -61.5 42t-62.5 57.5t-62.5 45t-59.5 9.5q-35 -10 -60.5 -36t-49 -53.5t-48 -48t-57.5 -18.5q-31 2 -50.5 17.5t-26.5 36t-3 42zM653 1208l4 -12q0 -2 -1 2t-2 7z" />
<glyph unicode="&#x2000;" horiz-adv-x="936" />
<glyph unicode="&#x2001;" horiz-adv-x="1873" />
<glyph unicode="&#x2002;" horiz-adv-x="936" />
<glyph unicode="&#x2003;" horiz-adv-x="1873" />
<glyph unicode="&#x2004;" horiz-adv-x="624" />
<glyph unicode="&#x2005;" horiz-adv-x="468" />
<glyph unicode="&#x2006;" horiz-adv-x="312" />
<glyph unicode="&#x2007;" horiz-adv-x="312" />
<glyph unicode="&#x2008;" horiz-adv-x="234" />
<glyph unicode="&#x2009;" horiz-adv-x="374" />
<glyph unicode="&#x200a;" horiz-adv-x="104" />
<glyph unicode="&#x2010;" horiz-adv-x="733" d="M99 581.5q1 28.5 23.5 52t65.5 25.5q59 -33 124 -38t124.5 0.5t109.5 11.5t81.5 0t41 -35t-13.5 -96q-27 -8 -53.5 -7t-53 6t-54 12t-54.5 9q-66 6 -130 -3t-130 -21q-43 4 -62.5 29.5t-18.5 54z" />
<glyph unicode="&#x2011;" horiz-adv-x="733" d="M99 581.5q1 28.5 23.5 52t65.5 25.5q59 -33 124 -38t124.5 0.5t109.5 11.5t81.5 0t41 -35t-13.5 -96q-27 -8 -53.5 -7t-53 6t-54 12t-54.5 9q-66 6 -130 -3t-130 -21q-43 4 -62.5 29.5t-18.5 54z" />
<glyph unicode="&#x2012;" horiz-adv-x="733" d="M99 581.5q1 28.5 23.5 52t65.5 25.5q59 -33 124 -38t124.5 0.5t109.5 11.5t81.5 0t41 -35t-13.5 -96q-27 -8 -53.5 -7t-53 6t-54 12t-54.5 9q-66 6 -130 -3t-130 -21q-43 4 -62.5 29.5t-18.5 54z" />
<glyph unicode="&#x2013;" horiz-adv-x="1126" d="M19 581.5q1 28.5 24 52t66 25.5q88 -8 145 -15t108.5 -13t109.5 -10.5t146 -4.5q39 0 91.5 4.5t105.5 9.5t98 9t70 6q37 -10 53.5 -33.5t15.5 -50t-20.5 -49.5t-56.5 -29q-88 8 -166 16.5t-153.5 14.5t-153.5 9t-168 3q-80 0 -129.5 -12t-104.5 -16q-43 4 -62.5 29.5 t-18.5 54z" />
<glyph unicode="&#x2014;" horiz-adv-x="1347" d="M19 581.5q1 28.5 24 52t66 25.5q176 -16 346 -28.5t348 -14.5q39 0 101.5 4.5t127 9.5t118.5 9t79 6q37 -10 53 -33.5t15 -50t-20.5 -49.5t-55.5 -29q-178 16 -350.5 29.5t-352.5 13.5q-41 0 -100.5 -4t-120.5 -8t-115.5 -9t-81.5 -7q-43 4 -62.5 29.5t-18.5 54z" />
<glyph unicode="&#x2018;" horiz-adv-x="315" d="M-53 623q14 60 34 129.5t60 133.5q14 20 22.5 30t10.5 11q10 14 21.5 18t23.5 1t24 -10t22 -14q-3 3 -2.5 3t2.5 -3q12 -18 11.5 -36t-9.5 -31t-25.5 -19.5t-36.5 -0.5l-8 3l-2 1q-14 -14 -19 -28.5t-3.5 -30t6.5 -32t10 -36.5q18 -5 26.5 -16.5t11.5 -26.5 q17 -18 15.5 -39.5t-17.5 -35.5q4 -11 3 -22.5t-11 -21t-30 -16.5t-55 -11q-38 -2 -60 19t-25 81z" />
<glyph unicode="&#x2019;" horiz-adv-x="366" d="M63.5 625q0.5 18 9.5 31t25.5 19.5t36.5 0.5l8 -3l2 -1q14 14 19 28.5t3.5 30t-6.5 32t-10 36.5q-17 5 -26 16.5t-12 26.5q-17 18 -15.5 39.5t17.5 35.5q-4 11 -3 22.5t11.5 21t30 16.5t54.5 11q38 2 60 -19t25 -81q-14 -60 -34 -129.5t-60 -133.5q-14 -20 -22.5 -30 t-10.5 -11q-10 -14 -21 -18t-23.5 -1t-24.5 10t-22 14q3 -3 2.5 -3t-2.5 3q-12 18 -11.5 36z" />
<glyph unicode="&#x201a;" horiz-adv-x="339" d="M49.5 -113q0.5 18 9.5 31t25.5 19.5t36.5 0.5l8 -3l2 -1q14 14 19 28.5t3.5 30t-6.5 32t-10 36.5q-17 5 -26 16.5t-12 26.5q-17 18 -15.5 39.5t17.5 35.5q-4 11 -3 22.5t11.5 21t30 16.5t54.5 11q38 2 60 -19t25 -81q-14 -60 -34 -129.5t-60 -133.5q-14 -20 -22.5 -30 t-10.5 -11q-10 -14 -21 -18t-23.5 -1t-24.5 10t-22 14q3 -3 2.5 -3t-2.5 3q-12 18 -11.5 36z" />
<glyph unicode="&#x201c;" horiz-adv-x="583" d="M-53 623q14 60 34 129.5t60 133.5q14 20 22.5 30t10.5 11q10 14 21.5 18t23.5 1t24 -10t22 -14q-3 3 -2.5 3t2.5 -3q12 -18 11.5 -36t-9.5 -31t-25.5 -19.5t-36.5 -0.5l-8 3l-2 1q-14 -14 -19 -28.5t-3.5 -30t6.5 -32t10 -36.5q18 -5 26.5 -16.5t11.5 -26.5 q17 -18 15.5 -39.5t-17.5 -35.5q4 -11 3 -22.5t-11 -21t-30 -16.5t-55 -11q-38 -2 -60 19t-25 81zM121 623q14 60 34 129.5t60 133.5q14 20 22.5 30t10.5 11q10 14 21.5 18t23.5 1t24 -10t22 -14q-3 3 -2.5 3t2.5 -3q12 -18 11.5 -36t-9.5 -31t-25.5 -19.5t-36.5 -0.5l-8 3 l-2 1q-14 -14 -19 -28.5t-3.5 -30t6.5 -32t10 -36.5q18 -5 26.5 -16.5t11.5 -26.5q17 -18 15.5 -39.5t-17.5 -35.5q4 -11 3 -22.5t-11 -21t-30 -16.5t-55 -11q-38 -2 -60 19t-25 81z" />
<glyph unicode="&#x201d;" horiz-adv-x="583" d="M63.5 625q0.5 18 9.5 31t25.5 19.5t36.5 0.5l8 -3l2 -1q14 14 19 28.5t3.5 30t-6.5 32t-10 36.5q-17 5 -26 16.5t-12 26.5q-17 18 -15.5 39.5t17.5 35.5q-4 11 -3 22.5t11.5 21t30 16.5t54.5 11q38 2 60 -19t25 -81q-14 -60 -34 -129.5t-60 -133.5q-14 -20 -22.5 -30 t-10.5 -11q-10 -14 -21 -18t-23.5 -1t-24.5 10t-22 14q3 -3 2.5 -3t-2.5 3q-12 18 -11.5 36zM237.5 625q0.5 18 9.5 31t25.5 19.5t36.5 0.5l8 -3l2 -1q14 14 19 28.5t3.5 30t-6.5 32t-10 36.5q-17 5 -26 16.5t-12 26.5q-17 18 -15.5 39.5t17.5 35.5q-4 11 -3 22.5t11.5 21 t30 16.5t54.5 11q38 2 60 -19t25 -81q-14 -60 -34 -129.5t-60 -133.5q-14 -20 -22.5 -30t-10.5 -11q-10 -14 -21 -18t-23.5 -1t-24.5 10t-22 14q3 -3 2.5 -3t-2.5 3q-12 18 -11.5 36z" />
<glyph unicode="&#x201e;" horiz-adv-x="573" d="M49.5 -113q0.5 18 9.5 31t25.5 19.5t36.5 0.5l8 -3l2 -1q14 14 19 28.5t3.5 30t-6.5 32t-10 36.5q-17 5 -26 16.5t-12 26.5q-17 18 -15.5 39.5t17.5 35.5q-4 11 -3 22.5t11.5 21t30 16.5t54.5 11q38 2 60 -19t25 -81q-14 -60 -34 -129.5t-60 -133.5q-14 -20 -22.5 -30 t-10.5 -11q-10 -14 -21 -18t-23.5 -1t-24.5 10t-22 14q3 -3 2.5 -3t-2.5 3q-12 18 -11.5 36zM223.5 -113q0.5 18 9.5 31t25.5 19.5t36.5 0.5l8 -3l2 -1q14 14 19 28.5t3.5 30t-6.5 32t-10 36.5q-17 5 -26 16.5t-12 26.5q-17 18 -15.5 39.5t17.5 35.5q-4 11 -3 22.5t11.5 21 t30 16.5t54.5 11q38 2 60 -19t25 -81q-14 -60 -34 -129.5t-60 -133.5q-14 -20 -22.5 -30t-10.5 -11q-10 -14 -21 -18t-23.5 -1t-24.5 10t-22 14q3 -3 2.5 -3t-2.5 3q-12 18 -11.5 36z" />
<glyph unicode="&#x2022;" horiz-adv-x="763" d="M219 636q-2 40 18.5 67.5t71.5 21.5q74 55 116 48t58.5 -47t9 -97.5t-31 -104.5t-59 -68.5t-78.5 11.5q-8 4 -13.5 9t-9.5 9t-9 6.5t-9 6.5q-25 18 -43.5 58t-20.5 80z" />
<glyph unicode="&#x2026;" horiz-adv-x="1163" d="M76 128q0 17 8 33.5t22 26.5q2 39 35 63.5t80 8.5q43 21 94 -12q18 -29 18.5 -56.5t-11.5 -50.5l-2.5 -5l-2.5 -5q-2 -8 -2 -14t-4 -13q18 -31 16.5 -61.5t-19 -51t-45 -25.5t-58.5 18q-33 23 -37 59q-29 -4 -55 18q-20 14 -28.5 32t-8.5 35zM428 128q0 17 8 33.5 t23 26.5q2 39 34.5 63.5t79.5 8.5q44 21 95 -12q18 -29 18 -56.5t-12 -50.5q-2 -4 -2 -5t-2 -5q-2 -8 -2 -14t-4 -13q18 -31 16 -61.5t-19.5 -51t-45 -25.5t-58.5 18q-33 23 -37 59q-29 -4 -55 18q-20 14 -28.5 32t-8.5 35zM801 128q0 17 8 33.5t22 26.5q2 39 35 63.5 t80 8.5q43 21 94 -12q18 -29 18.5 -56.5t-11.5 -50.5l-2.5 -5l-2.5 -5q-2 -8 -2 -14t-4 -13q18 -31 16.5 -61.5t-19 -51t-45 -25.5t-58.5 18q-33 23 -37 59q-29 -4 -55 18q-20 14 -28.5 32t-8.5 35z" />
<glyph unicode="&#x202f;" horiz-adv-x="374" />
<glyph unicode="&#x2039;" horiz-adv-x="729" d="M127 532.5q6 26.5 29.5 46t57.5 43t74 55.5t81 83q25 31 41 65.5t33.5 68.5t41 61.5t60.5 43.5q57 -25 63 -62.5t-21.5 -81.5t-78.5 -92t-108.5 -95t-112 -89t-84.5 -73q18 -25 62 -73t95.5 -101t98.5 -100.5t71 -65.5q25 -35 26 -65.5t-14.5 -48t-42 -16.5t-57.5 32 q-57 70 -125.5 143.5t-126.5 159.5q-41 59 -55 97t-8 64.5z" />
<glyph unicode="&#x203a;" horiz-adv-x="729" d="M150 936.5q-6 -37.5 21.5 -81.5t78.5 -92t108.5 -95t112 -89t84.5 -73q-18 -25 -62 -73t-95.5 -101t-98.5 -100.5t-71 -65.5q-25 -35 -26 -65.5t14.5 -48t42 -16.5t57.5 32q57 70 125.5 143.5t126.5 159.5q41 59 55 97t8 64.5t-29.5 46t-57.5 43t-74 55.5t-81 83 q-25 31 -41 65.5t-33.5 68.5t-41 61.5t-60.5 43.5q-57 -25 -63 -62.5z" />
<glyph unicode="&#x205f;" horiz-adv-x="468" />
<glyph unicode="&#x20ac;" horiz-adv-x="1136" d="M42 770q1 29 23.5 52.5t65.5 25.5q70 -16 122 -24.5t99 -9.5t98.5 5t122.5 23q37 -10 53.5 -34t15.5 -50.5t-20.5 -49t-56.5 -28.5q-72 16 -122 25.5t-97 10.5t-98 -6.5t-125 -23.5q-43 4 -62.5 29.5t-18.5 54.5zM62 497.5q1 28.5 24 52t66 25.5q70 -16 122 -24t99 -9 t98 5t123 22q37 -10 53.5 -33.5t15.5 -50t-20.5 -49t-56.5 -28.5q-72 16 -122 25t-97.5 10t-98.5 -6t-125 -23q-43 4 -62.5 29.5t-18.5 54zM111.5 618.5q-7.5 106.5 10 211t62.5 190.5q37 74 105.5 133t151.5 97t175.5 51.5t177.5 -3t155.5 -65.5t111.5 -139 q0 -37 -18.5 -59.5t-44 -28t-52 7t-45.5 45.5q-37 31 -82 51t-101 22.5t-126 -18t-156 -72.5q-84 -47 -123 -121.5t-41 -163.5t27 -182.5t81 -174.5t122.5 -142t149.5 -86t163 -5.5t164 99.5q2 2 10 6q45 16 68.5 -8t1.5 -90q-20 -80 -76.5 -119t-127.5 -51t-144.5 -7 t-128.5 13q-111 16 -196 73.5t-143.5 141.5t-91 185.5t-40 208z" />
<glyph unicode="&#x2122;" horiz-adv-x="1177" d="M57 900.5q1 12.5 7 20.5q8 16 35 19q36 -4 86 -7t101.5 -4t97.5 -0.5t73 1.5q13 1 24 1t19 -3.5t13.5 -11t6.5 -22.5q9 -16 1.5 -31t-31.5 -19q-41 6 -72.5 8.5t-72.5 1.5q0 -20 -0.5 -41t-2 -48t-3 -64t-2 -89.5t0 -122.5t2.5 -164q-1 -18 -14 -29t-30 -14.5t-33.5 0 t-23.5 14.5q0 56 -3 110t6 94v22t0.5 25t0.5 37.5t0.5 58t1 85.5t0.5 120q-16 -3 -52 -1t-100 2q-14 1 -22 9t-11.5 19t-2.5 23.5zM278 474q2 74 5 146.5t3.5 143.5t-7.5 144q0 17 11.5 26.5t29 12t35 0t28.5 -10.5q8 -9 14 -22v-6q6 -27 20.5 -53.5t33.5 -51t40 -48 t39 -45.5q8 8 13 16.5t14 18.5q19 23 39.5 52t36.5 56.5t25 49.5t5 32q2 5 5 8l8 8q2 2 3.5 3t1.5 2t0.5 1.5t4.5 0.5q10 0 22.5 -3t23.5 -8.5t19.5 -14t9.5 -19.5q-4 -63 -4.5 -119t0.5 -110t2.5 -109.5t1.5 -116.5q0 -28 0.5 -58.5t-1 -55.5t-5.5 -40.5t-11 -15.5 q-16 0 -32 0.5t-29.5 5.5t-22 16t-8.5 33q0 45 3 90.5t6.5 88.5t4.5 83t-2 76q-2 11 -2.5 20.5t-2.5 19.5q-9 -19 -25 -36.5t-34 -35.5t-33 -36.5t-22 -38.5q-17 -21 -20 -21q-2 0 -4.5 6.5t-12.5 14.5q-7 6 -19 24.5t-26 41t-28.5 46.5t-26 41.5t-18.5 25.5t-6 -1 q4 -18 5.5 -25.5t2 -15t-0.5 -19.5t-2.5 -39.5t-3.5 -75t-3 -124.5q-2 -43 -1 -74t-2 -50.5t-12 -30t-31 -11.5q-23 -1 -37 10t-18 27q-5 76 -3 150z" />
<glyph unicode="&#xe000;" horiz-adv-x="1075" d="M0 0v1075h1075v-1075h-1075z" />
</font>
</defs>
</svg>
