<?xml version="1.0" encoding="UTF-8" standalone="no"?>
<!-- Created with Inkscape (http://www.inkscape.org/) -->

<svg
   xmlns:dc="http://purl.org/dc/elements/1.1/"
   xmlns:cc="http://creativecommons.org/ns#"
   xmlns:rdf="http://www.w3.org/1999/02/22-rdf-syntax-ns#"
   xmlns:svg="http://www.w3.org/2000/svg"
   xmlns="http://www.w3.org/2000/svg"
   xmlns:sodipodi="http://sodipodi.sourceforge.net/DTD/sodipodi-0.dtd"
   xmlns:inkscape="http://www.inkscape.org/namespaces/inkscape"
   version="1.1"
   width="512"
   height="512"
   viewBox="0 0 512 512"
   id="svg3222"
   xml:space="preserve"
   inkscape:version="0.48.3.1 r9886"
   sodipodi:docname="pen-circle.svg"><sodipodi:namedview
   pagecolor="#ffffff"
   bordercolor="#666666"
   borderopacity="1"
   objecttolerance="10"
   gridtolerance="10"
   guidetolerance="10"
   inkscape:pageopacity="0"
   inkscape:pageshadow="2"
   inkscape:window-width="1317"
   inkscape:window-height="744"
   id="namedview3039"
   showgrid="false"
   inkscape:zoom="1.1210938"
   inkscape:cx="316.15706"
   inkscape:cy="220.59426"
   inkscape:window-x="49"
   inkscape:window-y="24"
   inkscape:window-maximized="1"
   inkscape:current-layer="svg3222" /><metadata
   id="metadata3229"><rdf:RDF><cc:Work
       rdf:about=""><dc:format>image/svg+xml</dc:format><dc:type
         rdf:resource="http://purl.org/dc/dcmitype/StillImage" /><dc:title></dc:title></cc:Work></rdf:RDF></metadata><defs
   id="defs3227" />

<path
   style="fill:#000000"
   d="m 311.54555,461.52436 c 11.50718,-3.74514 11.6118,-4.45127 8.23754,-55.58939 -3.3658,-51.00936 -13.02014,-94.00901 0.56072,-112.78423 17.19974,-23.7784 42.04527,-37.31626 66.51526,-37.31626 19.8468,0 62.4307,-15.54325 65.61193,-23.94858 1.35913,-3.59107 -4.71719,-5.20621 -19.58652,-5.20621 -28.92489,0 -78.87611,20.77799 -103.76987,45.51116 l -11.78314,13.47096 -8.99242,12.61805 c -11.10329,15.57999 15.05621,-8.57962 -8.92194,-9.63973 -8.08737,-0.35736 -5.57591,0.55796 5.61399,-1.38066 11.99283,-2.0777 15.42222,-4.91925 15.42222,-12.77859 0,-13.09562 -22.76935,-18.28543 -70.66868,-16.10748 -39.38725,1.79086 -57.05726,10.35857 -45.21207,21.92202 3.6376,3.55106 11.53552,6.52984 17.55095,6.61952 8.42413,0.12536 6.9641,1.56061 -6.35427,6.24537 -16.58904,5.8353 -17.17037,6.80149 -14.31072,23.78557 6.90415,41.00546 11.36092,53.18315 7.12296,79.82206 -4.41411,27.74544 -6.88835,61.58454 5.11507,65.28199 15.67543,4.82858 82.50082,4.46959 97.84899,-0.52557 z m -159.97083,-8.50423 c 28.24919,-23.05644 63.123,-62.78547 46.78933,-62.78547 -12.90666,0 -58.76688,30.81014 -65.68482,50.82878 -10.9941,31.81359 -4.3119,30.89815 18.89549,11.95669 z m -49.067,-42.13437 c 37.74465,-3.6643 48.61925,-6.70975 69.97763,-19.03148 23.64161,-13.63898 40.19131,-15.37683 4.04179,-12.3982 -21.36351,1.76027 -36.10502,-3.40071 -64.23167,1.11031 -35.702151,5.726 -66.62965,35.55894 -49.628503,34.11069 3.53425,-0.30112 21.4626,-2.00713 39.840753,-3.79132 z M 469.00687,298.38158 c 0,-11.84639 -74.78041,-38.40553 -93.50764,-33.21036 -11.68516,3.2416 24.67389,26.9392 45.86968,29.89633 10.65013,1.4858 25.72554,3.72343 33.50092,4.97246 7.77538,1.24903 14.13704,0.50276 14.13704,-1.65843 z M 189.58844,354.528 c -11.6502,-11.37311 -38.6752,-19.90589 -74.53774,-24.5475 -48.747103,-6.30926 -55.968108,-2.8124 -13.4929,19.01167 20.12898,10.34242 61.47367,25.76912 81.45965,22.64717 31.42313,-4.90852 12.56552,-11.25939 6.57099,-17.11134 z m 33.19085,-99.1638 c 18.88859,-7.00728 57.02822,-7.70598 79.17674,-1.45051 9.04846,2.55561 17.43577,3.8493 18.63851,2.8749 1.20268,-0.97445 -0.4349,-23.45118 -3.63917,-49.9483 -4.06251,-33.59436 -4.2381,-54.68285 -0.58003,-69.6719 4.48309,-18.36978 4.03975,-22.00767 -3.04919,-25.01907 -16.91078,-7.18378 -52.33758,-9.18842 -80.03948,-4.52911 -25.2677,4.24985 -28.25759,5.82829 -26.27441,13.87047 6.58983,26.7227 7.5395,38.03693 4.63413,55.21059 l -0.74763,14.2355 -23.56025,-26.95231 C 149.03205,120.16287 106.62819,86.925598 56.990403,86.856585 47.801356,86.844095 40.283,88.389877 40.283,90.292267 c 0,4.30341 -4.944607,0.949598 58.075193,33.172823 7.457797,3.81331 19.741457,5.01795 26.295597,5.01795 20.26979,0 32.72519,12.63348 63.20056,47.10767 27.94382,31.61045 22.55051,47.39255 19.41008,65.8921 -1.89338,11.15358 -2.64713,20.12707 -1.67497,19.94101 0.97217,-0.18617 8.70759,-2.91286 17.18983,-6.05962 z M 376.65546,112.76603 c 26.76664,-6.8231 43.69629,-14.315182 43.69629,-19.337422 0,-6.58919 -50.61716,-4.55355 -68.37008,2.74955 -26.05607,10.718842 -31.02788,14.768192 -23.12137,18.831662 9.07141,4.66214 23.32932,3.9928 47.79516,-2.24379 z M 335.25229,93.213658 c 22.13574,-15.74638 33.69207,-32.27002 33.69207,-48.17412 l 0,-11.46455 -20.52036,16.23422 c -19.13406,15.137478 -40.9987,49.45681 -34.73947,54.528002 1.525,1.2355 11.23051,-3.77009 21.56776,-11.123552 z m -232.9339,71.729992 c 23.72266,-6.85962 42.57521,-19.07911 42.57521,-24.50769 0,-5.60317 -35.32851,-10.47307 -56.632072,-4.61888 -23.11064,6.35083 -44.826065,18.51596 -45.165202,30.46919 -0.198139,6.9836 36.825051,5.13366 59.222064,-1.34262 z m 54.41766,-60.99073 c 0,-22.222361 -26.36342,-62.934248 -42.80841,-62.934248 -8.40433,0 -8.50305,-1.441536 1.58928,23.206632 8.77574,21.432686 28.84096,52.280796 37.23199,52.280796 2.68353,0 3.98714,-6.75275 3.98714,-12.55318 z"
   id="path3078"
   inkscape:connector-curvature="0"
   sodipodi:nodetypes="ssssssscscsssscssssssssssssscssssssssssssscsssssscscssssscsssscsssssssscscssssss" /></svg>