<?xml version="1.0" encoding="UTF-8" standalone="no"?>
<!-- Created with Inkscape (http://www.inkscape.org/) -->

<svg
   xmlns:dc="http://purl.org/dc/elements/1.1/"
   xmlns:cc="http://creativecommons.org/ns#"
   xmlns:rdf="http://www.w3.org/1999/02/22-rdf-syntax-ns#"
   xmlns:svg="http://www.w3.org/2000/svg"
   xmlns="http://www.w3.org/2000/svg"
   version="1.1"
   width="512"
   height="512"
   viewBox="0 0 512 512"
   id="svg3222"
   xml:space="preserve"><metadata
   id="metadata3229"><rdf:RDF><cc:Work
       rdf:about=""><dc:format>image/svg+xml</dc:format><dc:type
         rdf:resource="http://purl.org/dc/dcmitype/StillImage" /><dc:title></dc:title></cc:Work></rdf:RDF></metadata><defs
   id="defs3227" />

<path
   d="m 213.5877,462.65365 c -54.40575,-14.50914 -58.20592,-15.87176 -58.16873,-20.85743 0.0341,-4.5927 53.20588,-58.70047 57.68484,-58.70047 3.08637,0 4.05489,2.11342 4.08166,8.90667 0.0523,13.26756 5.83532,35.35582 14.05053,53.66601 4.0097,8.93683 7.29036,17.21799 7.29036,18.40253 0,2.97357 -10.76887,2.36155 -24.93866,-1.41731 z m 77.16574,-71.09125 c -23.1791,-8.54579 -37.90184,-18.01018 -42.72579,-27.46591 -3.11712,-6.1101 -7.61922,-10.63672 -12.68359,-12.75276 -10.95052,-4.57541 -24.79544,-17.2659 -29.89357,-27.4009 -2.36206,-4.69576 -6.74971,-16.88739 -9.75032,-27.09246 -5.1126,-17.38806 -5.31256,-20.47805 -3.18009,-49.14622 2.2482,-30.22422 2.38836,-30.75552 11.67159,-44.24363 30.40489,-44.1771 49.05145,-53.90617 107.30888,-55.98978 18.51656,-0.66225 19.87002,-0.36308 25.9821,5.74278 6.20161,6.19533 6.28799,6.61823 2.26084,11.06821 -2.30293,2.54469 -6.98249,5.32832 -10.39901,6.1858 -3.41655,0.8575 -9.11407,3.62563 -12.66121,6.1514 -3.5471,2.52576 -8.61951,4.5923 -11.27201,4.5923 -7.58334,0 -15.93877,3.89737 -22.56835,10.52692 -3.54881,3.54885 -8.8749,6.13967 -12.73836,6.19646 -5.38908,0.079 -8.85181,3.08909 -18.38648,15.9821 -15.61336,21.11276 -18.63444,30.46575 -17.44238,54.00005 1.28777,25.42358 7.35474,37.07832 31.12147,59.78495 l 18.73708,17.90128 25.29207,-1.0469 c 30.49261,-1.26218 48.33207,-7.30041 63.86263,-21.61597 20.44933,-18.84956 27.73475,-40.11254 21.1322,-61.67595 -7.3337,-23.95141 -21.47434,-34.92582 -45.00222,-34.92582 -22.62505,0 -44.1855,16.68759 -48.20833,37.31288 -1.24618,6.38916 -0.31761,8.79337 5.73347,14.84445 3.97125,3.97125 8.3715,7.22047 9.7783,7.22047 4.9479,0 12.48749,-9.72229 10.73329,-13.84053 -5.24293,-12.30836 0.8885,-18.43463 10.58871,-10.57983 11.9619,9.68614 7.69143,39.10139 -7.53701,51.91525 -6.18083,5.20081 -9.05183,6.04087 -17.04891,4.98847 -19.18411,-2.52467 -37.27023,-33.02728 -37.69493,-63.57331 l -0.21754,-15.6517 15.31003,-17.10005 c 29.92348,-33.42204 53.56751,-40.13844 83.05179,-23.59197 34.58582,19.40944 45.37567,31.96859 51.29684,59.70824 3.11972,14.61533 3.10341,14.7183 -5.08265,32.1284 -4.51682,9.60636 -8.2593,20.29435 -8.31663,23.75112 -0.29675,17.89 -15.82427,39.8183 -42.22235,59.6274 -25.7227,19.3023 -56.40304,26.33309 -78.82951,18.06476 z M 90.755639,367.53315 c -0.755919,-1.2379 -2.646687,-14.34211 -4.201718,-29.12045 -1.555002,-14.77834 -3.802164,-30.26891 -4.993668,-34.42346 -1.19152,-4.15454 -2.166389,-7.8193 -2.166389,-8.14395 0,-0.32463 4.322805,1.13942 9.60619,3.25341 8.554484,3.42282 12.474896,3.50251 35.807976,0.72769 21.41151,-2.54629 26.54859,-2.55477 28.09888,-0.0464 1.28052,2.07192 4.30948,2.5398 9.31918,1.43948 12.61391,-2.77049 8.32433,2.21153 -13.26144,15.40222 -19.9447,12.18786 -41.76587,31.57867 -51.946819,46.16115 -2.688289,3.85056 -5.506292,5.98816 -6.262192,4.75021 z M 106.48496,233.10337 c -0.92983,-1.50449 -3.6357,-12.9941 -6.01302,-25.53246 -2.37735,-12.53836 -5.639778,-27.33387 -7.249861,-32.87889 -1.859145,-6.40274 -2.099516,-10.90219 -0.658692,-12.32982 2.112035,-2.09276 54.000113,24.61682 63.713493,32.79677 6.58999,5.54961 4.45904,8.52357 -13.38012,18.67331 -9.488,5.39825 -19.82794,12.55811 -22.97759,15.91078 -6.17214,6.56996 -10.74382,7.71346 -13.43421,3.36031 z m 91.34893,-91.56574 c -7.66542,-8.25815 -28.15972,-38.88924 -34.97054,-52.267367 -7.73795,-15.199317 -6.87355,-19.032585 5.00345,-22.187993 5.55182,-1.474955 17.33173,-5.840149 26.1776,-9.700399 8.84584,-3.860269 17.13038,-6.371576 18.41004,-5.580689 1.41101,0.872047 1.74835,9.093856 0.85718,20.890651 -0.84457,11.179605 -0.22706,28.543747 1.45223,40.828707 4.60237,33.67151 4.6581,33.14523 -3.59575,33.95487 -5.34827,0.52461 -8.73595,-0.98394 -13.33421,-5.93778 z"
   id="path3077"
   style="fill:#fece13" /></svg>